<svg width="761" height="760" viewBox="0 0 761 760" fill="none" xmlns="http://www.w3.org/2000/svg">
<rect width="760" height="760" fill="#EFF3F4"/>
<path d="M656.353 507.7L218.882 495.165C209.046 494.892 199.647 491.041 192.446 484.336C185.245 477.63 180.735 468.529 179.763 458.737L158.646 250.097C158.084 244.512 158.688 238.872 160.42 233.533C162.151 228.193 164.973 223.272 168.706 219.08C172.439 214.889 177.002 211.518 182.106 209.182C187.209 206.846 192.743 205.595 198.355 205.509L685.293 198.779C691.084 198.7 696.824 199.863 702.127 202.188C707.431 204.514 712.175 207.948 716.041 212.26C719.907 216.572 722.804 221.662 724.538 227.187C726.273 232.712 726.804 238.545 726.096 244.292L697.744 472.197C696.48 482.196 691.544 491.368 683.894 497.93C676.244 504.491 666.427 507.974 656.353 507.7V507.7Z" fill="#EAF9F3"/>
<path d="M525.364 517.627L526.878 551.699C526.878 555.046 525.549 558.256 523.182 560.622C520.816 562.989 517.606 564.319 514.259 564.319H164.619C161.272 564.319 158.063 562.989 155.696 560.622C153.33 558.256 152 555.046 152 551.699V353.407C152 350.061 153.33 346.851 155.696 344.484C158.063 342.118 161.272 340.788 164.619 340.788H514.175C517.522 340.788 520.732 342.118 523.098 344.484C525.465 346.851 526.794 350.061 526.794 353.407V487.509" stroke="#B8D8C7" stroke-width="1.8" stroke-linecap="round" stroke-linejoin="round"/>
<path d="M603.688 488.35V293.087C603.688 289.74 605.018 286.53 607.384 284.164C609.751 281.797 612.961 280.468 616.307 280.468H720.627C723.974 280.468 727.184 281.797 729.55 284.164C731.917 286.53 733.247 289.74 733.247 293.087V582.743C733.247 586.09 731.917 589.3 729.55 591.666C727.184 594.033 723.974 595.362 720.627 595.362H616.307C612.961 595.362 609.751 594.033 607.384 591.666C605.018 589.3 603.688 586.09 603.688 582.743V519.73" stroke="#B8D8C7" stroke-width="1.8" stroke-linecap="round" stroke-linejoin="round"/>
<path d="M230.324 281.645H154.692V274.158H230.324C230.523 274.157 230.721 274.195 230.905 274.271C231.089 274.346 231.256 274.458 231.397 274.599C231.538 274.74 231.65 274.907 231.725 275.091C231.801 275.275 231.839 275.473 231.838 275.672V280.047C231.855 280.254 231.828 280.462 231.759 280.658C231.69 280.854 231.58 281.033 231.437 281.183C231.294 281.334 231.122 281.453 230.93 281.533C230.738 281.612 230.532 281.651 230.324 281.645V281.645Z" stroke="#B8D8C7" stroke-width="1.8" stroke-linecap="round" stroke-linejoin="round"/>
<path d="M218.798 340.788H201.72C200.83 340.79 199.971 340.466 199.304 339.877C198.637 339.288 198.21 338.475 198.103 337.591L196.757 325.477C196.701 324.968 196.753 324.454 196.91 323.967C197.066 323.48 197.323 323.032 197.665 322.651C198.006 322.27 198.423 321.965 198.89 321.756C199.357 321.547 199.863 321.439 200.374 321.438H220.144C220.655 321.44 221.16 321.549 221.627 321.759C222.093 321.968 222.51 322.273 222.851 322.653C223.192 323.034 223.449 323.482 223.606 323.968C223.763 324.455 223.816 324.969 223.762 325.477L222.416 337.591C222.321 338.48 221.898 339.301 221.228 339.892C220.559 340.484 219.692 340.804 218.798 340.788V340.788Z" stroke="#B8D8C7" stroke-width="1.8" stroke-linecap="round" stroke-linejoin="round"/>
<path d="M208.282 321.522C208.282 321.522 201.552 320.849 200.206 311.764C200.206 311.764 206.263 313.53 208.198 317.821C208.198 317.821 209.039 308.23 213.582 307.305C213.582 307.305 215.601 314.456 212.405 317.989C212.405 317.989 214.844 313.951 221.07 314.035C220.482 315.807 219.469 317.408 218.12 318.698C216.771 319.989 215.126 320.929 213.33 321.438" fill="#B8D8C7"/>
<path d="M678.226 280.467H661.148C660.258 280.47 659.399 280.146 658.732 279.556C658.065 278.967 657.638 278.154 657.531 277.27L656.184 265.156C656.129 264.647 656.181 264.133 656.338 263.646C656.494 263.159 656.751 262.711 657.092 262.33C657.434 261.949 657.851 261.644 658.318 261.435C658.785 261.226 659.291 261.118 659.802 261.118H679.572C680.083 261.12 680.588 261.229 681.055 261.438C681.521 261.647 681.938 261.952 682.279 262.333C682.62 262.713 682.877 263.161 683.034 263.648C683.191 264.134 683.244 264.648 683.19 265.156L681.844 277.27C681.737 278.154 681.309 278.967 680.643 279.556C679.976 280.146 679.116 280.47 678.226 280.467V280.467Z" stroke="#B8D8C7" stroke-width="1.8" stroke-linecap="round" stroke-linejoin="round"/>
<path d="M667.626 261.202C667.626 261.202 660.896 260.529 659.55 251.443C659.55 251.443 665.607 253.21 667.542 257.5C667.542 257.5 668.383 247.91 672.926 246.984C672.926 246.984 674.945 254.135 671.748 257.669C671.748 257.669 674.188 253.631 680.414 253.715C679.825 255.487 678.813 257.087 677.463 258.378C676.114 259.668 674.47 260.609 672.674 261.118" fill="#B8D8C7"/>
<path d="M511.567 382.6H435.683C434.748 382.593 433.853 382.219 433.191 381.558C432.53 380.897 432.156 380.002 432.149 379.067V356.015C432.156 355.08 432.53 354.185 433.191 353.524C433.853 352.863 434.748 352.489 435.683 352.482H511.567C512.502 352.489 513.397 352.863 514.058 353.524C514.719 354.185 515.094 355.08 515.1 356.015V379.067C515.094 380.002 514.719 380.897 514.058 381.558C513.397 382.219 512.502 382.593 511.567 382.6V382.6Z" stroke="#B8D8C7" stroke-width="1.8" stroke-linecap="round" stroke-linejoin="round"/>
<path d="M482.29 360.643H464.791C464.459 360.634 464.143 360.498 463.908 360.263C463.674 360.029 463.538 359.713 463.529 359.381C463.538 359.049 463.674 358.733 463.908 358.498C464.143 358.263 464.459 358.127 464.791 358.119H482.29C482.622 358.127 482.938 358.263 483.173 358.498C483.408 358.733 483.543 359.049 483.552 359.381V359.381C483.555 359.547 483.525 359.713 483.463 359.868C483.401 360.022 483.308 360.163 483.19 360.281C483.072 360.398 482.932 360.491 482.777 360.553C482.622 360.616 482.457 360.646 482.29 360.643V360.643Z" fill="#B8D8C7"/>
<path d="M511.567 421.215H435.683C434.748 421.209 433.853 420.834 433.191 420.173C432.53 419.512 432.156 418.617 432.149 417.682V394.631C432.156 393.695 432.53 392.801 433.191 392.139C433.853 391.478 434.748 391.104 435.683 391.097H511.567C512.502 391.104 513.397 391.478 514.058 392.139C514.719 392.801 515.094 393.695 515.1 394.631V417.682C515.094 418.617 514.719 419.512 514.058 420.173C513.397 420.834 512.502 421.209 511.567 421.215V421.215Z" stroke="#B8D8C7" stroke-width="1.8" stroke-linecap="round" stroke-linejoin="round"/>
<path d="M482.29 399.173H464.791C464.459 399.165 464.143 399.029 463.908 398.794C463.674 398.559 463.538 398.243 463.529 397.911V397.911C463.538 397.579 463.674 397.263 463.908 397.028C464.143 396.794 464.459 396.658 464.791 396.649H482.29C482.622 396.658 482.938 396.794 483.173 397.028C483.408 397.263 483.543 397.579 483.552 397.911V397.911C483.555 398.078 483.525 398.244 483.463 398.398C483.401 398.553 483.308 398.693 483.19 398.811C483.072 398.929 482.932 399.022 482.777 399.084C482.622 399.146 482.457 399.177 482.29 399.173Z" fill="#B8D8C7"/>
<path d="M414.819 382.6H338.934C337.999 382.593 337.104 382.219 336.443 381.558C335.782 380.897 335.408 380.002 335.401 379.067V356.015C335.408 355.08 335.782 354.185 336.443 353.524C337.104 352.863 337.999 352.489 338.934 352.482H414.819C415.754 352.489 416.649 352.863 417.31 353.524C417.971 354.185 418.345 355.08 418.352 356.015V379.067C418.345 380.002 417.971 380.897 417.31 381.558C416.649 382.219 415.754 382.593 414.819 382.6V382.6Z" stroke="#B8D8C7" stroke-width="1.8" stroke-linecap="round" stroke-linejoin="round"/>
<path d="M385.626 360.643H368.127C367.795 360.634 367.479 360.498 367.244 360.263C367.009 360.029 366.874 359.713 366.865 359.381V359.381C366.874 359.049 367.009 358.733 367.244 358.498C367.479 358.263 367.795 358.127 368.127 358.119H385.626C385.958 358.127 386.274 358.263 386.509 358.498C386.744 358.733 386.879 359.049 386.888 359.381V359.381C386.879 359.713 386.744 360.029 386.509 360.263C386.274 360.498 385.958 360.634 385.626 360.643Z" fill="#B8D8C7"/>
<path d="M414.819 421.215H338.934C337.999 421.209 337.104 420.834 336.443 420.173C335.782 419.512 335.408 418.617 335.401 417.682V394.631C335.408 393.695 335.782 392.801 336.443 392.139C337.104 391.478 337.999 391.104 338.934 391.097H414.819C415.754 391.104 416.649 391.478 417.31 392.139C417.971 392.801 418.345 393.695 418.352 394.631V417.682C418.345 418.617 417.971 419.512 417.31 420.173C416.649 420.834 415.754 421.209 414.819 421.215V421.215Z" stroke="#B8D8C7" stroke-width="1.8" stroke-linecap="round" stroke-linejoin="round"/>
<path d="M385.626 399.173H368.127C367.795 399.165 367.479 399.029 367.244 398.794C367.009 398.559 366.874 398.243 366.865 397.911V397.911C366.874 397.579 367.009 397.263 367.244 397.028C367.479 396.794 367.795 396.658 368.127 396.649H385.626C385.958 396.658 386.274 396.794 386.509 397.028C386.744 397.263 386.879 397.579 386.888 397.911V397.911C386.879 398.243 386.744 398.559 386.509 398.794C386.274 399.029 385.958 399.165 385.626 399.173Z" fill="#B8D8C7"/>
<path d="M511.567 458.905H435.683C434.748 458.898 433.853 458.524 433.191 457.863C432.53 457.201 432.156 456.306 432.149 455.371V432.32C432.156 431.385 432.53 430.49 433.191 429.829C433.853 429.168 434.748 428.793 435.683 428.787H511.567C512.502 428.793 513.397 429.168 514.058 429.829C514.719 430.49 515.094 431.385 515.1 432.32V455.371C515.094 456.306 514.719 457.201 514.058 457.863C513.397 458.524 512.502 458.898 511.567 458.905V458.905Z" stroke="#B8D8C7" stroke-width="1.8" stroke-linecap="round" stroke-linejoin="round"/>
<path d="M482.29 436.947H464.791C464.459 436.939 464.143 436.803 463.908 436.568C463.674 436.333 463.538 436.017 463.529 435.685V435.685C463.538 435.353 463.674 435.037 463.908 434.802C464.143 434.568 464.459 434.432 464.791 434.423H482.29C482.622 434.432 482.938 434.568 483.173 434.802C483.408 435.037 483.543 435.353 483.552 435.685V435.685C483.555 435.852 483.525 436.018 483.463 436.172C483.401 436.327 483.308 436.467 483.19 436.585C483.072 436.703 482.932 436.796 482.777 436.858C482.622 436.92 482.457 436.951 482.29 436.947V436.947Z" fill="#B8D8C7"/>
<path d="M414.819 458.905H338.934C337.999 458.898 337.104 458.524 336.443 457.863C335.782 457.201 335.408 456.306 335.401 455.371V432.32C335.408 431.385 335.782 430.49 336.443 429.829C337.104 429.168 337.999 428.793 338.934 428.787H414.819C415.754 428.793 416.649 429.168 417.31 429.829C417.971 430.49 418.345 431.385 418.352 432.32V455.371C418.345 456.306 417.971 457.201 417.31 457.863C416.649 458.524 415.754 458.898 414.819 458.905V458.905Z" stroke="#B8D8C7" stroke-width="1.8" stroke-linecap="round" stroke-linejoin="round"/>
<path d="M385.626 436.947H368.127C367.795 436.939 367.479 436.803 367.244 436.568C367.009 436.333 366.874 436.017 366.865 435.685V435.685C366.874 435.353 367.009 435.037 367.244 434.802C367.479 434.568 367.795 434.432 368.127 434.423H385.626C385.958 434.432 386.274 434.568 386.509 434.802C386.744 435.037 386.879 435.353 386.888 435.685V435.685C386.879 436.017 386.744 436.333 386.509 436.568C386.274 436.803 385.958 436.939 385.626 436.947Z" fill="#B8D8C7"/>
<path d="M756.13 368.635H621.608C620.585 368.624 619.607 368.213 618.883 367.489C618.16 366.766 617.749 365.788 617.738 364.765V297.714C617.749 296.691 618.16 295.713 618.883 294.99C619.607 294.266 620.585 293.855 621.608 293.844H756.13C757.153 293.855 758.131 294.266 758.854 294.99C759.577 295.713 759.989 296.691 760 297.714V364.765C760.008 365.275 759.913 365.782 759.721 366.255C759.529 366.728 759.245 367.158 758.884 367.519C758.523 367.88 758.093 368.165 757.62 368.356C757.147 368.548 756.64 368.643 756.13 368.635V368.635Z" stroke="#B8D8C7" stroke-width="1.8" stroke-linecap="round" stroke-linejoin="round"/>
<path d="M756.13 451.922H621.608C620.585 451.911 619.607 451.5 618.883 450.777C618.16 450.053 617.749 449.075 617.738 448.052V381.002C617.749 379.979 618.16 379.001 618.883 378.277C619.607 377.554 620.585 377.143 621.608 377.132H756.13C757.153 377.143 758.131 377.554 758.854 378.277C759.577 379.001 759.989 379.979 760 381.002V448.052C760.001 448.561 759.901 449.065 759.707 449.535C759.513 450.005 759.228 450.432 758.869 450.791C758.509 451.151 758.082 451.436 757.612 451.63C757.142 451.824 756.638 451.924 756.13 451.922V451.922Z" stroke="#B8D8C7" stroke-width="1.8" stroke-linecap="round" stroke-linejoin="round"/>
<path d="M651.894 326.318H643.565V368.635H651.894V326.318Z" stroke="#B8D8C7" stroke-width="1.8" stroke-linecap="round" stroke-linejoin="round"/>
<path d="M660.475 337.928H651.81V368.719H660.475V337.928Z" stroke="#B8D8C7" stroke-width="1.8" stroke-linecap="round" stroke-linejoin="round"/>
<path d="M199.869 231.841H191.541V274.158H199.869V231.841Z" stroke="#B8D8C7" stroke-width="1.8" stroke-linecap="round" stroke-linejoin="round"/>
<path d="M208.45 243.367H199.785V274.158H208.45V243.367Z" stroke="#B8D8C7" stroke-width="1.8" stroke-linecap="round" stroke-linejoin="round"/>
<path d="M182.875 249.424H174.547V274.158H182.875V249.424Z" stroke="#B8D8C7" stroke-width="1.8" stroke-linecap="round" stroke-linejoin="round"/>
<path d="M191.541 224.606H182.875V274.074H191.541V224.606Z" stroke="#B8D8C7" stroke-width="1.8" stroke-linecap="round" stroke-linejoin="round"/>
<path d="M646.678 415.158L647.603 402.623C647.621 402.426 647.597 402.229 647.533 402.042C647.469 401.856 647.365 401.686 647.23 401.542C647.095 401.399 646.931 401.286 646.748 401.212C646.566 401.137 646.37 401.101 646.173 401.108H639.022C638.827 401.109 638.635 401.15 638.456 401.227C638.277 401.305 638.116 401.417 637.983 401.559C637.849 401.701 637.745 401.868 637.678 402.051C637.611 402.234 637.582 402.428 637.592 402.623L638.517 415.158C638.517 415.158 630.946 420.037 631.03 424.075C631.114 427.188 632.965 442.079 633.806 448.641C633.913 449.524 634.341 450.338 635.007 450.927C635.674 451.516 636.534 451.84 637.424 451.838H647.856C648.745 451.84 649.605 451.516 650.272 450.927C650.939 450.338 651.366 449.524 651.473 448.641C652.315 442.079 654.165 427.188 654.249 424.075C654.249 420.037 646.678 415.158 646.678 415.158Z" fill="#B8D8C7"/>
<path d="M687.228 331.955L688.153 319.419C688.171 319.223 688.148 319.025 688.083 318.839C688.019 318.653 687.916 318.483 687.78 318.339C687.645 318.196 687.481 318.083 687.299 318.008C687.116 317.934 686.92 317.898 686.723 317.905H679.488C679.293 317.906 679.101 317.946 678.922 318.024C678.744 318.101 678.582 318.214 678.449 318.356C678.315 318.498 678.211 318.665 678.144 318.848C678.077 319.03 678.048 319.225 678.058 319.419L678.983 331.955C678.983 331.955 671.412 336.834 671.496 340.872C671.58 343.985 673.431 358.876 674.272 365.438C674.379 366.321 674.807 367.135 675.473 367.724C676.14 368.313 677 368.637 677.89 368.635H688.322C689.212 368.637 690.071 368.313 690.738 367.724C691.405 367.135 691.832 366.321 691.939 365.438C692.781 358.876 694.631 343.985 694.716 340.872C694.8 336.834 687.228 331.955 687.228 331.955Z" fill="#B8D8C7"/>
<path d="M163.441 483.555L754.868 490.033" stroke="#B8D8C7" stroke-width="1.8" stroke-linecap="round" stroke-linejoin="round"/>
<path d="M474.803 184.14C471.521 191.123 463.95 195.75 458.65 194.32C454.023 193.058 453.181 187.589 456.126 182.121C458.986 176.905 464.707 172.699 469.671 172.614C475.139 172.446 477.831 177.494 474.803 184.14Z" fill="#F8AB5D"/>
<path d="M473.204 182.71C469.923 189.693 462.351 194.32 457.051 192.89C452.424 191.628 451.583 186.159 454.527 180.691C457.388 175.475 463.109 171.268 468.072 171.184C473.541 171.016 476.233 176.064 473.204 182.71Z" fill="#FFE779"/>
<path d="M470.512 182.373C468.072 187.589 462.351 191.123 458.313 190.197C454.696 189.356 453.854 185.149 456.126 180.859C458.313 176.737 462.94 173.456 466.726 173.456C471.017 173.54 472.868 177.41 470.512 182.373Z" fill="#F8AB5D"/>
<path d="M459.575 186.832L459.912 186.243C459.996 185.991 459.996 185.823 459.828 185.738C459.455 185.667 459.124 185.456 458.902 185.15C458.818 185.065 458.818 184.813 458.986 184.561L459.07 184.477C459.239 184.224 459.575 184.14 459.659 184.308C459.95 184.618 460.334 184.825 460.753 184.897C461.184 184.959 461.624 184.877 462.004 184.664C462.384 184.451 462.683 184.119 462.856 183.719C462.952 183.567 463.015 183.396 463.042 183.217C463.068 183.039 463.057 182.857 463.01 182.683C462.962 182.509 462.879 182.347 462.766 182.207C462.653 182.067 462.512 181.951 462.351 181.869C462.128 181.76 461.931 181.606 461.773 181.414C461.616 181.223 461.501 181 461.437 180.761C461.373 180.521 461.362 180.271 461.403 180.026C461.445 179.782 461.539 179.549 461.678 179.345C461.915 178.845 462.267 178.408 462.706 178.071C463.145 177.735 463.658 177.508 464.202 177.41C464.371 177.41 464.539 177.241 464.707 176.989L465.044 176.4C465.087 176.278 465.166 176.172 465.272 176.097C465.377 176.022 465.503 175.981 465.632 175.979V175.979C465.801 175.979 465.885 176.148 465.801 176.4L465.548 176.905C465.464 177.157 465.464 177.326 465.717 177.326C465.994 177.368 466.256 177.485 466.474 177.662C466.642 177.746 466.558 177.999 466.39 178.251L466.306 178.335C466.137 178.587 465.801 178.672 465.717 178.503C465.428 178.279 465.072 178.16 464.707 178.167C464.324 178.142 463.943 178.233 463.613 178.429C463.283 178.624 463.019 178.913 462.856 179.261C462.52 179.934 462.772 180.354 463.529 180.943C463.762 181.076 463.964 181.257 464.122 181.473C464.28 181.69 464.39 181.937 464.446 182.199C464.501 182.461 464.501 182.732 464.444 182.994C464.388 183.256 464.277 183.503 464.118 183.719C463.853 184.279 463.452 184.765 462.953 185.132C462.454 185.499 461.871 185.736 461.258 185.823C461.143 185.839 461.035 185.887 460.945 185.961C460.856 186.035 460.79 186.133 460.753 186.243L460.417 186.916C460.363 187.031 460.281 187.131 460.178 187.204C460.074 187.278 459.954 187.324 459.828 187.337V187.337C459.491 187.337 459.407 187.085 459.575 186.832Z" fill="#FFE779"/>
<path d="M628.169 334.478L595.527 332.459C594.99 332.424 594.466 332.283 593.984 332.043C593.502 331.803 593.072 331.47 592.72 331.063C592.368 330.656 592.1 330.184 591.932 329.672C591.764 329.161 591.699 328.621 591.742 328.085L596.705 261.118C596.8 259.997 597.293 258.948 598.096 258.16C598.899 257.373 599.958 256.9 601.08 256.827L634.479 254.808C635.058 254.778 635.636 254.871 636.176 255.082C636.716 255.292 637.205 255.615 637.611 256.028C638.016 256.442 638.329 256.937 638.529 257.481C638.729 258.025 638.811 258.605 638.77 259.183L633.217 330.188C633.087 331.414 632.491 332.544 631.551 333.342C630.612 334.141 629.401 334.548 628.169 334.478V334.478Z" fill="#22272E"/>
<path d="M625.898 334.478L593.256 332.459C592.719 332.424 592.194 332.283 591.712 332.043C591.23 331.803 590.801 331.47 590.448 331.063C590.096 330.656 589.828 330.184 589.66 329.672C589.492 329.161 589.428 328.621 589.47 328.085L594.434 261.118C594.528 259.997 595.022 258.948 595.825 258.16C596.627 257.373 597.686 256.9 598.809 256.827L632.208 254.808C632.786 254.778 633.365 254.871 633.905 255.082C634.444 255.292 634.933 255.615 635.339 256.028C635.745 256.442 636.058 256.937 636.258 257.481C636.458 258.025 636.54 258.605 636.498 259.183L630.946 330.188C630.816 331.414 630.22 332.544 629.28 333.342C628.34 334.141 627.129 334.548 625.898 334.478V334.478Z" fill="#22272E"/>
<path d="M615.887 262.632L609.661 262.969C609.549 262.976 609.436 262.959 609.331 262.92C609.225 262.88 609.129 262.818 609.05 262.739C608.97 262.659 608.908 262.563 608.869 262.458C608.829 262.353 608.812 262.24 608.82 262.127V262.127C608.822 261.883 608.92 261.649 609.093 261.475C609.266 261.302 609.501 261.204 609.745 261.202L615.971 260.865C616.083 260.858 616.196 260.875 616.301 260.914C616.407 260.954 616.503 261.016 616.582 261.095C616.662 261.175 616.724 261.271 616.763 261.376C616.803 261.482 616.82 261.594 616.812 261.707V261.707C616.81 261.952 616.712 262.186 616.539 262.359C616.366 262.532 616.131 262.63 615.887 262.632V262.632Z" fill="#63737A"/>
<path d="M619.504 262.464H619.336C619.224 262.471 619.111 262.455 619.005 262.415C618.9 262.375 618.804 262.314 618.725 262.234C618.645 262.154 618.583 262.059 618.544 261.953C618.504 261.848 618.487 261.735 618.495 261.623V261.623C618.526 261.366 618.643 261.127 618.826 260.944C619.009 260.761 619.248 260.645 619.504 260.613H619.672C619.785 260.606 619.898 260.622 620.003 260.662C620.108 260.702 620.204 260.763 620.284 260.843C620.364 260.923 620.425 261.018 620.465 261.124C620.505 261.229 620.521 261.342 620.514 261.454V261.454C620.482 261.711 620.365 261.95 620.183 262.133C620 262.316 619.761 262.432 619.504 262.464V262.464Z" fill="#63737A"/>
<path d="M609.745 273.821L601.417 274.074C601.213 274.077 601.012 274.036 600.826 273.954C600.64 273.872 600.473 273.752 600.337 273.6C600.202 273.449 600.1 273.27 600.04 273.076C599.979 272.882 599.961 272.677 599.986 272.475V272.475C600.031 272.044 600.222 271.641 600.528 271.335C600.835 271.028 601.238 270.837 601.669 270.793L609.998 270.456C610.201 270.453 610.402 270.494 610.589 270.576C610.775 270.658 610.941 270.778 611.077 270.93C611.212 271.081 611.314 271.26 611.374 271.454C611.435 271.648 611.453 271.853 611.428 272.055V272.055C611.417 272.505 611.238 272.936 610.927 273.262C610.616 273.589 610.195 273.788 609.745 273.821Z" fill="#63737A"/>
<path d="M607.558 302.762L599.313 302.678C599.114 302.667 598.919 302.617 598.74 302.531C598.56 302.445 598.399 302.324 598.266 302.175C598.134 302.027 598.031 301.854 597.966 301.666C597.9 301.478 597.872 301.278 597.883 301.079V301.079C597.93 300.657 598.125 300.265 598.432 299.973C598.74 299.68 599.142 299.506 599.566 299.481L607.81 299.565C608.012 299.569 608.21 299.614 608.393 299.698C608.576 299.782 608.74 299.903 608.874 300.053C609.008 300.203 609.11 300.379 609.173 300.57C609.236 300.761 609.259 300.963 609.24 301.164V301.164C609.209 301.592 609.019 301.993 608.708 302.288C608.397 302.584 607.987 302.753 607.558 302.762V302.762Z" fill="#63737A"/>
<path d="M605.791 326.15L597.547 325.729C597.341 325.716 597.141 325.661 596.957 325.568C596.773 325.476 596.609 325.347 596.476 325.19C596.343 325.033 596.242 324.851 596.18 324.655C596.119 324.458 596.097 324.252 596.116 324.047C596.134 323.636 596.31 323.248 596.609 322.966C596.907 322.683 597.304 322.528 597.715 322.532L605.96 322.869C606.167 322.875 606.372 322.925 606.559 323.015C606.747 323.106 606.913 323.234 607.048 323.393C607.183 323.551 607.283 323.736 607.342 323.936C607.4 324.135 607.417 324.345 607.39 324.551V324.551C607.39 324.975 607.221 325.382 606.922 325.682C606.622 325.981 606.215 326.15 605.791 326.15V326.15Z" fill="#63737A"/>
<path d="M624.973 292.414L600.407 292.498C600.16 292.499 599.916 292.448 599.69 292.349C599.464 292.25 599.261 292.105 599.094 291.922C598.928 291.74 598.801 291.525 598.723 291.291C598.645 291.057 598.617 290.809 598.64 290.563L599.397 279.878C599.429 279.45 599.619 279.049 599.93 278.754C600.241 278.458 600.651 278.289 601.08 278.28L625.73 277.607C625.977 277.606 626.221 277.656 626.447 277.756C626.673 277.855 626.876 278 627.043 278.182C627.209 278.365 627.335 278.58 627.414 278.814C627.492 279.048 627.52 279.296 627.496 279.542L626.655 290.731C626.655 291.177 626.478 291.605 626.162 291.921C625.847 292.236 625.419 292.414 624.973 292.414Z" fill="#389396"/>
<path d="M606.969 317.148L598.556 316.811C598.316 316.803 598.079 316.746 597.862 316.643C597.645 316.539 597.451 316.392 597.293 316.211C597.135 316.029 597.016 315.817 596.944 315.587C596.872 315.358 596.848 315.116 596.874 314.876L597.378 308.482C597.389 308.261 597.443 308.045 597.538 307.845C597.633 307.645 597.766 307.465 597.93 307.317C598.094 307.168 598.286 307.054 598.494 306.979C598.703 306.905 598.924 306.873 599.145 306.884L607.642 307.052C608.132 307.078 608.591 307.296 608.922 307.658C609.252 308.02 609.427 308.497 609.409 308.987L608.904 315.549C608.827 316.004 608.59 316.415 608.234 316.709C607.879 317.002 607.43 317.158 606.969 317.148Z" fill="#FFE779"/>
<path d="M622.954 317.653L613.952 317.316C613.711 317.308 613.475 317.251 613.258 317.147C613.04 317.044 612.847 316.897 612.689 316.715C612.531 316.534 612.412 316.322 612.34 316.092C612.268 315.862 612.244 315.62 612.269 315.381L612.774 308.735C612.785 308.514 612.839 308.297 612.934 308.097C613.028 307.897 613.162 307.718 613.326 307.569C613.49 307.421 613.682 307.306 613.89 307.232C614.099 307.158 614.32 307.125 614.541 307.136L623.627 307.305C624.116 307.331 624.576 307.548 624.906 307.91C625.237 308.272 625.412 308.75 625.393 309.24L624.889 316.054C624.815 316.51 624.578 316.924 624.222 317.218C623.866 317.512 623.415 317.667 622.954 317.653Z" fill="#F4C2C9"/>
<path d="M421.549 230.915L394.207 232.177C393.704 232.198 393.203 232.105 392.74 231.906C392.278 231.707 391.866 231.407 391.535 231.027C391.204 230.648 390.962 230.199 390.828 229.714C390.693 229.228 390.669 228.719 390.758 228.223L395.301 182.794C395.424 181.641 395.916 180.56 396.705 179.711C397.493 178.861 398.535 178.29 399.675 178.083L427.522 174.465C429.962 174.128 431.644 175.895 431.392 178.335L426.26 226.373C426.114 227.555 425.567 228.651 424.709 229.478C423.852 230.305 422.736 230.813 421.549 230.915V230.915Z" fill="#22272E"/>
<path d="M419.53 229.99L392.188 231.252C391.685 231.273 391.184 231.18 390.721 230.981C390.259 230.782 389.847 230.481 389.516 230.102C389.185 229.722 388.943 229.273 388.808 228.788C388.674 228.303 388.65 227.794 388.739 227.298L393.282 181.868C393.405 180.716 393.897 179.635 394.686 178.785C395.474 177.936 396.516 177.365 397.656 177.157L425.503 173.54C427.943 173.203 429.625 174.97 429.373 177.41L424.241 225.447C424.111 226.636 423.568 227.741 422.707 228.571C421.847 229.401 420.722 229.903 419.53 229.99V229.99Z" fill="#22272E"/>
<path d="M420.792 188.851L399.507 191.123C399.348 191.14 399.187 191.122 399.037 191.068C398.886 191.015 398.749 190.929 398.636 190.816C398.523 190.703 398.437 190.566 398.384 190.415C398.331 190.265 398.312 190.104 398.329 189.945L398.834 184.729C398.85 184.489 398.952 184.262 399.123 184.092C399.293 183.922 399.519 183.819 399.76 183.804L421.128 181.28C421.287 181.262 421.448 181.281 421.599 181.334C421.749 181.387 421.886 181.473 421.999 181.586C422.112 181.699 422.199 181.836 422.252 181.987C422.305 182.138 422.323 182.299 422.306 182.458L421.717 187.926C421.715 188.171 421.617 188.405 421.444 188.578C421.271 188.751 421.036 188.849 420.792 188.851Z" fill="#F4C2C9"/>
<path d="M401.021 203.321L398.245 203.574C398.086 203.591 397.926 203.572 397.775 203.519C397.624 203.466 397.487 203.38 397.374 203.267C397.261 203.154 397.175 203.017 397.122 202.866C397.069 202.715 397.05 202.555 397.067 202.396L397.404 199.367C397.42 199.127 397.522 198.901 397.693 198.73C397.863 198.56 398.089 198.458 398.329 198.442L401.106 198.189C401.265 198.172 401.425 198.191 401.576 198.244C401.727 198.297 401.864 198.383 401.977 198.496C402.09 198.609 402.176 198.746 402.229 198.897C402.282 199.048 402.301 199.208 402.283 199.367L401.947 202.396C401.931 202.636 401.829 202.862 401.658 203.033C401.488 203.203 401.262 203.305 401.021 203.321V203.321Z" fill="#B0D7C0"/>
<path d="M419.446 201.723L416.417 201.975C416.258 201.993 416.097 201.974 415.947 201.921C415.796 201.868 415.659 201.782 415.546 201.669C415.433 201.556 415.347 201.419 415.294 201.268C415.241 201.117 415.222 200.957 415.239 200.798L415.576 197.601C415.592 197.36 415.694 197.134 415.864 196.964C416.035 196.794 416.261 196.691 416.501 196.675L419.53 196.339C419.689 196.321 419.849 196.34 420 196.393C420.151 196.446 420.288 196.532 420.401 196.645C420.514 196.758 420.6 196.895 420.653 197.046C420.706 197.197 420.725 197.358 420.708 197.517L420.371 200.713C420.358 200.963 420.258 201.2 420.09 201.384C419.921 201.569 419.693 201.688 419.446 201.723V201.723Z" fill="#B0D7C0"/>
<path d="M410.107 202.48L407.247 202.732C407.088 202.75 406.927 202.731 406.777 202.678C406.626 202.625 406.489 202.539 406.376 202.426C406.263 202.313 406.177 202.176 406.124 202.025C406.07 201.874 406.052 201.714 406.069 201.555L406.406 198.442C406.422 198.202 406.524 197.975 406.694 197.805C406.865 197.635 407.091 197.532 407.331 197.516L410.192 197.264C410.35 197.247 410.511 197.265 410.662 197.318C410.813 197.372 410.95 197.458 411.063 197.571C411.176 197.684 411.262 197.821 411.315 197.971C411.368 198.122 411.387 198.283 411.369 198.442L411.033 201.555C411.031 201.799 410.932 202.034 410.759 202.207C410.586 202.38 410.352 202.478 410.107 202.48Z" fill="#B0D7C0"/>
<path d="M399.928 213.669L397.152 213.837C396.994 213.849 396.836 213.826 396.688 213.771C396.54 213.715 396.405 213.629 396.294 213.517C396.182 213.406 396.096 213.271 396.04 213.123C395.985 212.975 395.962 212.817 395.974 212.659L396.31 209.631C396.345 209.383 396.465 209.156 396.649 208.987C396.833 208.818 397.07 208.719 397.32 208.705L400.096 208.453C400.255 208.436 400.416 208.454 400.566 208.507C400.717 208.56 400.854 208.647 400.967 208.76C401.08 208.873 401.166 209.01 401.22 209.16C401.273 209.311 401.291 209.472 401.274 209.631L400.937 212.659C400.92 212.921 400.808 213.168 400.622 213.354C400.436 213.539 400.19 213.651 399.928 213.669V213.669Z" fill="#B0D7C0"/>
<path d="M418.352 212.407L415.323 212.66C415.166 212.671 415.008 212.648 414.86 212.593C414.712 212.538 414.577 212.451 414.466 212.34C414.354 212.228 414.268 212.094 414.212 211.946C414.157 211.798 414.134 211.639 414.146 211.482L414.482 208.369C414.517 208.122 414.637 207.894 414.821 207.725C415.005 207.556 415.242 207.457 415.492 207.444L418.52 207.191C418.679 207.174 418.84 207.193 418.991 207.246C419.142 207.299 419.278 207.385 419.391 207.498C419.505 207.611 419.591 207.748 419.644 207.899C419.697 208.049 419.715 208.21 419.698 208.369L419.362 211.566C419.281 211.782 419.146 211.974 418.969 212.121C418.792 212.269 418.579 212.367 418.352 212.407V212.407Z" fill="#B0D7C0"/>
<path d="M409.014 213.08L406.153 213.249C405.996 213.26 405.838 213.237 405.69 213.182C405.542 213.127 405.407 213.04 405.296 212.929C405.184 212.817 405.097 212.682 405.042 212.534C404.987 212.386 404.964 212.228 404.976 212.071L405.312 208.958C405.347 208.711 405.467 208.483 405.651 208.314C405.835 208.145 406.072 208.046 406.322 208.033L409.182 207.78C409.341 207.763 409.502 207.781 409.652 207.835C409.803 207.888 409.94 207.974 410.053 208.087C410.166 208.2 410.252 208.337 410.305 208.488C410.359 208.638 410.377 208.799 410.36 208.958L410.023 212.071C409.978 212.322 409.857 212.553 409.676 212.733C409.496 212.914 409.265 213.035 409.014 213.08V213.08Z" fill="#B0D7C0"/>
<path d="M398.834 224.017L396.142 224.186C395.989 224.194 395.835 224.169 395.693 224.112C395.551 224.054 395.423 223.966 395.318 223.854C395.214 223.741 395.135 223.607 395.089 223.461C395.042 223.315 395.028 223.16 395.048 223.008L395.385 219.979C395.42 219.732 395.539 219.504 395.724 219.335C395.908 219.166 396.145 219.067 396.394 219.054L399.087 218.885C399.242 218.868 399.399 218.888 399.545 218.942C399.692 218.997 399.823 219.085 399.93 219.199C400.036 219.314 400.114 219.451 400.157 219.601C400.201 219.752 400.209 219.91 400.18 220.063L399.844 223.092C399.823 223.345 399.707 223.58 399.52 223.752C399.333 223.923 399.088 224.018 398.834 224.017V224.017Z" fill="#B0D7C0"/>
<path d="M417.174 223.008L414.146 223.176C413.992 223.185 413.839 223.159 413.697 223.102C413.554 223.045 413.426 222.957 413.322 222.844C413.217 222.732 413.139 222.598 413.092 222.451C413.046 222.305 413.032 222.15 413.052 221.998L413.388 218.885C413.423 218.638 413.543 218.41 413.727 218.241C413.911 218.073 414.148 217.973 414.398 217.96L417.427 217.792C417.582 217.775 417.739 217.794 417.885 217.849C418.032 217.903 418.163 217.991 418.27 218.106C418.376 218.22 418.454 218.358 418.497 218.508C418.541 218.658 418.549 218.816 418.52 218.969L418.184 222.166C418.131 222.398 418.003 222.605 417.821 222.757C417.638 222.909 417.411 222.997 417.174 223.008Z" fill="#FFE779"/>
<path d="M407.92 223.512L405.06 223.681C404.906 223.689 404.753 223.664 404.611 223.607C404.468 223.55 404.34 223.461 404.236 223.349C404.131 223.236 404.053 223.102 404.006 222.956C403.96 222.81 403.946 222.655 403.966 222.503L404.303 219.474C404.337 219.227 404.457 218.999 404.641 218.83C404.825 218.661 405.063 218.562 405.312 218.549L408.172 218.381C408.328 218.363 408.485 218.383 408.631 218.437C408.778 218.492 408.909 218.58 409.015 218.694C409.122 218.809 409.2 218.947 409.243 219.097C409.287 219.247 409.295 219.405 409.266 219.558L408.93 222.671C408.876 222.902 408.749 223.11 408.567 223.262C408.384 223.414 408.157 223.502 407.92 223.512Z" fill="#FFE779"/>
<path d="M448.05 230.411L579.795 216.782C580.366 216.724 580.942 216.793 581.483 216.983C582.023 217.173 582.516 217.479 582.925 217.881C583.335 218.282 583.651 218.768 583.851 219.305C584.052 219.842 584.132 220.417 584.086 220.988L572.813 349.201C572.684 350.718 571.972 352.127 570.827 353.13C569.682 354.134 568.193 354.656 566.671 354.585L438.711 347.686C437.676 347.626 436.706 347.158 436.013 346.386C435.319 345.615 434.959 344.6 435.01 343.564L442.749 235.963C442.848 234.565 443.431 233.245 444.399 232.232C445.366 231.218 446.658 230.574 448.05 230.411Z" fill="#F8AB5D"/>
<path d="M443.254 228.981L576.514 215.184C577.093 215.121 577.678 215.189 578.227 215.383C578.776 215.576 579.275 215.89 579.687 216.302C580.098 216.714 580.412 217.212 580.606 217.761C580.799 218.31 580.867 218.895 580.805 219.474L569.448 349.117C569.333 350.655 568.614 352.086 567.447 353.095C566.28 354.104 564.761 354.61 563.222 354.501L433.748 347.518C433.226 347.493 432.714 347.363 432.243 347.136C431.773 346.909 431.352 346.59 431.007 346.198C430.662 345.806 430.399 345.348 430.234 344.853C430.069 344.357 430.005 343.833 430.046 343.312L437.87 234.449C438.017 233.063 438.63 231.768 439.608 230.775C440.586 229.782 441.871 229.15 443.254 228.981Z" fill="#FFE779"/>
<path d="M457.051 256.912L450.994 257.248L450.237 268.521L456.21 268.353L457.051 256.912Z" fill="#389396"/>
<path d="M450.237 268.521L449.816 274.074L455.789 273.906L456.21 268.353L450.237 268.521Z" fill="#B0D7C0"/>
<path d="M470.091 241.6L464.034 242.021L463.024 256.575L468.998 256.323L470.091 241.6Z" fill="#389396"/>
<path d="M463.025 256.575L461.763 273.737L467.736 273.569L468.998 256.323L463.025 256.575Z" fill="#B0D7C0"/>
<path d="M475.644 246.9L474.971 255.986L480.944 255.65L481.617 246.479L475.644 246.9Z" fill="#389396"/>
<path d="M474.971 255.986L473.709 273.485L479.682 273.316L480.944 255.649L474.971 255.986Z" fill="#B0D7C0"/>
<path d="M492.89 254.977L486.917 255.313L486.496 261.707L492.47 261.37L492.89 254.977Z" fill="#389396"/>
<path d="M486.496 261.707L485.655 273.148L491.628 272.98L492.47 261.37L486.496 261.707Z" fill="#B0D7C0"/>
<path d="M505.594 244.797L504.837 254.388L504.416 260.697L498.443 261.034L498.863 254.64L499.621 245.218L505.594 244.797Z" fill="#389396"/>
<path d="M498.443 261.034L497.517 272.812L503.49 272.728L504.416 260.697L498.443 261.034Z" fill="#B0D7C0"/>
<path d="M553.631 237.899L542.947 254.808L533.609 242.105C537.226 239.068 541.691 237.217 546.396 236.805C548.859 236.627 551.331 237.001 553.631 237.899V237.899Z" fill="#22272E"/>
<path d="M561.96 253.462L542.947 254.808L553.631 237.898C559.52 240.254 562.97 246.143 561.96 253.462Z" fill="#F4C2C9"/>
<path d="M561.96 253.462C561.96 253.715 561.876 253.967 561.876 254.22C560.109 264.231 550.771 272.56 540.928 273.317L542.947 254.808L561.96 253.462Z" fill="#B0D7C0"/>
<path d="M542.947 254.808L540.928 273.317C540.398 273.387 539.864 273.415 539.329 273.401C529.318 273.401 523.177 265.24 525.28 255.397C526.495 250.185 529.429 245.532 533.609 242.189L542.947 254.808Z" fill="white"/>
<path d="M559.268 287.703L554.893 330.356L444.937 328.337L445.105 325.056L468.914 308.651C469.445 308.274 470.084 308.078 470.736 308.093C471.388 308.108 472.017 308.333 472.531 308.735L481.449 315.297C481.779 315.542 482.155 315.719 482.555 315.818C482.954 315.917 483.37 315.936 483.777 315.873C484.183 315.811 484.574 315.668 484.925 315.454C485.277 315.239 485.582 314.957 485.823 314.624L494.657 302.846C494.952 302.451 495.337 302.132 495.779 301.915C496.222 301.698 496.709 301.589 497.202 301.597C497.695 301.605 498.179 301.73 498.614 301.962C499.049 302.194 499.423 302.525 499.705 302.93L507.529 313.783C507.772 314.126 508.082 314.417 508.441 314.638C508.799 314.859 509.199 315.005 509.615 315.068C510.031 315.13 510.456 315.109 510.864 315.003C511.271 314.898 511.654 314.712 511.988 314.456C512.517 314.055 513.16 313.83 513.825 313.815C514.489 313.8 515.142 313.995 515.689 314.372L521.242 318.326C521.588 318.569 521.979 318.741 522.392 318.83C522.806 318.92 523.233 318.926 523.649 318.847C524.065 318.769 524.46 318.608 524.813 318.374C525.165 318.14 525.467 317.837 525.701 317.484L538.152 298.303C538.385 297.95 538.687 297.648 539.039 297.414C539.392 297.179 539.787 297.018 540.203 296.94C540.619 296.861 541.046 296.867 541.46 296.957C541.873 297.046 542.264 297.218 542.61 297.462L546.228 300.07C546.558 300.316 546.934 300.494 547.334 300.594C547.734 300.693 548.149 300.712 548.556 300.65C548.963 300.587 549.354 300.444 549.705 300.229C550.057 300.014 550.362 299.731 550.603 299.397L559.268 287.703Z" fill="#389396"/>
<path d="M479.261 301.247H474.466C474.355 301.244 474.246 301.265 474.144 301.309C474.042 301.352 473.951 301.418 473.877 301.5L472.783 302.593C472.626 302.747 472.415 302.834 472.195 302.834C471.974 302.834 471.763 302.747 471.606 302.593L470.764 301.5C470.69 301.418 470.599 301.352 470.498 301.309C470.396 301.265 470.286 301.244 470.175 301.247H465.548C465.451 301.252 465.354 301.236 465.264 301.198C465.174 301.161 465.094 301.104 465.029 301.031C464.965 300.958 464.917 300.872 464.891 300.778C464.864 300.684 464.859 300.586 464.875 300.49L465.548 291.404C465.564 291.186 465.658 290.981 465.812 290.827C465.967 290.672 466.172 290.579 466.39 290.563L480.103 290.058C480.303 290.058 480.496 290.138 480.638 290.28C480.78 290.422 480.86 290.614 480.86 290.815L480.103 300.322C480.114 300.439 480.101 300.558 480.064 300.67C480.028 300.782 479.967 300.885 479.888 300.972C479.809 301.059 479.712 301.129 479.604 301.176C479.496 301.224 479.379 301.248 479.261 301.247V301.247Z" fill="white"/>
<path d="M524.186 305.79L519.391 305.706C519.28 305.703 519.17 305.724 519.069 305.768C518.967 305.811 518.876 305.876 518.802 305.958L517.708 307.052C517.631 307.135 517.536 307.2 517.431 307.241C517.326 307.283 517.212 307.3 517.099 307.292C516.986 307.284 516.876 307.251 516.778 307.195C516.679 307.139 516.595 307.061 516.53 306.968L515.689 305.874C515.615 305.792 515.524 305.727 515.422 305.684C515.321 305.64 515.211 305.619 515.1 305.622L510.557 305.538C510.137 305.538 509.884 305.201 509.884 304.696L510.557 295.526C510.568 295.321 510.649 295.125 510.787 294.972C510.925 294.819 511.111 294.718 511.314 294.685L525.027 294.349C525.134 294.351 525.238 294.374 525.335 294.418C525.431 294.462 525.518 294.526 525.589 294.605C525.66 294.684 525.714 294.776 525.748 294.877C525.781 294.978 525.794 295.084 525.785 295.19L525.027 304.949C525.035 305.061 525.018 305.174 524.979 305.279C524.939 305.385 524.877 305.481 524.798 305.56C524.718 305.64 524.622 305.702 524.517 305.741C524.411 305.781 524.299 305.798 524.186 305.79V305.79Z" fill="#F4C2C9"/>
<path d="M293.757 548.502C293.421 549.596 292.663 553.97 292.075 558.009C285.786 558.949 279.36 558.164 273.482 555.737C273.903 551.531 274.323 547.156 274.323 547.156C274.323 544.8 294.43 546.483 293.757 548.502Z" fill="#22272E"/>
<path d="M292.075 557.925C291.57 561.458 291.065 564.571 291.065 564.571C291.065 564.571 288.794 569.871 283.073 569.871C277.352 569.871 272.725 565.076 272.809 563.057C272.893 562.131 273.146 558.934 273.482 555.653C279.357 558.091 285.786 558.876 292.075 557.925Z" fill="#F4C2C9"/>
<path d="M272.893 561.458C273.717 562.372 274.587 563.243 275.501 564.066C276.427 564.907 279.287 562.299 283.325 562.804C287.363 563.309 288.625 564.907 288.625 564.907C289.559 564.719 290.445 564.347 291.233 563.814C291.311 565.917 291.737 567.992 292.495 569.955C293.757 573.236 300.151 582.827 300.151 584.678C300.151 586.528 299.73 587.959 298.384 588.548C297.038 589.136 288.121 589.221 280.633 589.389C273.146 589.557 267.341 589.978 266.499 587.033C265.658 584.089 269.107 574.919 270.538 569.282C271.968 563.645 271.715 561.542 272.893 561.458Z" fill="#22272E"/>
<path d="M274.155 577.022C274.155 577.022 283.157 572.227 291.738 577.022" stroke="white" stroke-width="1.8" stroke-linecap="round" stroke-linejoin="round"/>
<path d="M275.838 572.311C280.512 570.982 285.465 570.982 290.14 572.311" stroke="white" stroke-width="1.8" stroke-linecap="round" stroke-linejoin="round"/>
<path d="M381.083 554.307C371.492 557.588 361.565 555.569 361.649 555.653C361.313 550.942 360.892 545.979 360.892 545.979C362.154 543.034 380.242 541.688 380.41 542.95C380.41 543.623 380.746 549.175 381.083 554.307Z" fill="#22272E"/>
<path d="M381.588 563.225C381.588 563.225 380.326 567.179 374.857 569.198C369.389 571.217 362.406 565.749 362.322 564.15C362.238 563.477 361.986 559.607 361.649 555.653C361.649 555.569 371.492 557.588 381.083 554.307C381.335 558.934 381.588 563.225 381.588 563.225Z" fill="#F4C2C9"/>
<path d="M362.154 562.972C361.565 562.972 361.144 563.814 360.808 569.114C360.471 574.414 358.789 586.108 360.808 587.874C362.827 589.641 403.125 589.136 407.752 588.8C412.379 588.463 414.903 585.435 413.473 583.416C412.042 581.397 402.115 577.695 393.366 571.806C384.616 565.917 382.513 564.655 381.504 563.225C381.504 563.225 382.008 558.429 379.4 559.187C376.792 559.944 375.026 566.169 371.66 567.011C368.295 567.852 367.875 562.636 362.154 562.972Z" fill="#22272E"/>
<path d="M395.301 571.975C395.301 571.975 393.029 571.301 387.897 576.77" stroke="white" stroke-width="1.8" stroke-linecap="round" stroke-linejoin="round"/>
<path d="M389.748 568.357C389.748 568.357 385.71 568.189 381.083 574.162" stroke="white" stroke-width="1.8" stroke-linecap="round" stroke-linejoin="round"/>
<path d="M276.679 556.831L277.184 553.466" stroke="#63737A" stroke-width="1.8" stroke-linecap="round" stroke-linejoin="round"/>
<path d="M282.484 558.093L282.989 554.728" stroke="#63737A" stroke-width="1.8" stroke-linecap="round" stroke-linejoin="round"/>
<path d="M288.878 558.346L289.467 555.317" stroke="#63737A" stroke-width="1.8" stroke-linecap="round" stroke-linejoin="round"/>
<path d="M365.435 556.074L365.183 552.541" stroke="#63737A" stroke-width="1.8" stroke-linecap="round" stroke-linejoin="round"/>
<path d="M372.418 555.99L372.165 552.12" stroke="#63737A" stroke-width="1.8" stroke-linecap="round" stroke-linejoin="round"/>
<path d="M378.727 554.98L378.475 551.363" stroke="#63737A" stroke-width="1.8" stroke-linecap="round" stroke-linejoin="round"/>
<path d="M271.042 360.137C269.603 366.775 268.814 373.537 268.687 380.328C268.434 391.854 277.436 427.945 280.717 440.144C283.998 452.343 283.325 454.278 282.82 456.633C282.316 458.989 277.268 477.665 275.585 497.015C273.903 516.365 267.845 531.929 268.518 537.902C269.444 545.978 272.893 548.334 274.323 549.259C275.754 550.185 287.532 553.97 295.524 552.12C295.524 552.12 304.021 546.735 305.619 539.164C307.218 531.592 306.292 522.422 311.761 497.688C317.229 472.954 319.753 462.775 320.51 452.932C320.931 447.043 321.015 430.217 321.099 417.345C321.183 408.596 321.183 401.613 321.267 400.94C321.52 399.257 325.642 401.192 327.829 395.808C328.755 393.368 329.26 388.741 329.344 383.778C329.512 377.468 329.091 370.569 328.25 366.784C326.904 359.801 272.388 352.734 271.042 360.137Z" fill="#22272E"/>
<path d="M386.467 539.416C385.037 542.95 382.429 546.988 380.073 547.913C377.718 548.839 367.118 550.269 361.733 549.764C361.733 549.764 352.731 547.156 351.806 540.342C350.881 533.527 352.479 525.956 349.45 510.644C346.422 495.333 343.814 468.243 343.057 460.251C342.3 452.259 325.81 428.45 318.07 414.064C310.331 399.678 302.002 373.346 308.9 367.205C315.799 361.063 340.449 358.287 347.768 363.251C347.768 363.251 356.265 383.946 364.762 408.68C372.586 431.395 374.184 439.051 375.278 445.613C375.349 446.209 375.462 446.799 375.615 447.379C375.951 449.399 376.372 454.615 376.961 461.345C378.307 478.423 379.905 504.924 380.578 510.981C381.504 519.394 387.897 535.883 386.467 539.416Z" fill="#22272E"/>
<path d="M316.556 402.202C322.031 400.229 327.658 398.71 333.382 397.659" stroke="#63737A" stroke-width="1.8" stroke-linecap="round" stroke-linejoin="round"/>
<path d="M316.104 463.019C317.35 456.918 313.487 450.977 307.476 449.75C301.466 448.524 295.584 452.476 294.339 458.577C293.093 464.679 296.956 470.619 302.967 471.846C308.977 473.073 314.859 469.121 316.104 463.019Z" stroke="#63737A" stroke-width="1.80036" stroke-linecap="round" stroke-linejoin="round"/>
<path d="M376.961 461.261C375.933 462.55 374.628 463.591 373.142 464.305C371.656 465.019 370.028 465.387 368.379 465.383C365.412 465.394 362.562 464.226 360.455 462.136C358.349 460.045 357.159 457.204 357.148 454.236C357.137 451.269 358.305 448.418 360.396 446.312C362.486 444.206 365.328 443.016 368.295 443.005C370.846 443.006 373.316 443.899 375.278 445.529" stroke="#63737A" stroke-width="1.8" stroke-linecap="round" stroke-linejoin="round"/>
<path d="M272.977 399.931C275.954 397.189 278.329 393.859 279.951 390.152C281.573 386.444 282.407 382.44 282.4 378.394C279.236 378.216 276.088 377.822 272.977 377.216" stroke="#63737A" stroke-width="1.8" stroke-linecap="round" stroke-linejoin="round"/>
<path d="M321.099 417.345C321.183 408.596 321.183 401.613 321.267 400.94C321.52 399.258 325.642 401.193 327.829 395.808C328.755 393.369 329.26 388.741 329.344 383.778" stroke="#63737A" stroke-width="1.8" stroke-linecap="round" stroke-linejoin="round"/>
<path d="M345.917 263.81C345.917 263.81 352.816 264.147 363.921 286.357C375.026 308.567 378.98 316.559 378.98 316.559C378.98 316.559 386.299 314.792 398.245 312.857C410.192 310.922 427.017 308.483 427.017 308.483C427.017 308.483 431.56 308.567 433.495 315.045C433.988 316.684 434.062 318.422 433.709 320.097C433.356 321.773 432.589 323.333 431.476 324.635C431.058 325.163 430.506 325.57 429.878 325.813C424.746 328 394.796 340.62 384.616 342.807C373.427 345.163 367.959 344.826 358.032 331.197C348.104 317.568 340.28 306.968 336.663 301.5C333.045 295.779 330.437 264.651 345.917 263.81Z" fill="#389396"/>
<path d="M364.846 338.937C364.846 338.937 364.257 334.479 372.922 334.479C381.588 334.479 386.047 340.956 383.943 342.807" stroke="#22272E" stroke-width="1.8" stroke-linecap="round" stroke-linejoin="round"/>
<path d="M378.98 316.475C378.98 316.475 375.362 318.157 374.605 320.681" stroke="#22272E" stroke-width="1.8" stroke-linecap="round" stroke-linejoin="round"/>
<path d="M427.438 309.156C427.438 309.156 431.14 307.81 432.065 307.305C432.99 306.8 435.01 303.267 436.692 301.079C438.375 298.892 443.17 297.63 444.516 297.882C444.882 297.931 445.234 298.054 445.552 298.241C445.87 298.429 446.147 298.679 446.367 298.976C446.367 298.976 450.573 297.462 453.434 296.284C456.294 295.106 461.594 292.498 462.351 294.601C462.772 295.863 459.491 297.714 457.22 298.976C454.443 300.574 452.592 301.752 452.592 301.752C453.033 302.012 453.412 302.365 453.703 302.787C453.993 303.208 454.188 303.688 454.275 304.192C454.612 305.959 455.537 307.894 453.854 310.586C453.35 311.343 455.285 313.446 453.77 315.381C451.162 318.494 444.853 320.092 441.487 321.102C438.122 322.111 430.214 322.616 430.214 322.616C430.214 322.616 427.69 322.027 426.597 316.559C425.503 311.091 427.438 309.156 427.438 309.156Z" fill="#F4C2C9"/>
<path d="M446.367 298.976C446.367 298.976 446.956 300.49 447.629 302.762C448.302 305.033 448.807 306.8 447.04 306.884C445.273 306.968 443.675 304.276 443.002 302.93" stroke="#E26E85" stroke-width="1.8" stroke-linecap="round" stroke-linejoin="round"/>
<path d="M444.18 304.865C444.18 304.865 446.115 308.735 441.656 312.1" stroke="#E26E85" stroke-width="1.8" stroke-linecap="round" stroke-linejoin="round"/>
<path d="M452.677 301.752L447.965 303.939" stroke="#E26E85" stroke-width="1.8" stroke-linecap="round" stroke-linejoin="round"/>
<path d="M445.61 306.379C445.61 306.379 444.768 307.725 445.61 308.482C446.451 309.24 451.078 307.557 454.443 305.622" stroke="#E26E85" stroke-width="1.8" stroke-linecap="round" stroke-linejoin="round"/>
<path d="M446.367 308.651C445.973 308.859 445.674 309.212 445.533 309.635C445.392 310.058 445.42 310.519 445.61 310.922C446.283 312.437 449.9 311.848 453.854 310.586" stroke="#E26E85" stroke-width="1.8" stroke-linecap="round" stroke-linejoin="round"/>
<path d="M447.124 311.848C447.124 311.848 445.021 312.1 446.115 314.203C446.788 315.465 450.826 315.045 451.667 315.381" stroke="#E26E85" stroke-width="1.8" stroke-linecap="round" stroke-linejoin="round"/>
<path d="M422.558 309.913C421.885 311.09 421.044 313.362 421.633 317.4C421.798 319.143 422.352 320.826 423.255 322.326C424.158 323.826 425.386 325.104 426.849 326.065" stroke="#22272E" stroke-width="1.8" stroke-linecap="round" stroke-linejoin="round"/>
<path d="M318.659 233.019C318.659 233.019 315.967 246.563 314.453 250.265C312.939 253.967 321.183 259.772 329.428 260.108C337.672 260.445 336.831 255.649 336.831 255.649L339.271 242.189C339.271 242.273 321.604 229.906 318.659 233.019Z" fill="#F4C2C9"/>
<path d="M322.361 237.057C321.183 247.321 328.586 252.284 336.831 256.154V255.65L338.177 248.499C332.036 246.48 326.652 242.105 322.361 237.057Z" fill="#E26E85"/>
<path d="M283.325 260.193C285.176 254.724 292.243 251.443 297.964 251.948C303.853 252.453 315.126 252.621 325.979 255.986C344.487 261.707 348.946 265.072 350.039 266.082C356.181 271.971 355.592 280.72 352.058 304.865C349.787 320.765 347.852 324.804 348.357 332.628C348.862 340.452 350.292 354.333 351.217 357.193C352.143 360.054 349.787 365.017 347.768 366.784C345.749 368.551 329.428 372.252 314.285 371.916C299.141 371.579 275.333 367.457 271.547 364.933C267.761 362.409 265.069 358.034 265.911 354.249C266.957 348.461 268.304 342.733 269.949 337.086C272.304 329.094 272.473 318.662 276.174 301.921C279.035 289.554 279.455 271.634 283.325 260.193Z" fill="#FFE779"/>
<path d="M306.461 321.859C315.817 323.833 325.336 324.932 334.896 325.14C335.518 325.157 336.114 325.395 336.577 325.811C337.039 326.227 337.338 326.795 337.42 327.412C337.883 330.809 339.381 333.982 341.711 336.498C341.929 336.719 342.101 336.982 342.216 337.271C342.332 337.56 342.389 337.869 342.384 338.18C342.468 341.714 342.636 353.66 340.28 355.511C337.588 357.53 308.985 359.381 291.233 354.417C290.668 354.273 290.166 353.949 289.801 353.493C289.437 353.038 289.231 352.476 289.214 351.893C289.298 348.444 289.467 341.209 290.056 336.666C290.138 336.214 290.325 335.789 290.603 335.423C290.881 335.058 291.241 334.763 291.654 334.563C294.43 333.301 300.824 329.936 303.096 323.626C303.367 322.989 303.85 322.465 304.463 322.143C305.076 321.821 305.782 321.72 306.461 321.859V321.859Z" stroke="#F8AB5D" stroke-width="1.8" stroke-linecap="round" stroke-linejoin="round"/>
<path d="M313.359 248.246C313.446 248.055 313.576 247.888 313.741 247.758C313.905 247.627 314.097 247.538 314.303 247.497C314.508 247.456 314.721 247.464 314.922 247.521C315.124 247.578 315.309 247.683 315.462 247.826C317.061 249.508 320.51 252.032 326.736 253.21C336.242 254.977 337.168 253.546 337.168 253.546C337.168 253.546 338.682 254.051 338.85 255.313C338.9 257.353 338.674 259.391 338.177 261.37C337.672 262.969 330.606 263.137 324.969 261.959C319.988 261.046 315.391 258.675 311.761 255.145C311.474 254.868 311.279 254.509 311.204 254.118C311.129 253.726 311.176 253.321 311.34 252.958C311.845 251.696 312.686 249.845 313.359 248.246Z" fill="#6DAFA7"/>
<path d="M354.835 217.035C354.917 220.64 354.347 224.232 353.152 227.635C351.47 232.009 348.693 244.208 343.225 248.162C337.757 252.116 325.81 251.359 320.594 241.18C315.378 231 317.061 220.316 319.753 211.734C322.445 203.153 333.55 200.041 343.225 203.574C352.9 207.107 354.835 213.249 354.835 217.035Z" fill="#F4C2C9"/>
<path d="M319.501 222.923C320.074 223.676 320.554 224.495 320.931 225.363C321.688 227.13 323.286 226.12 323.875 222.923C324.464 219.726 325.81 217.455 326.82 217.623C328.116 217.933 329.48 217.794 330.687 217.229C331.894 216.663 332.874 215.705 333.466 214.51C335.569 210.64 336.495 211.229 336.495 211.229C336.495 211.229 338.177 207.191 342.552 212.996C346.927 218.801 349.703 223.344 354.919 222.418C360.135 221.493 364.762 212.996 360.808 204.836C356.854 196.675 344.403 194.74 335.149 197.18C325.894 199.62 321.099 197.6 315.546 202.312C309.994 207.023 311.34 211.986 311.004 217.539C310.667 223.092 307.807 226.036 311.592 231C315.378 235.963 314.369 240.59 316.472 243.367C316.472 243.367 318.743 236.047 318.491 230.747C318.239 225.447 319.501 222.923 319.501 222.923Z" fill="#22272E"/>
<path d="M344.487 227.551C344.427 229.666 343.554 231.676 342.05 233.165C340.546 234.653 338.526 235.505 336.411 235.543C335.357 235.535 334.316 235.315 333.348 234.898C332.38 234.481 331.506 233.874 330.777 233.113C330.048 232.353 329.478 231.454 329.102 230.469C328.726 229.485 328.551 228.436 328.587 227.382C328.58 226.294 328.788 225.215 329.199 224.207C329.61 223.199 330.216 222.282 330.981 221.508C331.747 220.734 332.658 220.119 333.662 219.698C334.666 219.277 335.743 219.058 336.831 219.054C337.896 219.096 338.942 219.352 339.906 219.804C340.871 220.257 341.735 220.898 342.449 221.69C343.162 222.481 343.71 223.408 344.06 224.414C344.41 225.421 344.555 226.487 344.487 227.551V227.551Z" stroke="#22272E" stroke-width="1.8" stroke-linecap="round" stroke-linejoin="round"/>
<path d="M357.463 232.533C358.632 228.518 357.302 224.6 354.492 223.781C351.681 222.963 348.455 225.554 347.286 229.568C346.116 233.583 347.446 237.502 350.257 238.32C353.067 239.139 356.293 236.548 357.463 232.533Z" stroke="#22272E" stroke-width="1.8" stroke-linecap="round" stroke-linejoin="round"/>
<path d="M347.431 229.317C347.431 229.317 347.347 227.635 344.403 228.56" stroke="#22272E" stroke-width="1.8" stroke-linecap="round" stroke-linejoin="round"/>
<path d="M329.26 223.933L319.501 222.167" stroke="#22272E" stroke-width="1.8" stroke-linecap="round" stroke-linejoin="round"/>
<path d="M320.342 224.438C320.342 224.438 319.585 219.979 315.967 219.895C312.35 219.811 310.162 230.916 319.164 232.43" fill="#F4C2C9"/>
<path d="M315.378 223.344C315.798 223.237 316.24 223.26 316.645 223.41C317.051 223.56 317.402 223.831 317.65 224.185C317.889 224.623 318.005 225.117 317.986 225.615C317.986 225.868 317.902 226.036 317.902 226.288C317.902 226.541 317.818 226.625 317.818 226.793C317.752 227.068 317.724 227.351 317.734 227.634C317.716 227.739 317.722 227.846 317.751 227.948C317.78 228.05 317.832 228.144 317.902 228.223C318.355 228.714 318.897 229.114 319.501 229.401C319.101 229.545 318.674 229.597 318.252 229.553C317.83 229.51 317.422 229.371 317.061 229.149C316.657 228.84 316.386 228.389 316.304 227.887C316.245 227.437 316.273 226.98 316.388 226.541C316.472 226.372 316.472 226.12 316.556 225.952C316.64 225.784 316.64 225.699 316.64 225.531C316.725 225.315 316.725 225.075 316.64 224.858C316.549 224.531 316.39 224.226 316.172 223.965C315.955 223.704 315.684 223.492 315.378 223.344V223.344Z" fill="#22272E"/>
<path d="M346.254 227.971C346.311 228.921 346.509 229.856 346.842 230.747C346.988 231.137 347.186 231.505 347.431 231.841C347.785 232.257 348.043 232.745 348.189 233.271C348.323 233.834 348.333 234.42 348.217 234.987C348.1 235.554 347.861 236.088 347.515 236.552C347.209 236.999 346.806 237.373 346.338 237.646C345.893 237.949 345.361 238.097 344.823 238.067C345.568 237.519 346.126 236.755 346.422 235.879C346.749 235.169 346.838 234.372 346.674 233.608C346.526 233.219 346.328 232.852 346.085 232.514C345.829 232.013 345.659 231.473 345.581 230.916C345.543 229.892 345.775 228.877 346.254 227.971V227.971Z" fill="#22272E"/>
<path d="M337.841 241.348C336.663 241.305 335.521 240.936 334.541 240.282C333.56 239.629 332.781 238.716 332.288 237.646" stroke="#22272E" stroke-width="1.8" stroke-linecap="round" stroke-linejoin="round"/>
<path d="M334.391 229.149C334.231 229.111 334.08 229.041 333.947 228.944C333.813 228.847 333.701 228.725 333.615 228.584C333.529 228.443 333.471 228.287 333.446 228.124C333.42 227.961 333.427 227.795 333.466 227.635L333.802 226.373C333.841 226.213 333.911 226.061 334.008 225.928C334.105 225.795 334.227 225.682 334.368 225.596C334.508 225.51 334.665 225.453 334.827 225.427C334.99 225.402 335.157 225.409 335.317 225.447C335.477 225.486 335.628 225.556 335.762 225.653C335.895 225.75 336.008 225.872 336.094 226.013C336.18 226.153 336.237 226.31 336.262 226.472C336.288 226.635 336.281 226.802 336.242 226.962L335.906 228.224C335.867 228.384 335.797 228.535 335.701 228.668C335.604 228.802 335.481 228.915 335.341 229.001C335.2 229.086 335.044 229.144 334.881 229.169C334.718 229.195 334.552 229.188 334.391 229.149V229.149Z" fill="#22272E"/>
<path d="M347.768 232.598C347.608 232.56 347.457 232.49 347.323 232.393C347.19 232.296 347.077 232.174 346.991 232.033C346.905 231.892 346.848 231.736 346.822 231.573C346.797 231.411 346.804 231.244 346.843 231.084L347.179 229.822C347.218 229.662 347.287 229.511 347.384 229.377C347.481 229.244 347.604 229.131 347.744 229.045C347.885 228.959 348.041 228.902 348.204 228.876C348.367 228.851 348.533 228.858 348.693 228.897V228.897C348.854 228.935 349.005 229.005 349.138 229.102C349.271 229.199 349.384 229.321 349.47 229.462C349.556 229.603 349.614 229.759 349.639 229.922C349.665 230.084 349.658 230.251 349.619 230.411L349.282 231.673C349.244 231.833 349.174 231.984 349.077 232.118C348.98 232.251 348.858 232.364 348.717 232.45C348.576 232.536 348.42 232.593 348.257 232.619C348.094 232.644 347.928 232.637 347.768 232.598V232.598Z" fill="#22272E"/>
<path d="M337.757 223.344C336.831 223.513 336.41 222.251 335.064 222.335C332.961 222.419 331.783 222.84 331.615 221.914C331.531 221.241 333.129 219.979 335.149 219.895C338.093 219.895 339.439 223.092 337.757 223.344Z" fill="#22272E"/>
<path d="M347.768 225.868C348.357 226.373 349.198 225.447 350.039 226.036C351.301 226.794 351.722 227.467 352.143 226.878C352.563 226.289 352.143 224.859 350.965 224.101C349.03 222.755 346.506 224.943 347.768 225.868Z" fill="#22272E"/>
<path d="M241.765 366.532C241.199 367.726 240.829 369.005 240.672 370.317C240.672 371.748 241.85 384.956 241.513 387.564C241.177 390.172 240.335 395.304 239.83 396.061C239.326 396.818 236.297 394.462 236.213 386.554C236.129 378.646 233.437 367.794 235.708 366.532C237.98 365.27 241.092 365.522 241.765 366.532Z" fill="#F4C2C9"/>
<path d="M186.661 405.567L206.852 373.767C207.076 373.415 207.367 373.112 207.709 372.875C208.051 372.637 208.437 372.471 208.845 372.385C209.252 372.298 209.673 372.294 210.082 372.373C210.491 372.451 210.88 372.611 211.227 372.841L258.76 403.044C259.111 403.267 259.414 403.558 259.651 403.901C259.889 404.243 260.055 404.629 260.142 405.036C260.228 405.444 260.232 405.864 260.153 406.273C260.075 406.682 259.916 407.072 259.685 407.418L239.494 439.219C239.27 439.57 238.979 439.874 238.637 440.111C238.295 440.348 237.909 440.515 237.501 440.601C237.094 440.687 236.673 440.691 236.264 440.613C235.855 440.534 235.466 440.375 235.119 440.144L187.586 409.942C186.893 409.477 186.408 408.76 186.235 407.943C186.062 407.126 186.215 406.273 186.661 405.567V405.567Z" fill="#22272E"/>
<path d="M242.439 429.881L252.534 414.064C252.639 413.895 252.784 413.753 252.956 413.653C253.128 413.552 253.322 413.495 253.521 413.486C253.72 413.478 253.919 413.519 254.099 413.605C254.279 413.691 254.435 413.82 254.553 413.98L256.152 416.083C256.309 416.285 256.401 416.53 256.416 416.786C256.431 417.041 256.368 417.295 256.236 417.514L247.15 431.816C247.028 432.031 246.837 432.198 246.608 432.29C246.378 432.382 246.124 432.393 245.888 432.32L243.28 431.816C243.084 431.763 242.902 431.668 242.748 431.535C242.594 431.403 242.472 431.238 242.391 431.051C242.311 430.865 242.273 430.663 242.281 430.461C242.289 430.258 242.343 430.06 242.439 429.881V429.881Z" fill="#389396"/>
<path d="M239.494 365.69C239.494 365.69 238.989 380.329 238.905 383.441C238.821 386.554 238.989 392.696 238.232 395.64C237.475 398.585 236.213 405.988 233.942 406.493C231.67 406.997 234.11 397.407 234.11 395.556C233.925 393.431 233.588 391.323 233.1 389.246C233.1 389.246 232.259 393.873 231.67 395.892C231.081 397.912 227.211 404.221 225.697 403.969C224.183 403.716 226.033 399.005 227.211 396.145C228.305 393.537 228.726 388.068 228.726 388.068C228.07 389.74 227.311 391.37 226.454 392.948C225.445 394.631 221.995 399.847 220.565 399.594C219.135 399.342 221.49 394.042 222.921 391.602C223.731 390.329 224.248 388.892 224.435 387.395C224.435 387.395 222.164 389.667 220.733 390.761C219.303 391.854 214.255 394.294 213.835 393.032C213.414 391.77 215.686 390.424 217.789 388.489C219.892 386.554 222.164 382.684 222.668 382.011C223.173 381.338 221.743 375.449 224.014 371.495C226.286 367.541 227.632 365.943 228.221 363.25C228.81 360.558 239.242 363.755 239.494 365.69Z" fill="#F4C2C9"/>
<path d="M292.075 251.948C292.075 251.948 282.484 251.023 270.958 265.493C259.433 279.963 248.075 292.077 244.878 297.798C241.681 303.519 234.614 324.972 231.081 341.882C227.548 358.792 227.211 361.82 227.295 363.671C227.379 365.354 235.876 367.709 241.429 367.625C241.917 367.635 242.396 367.495 242.802 367.224C243.208 366.954 243.522 366.565 243.7 366.111C245.888 360.979 253.544 343.48 256.572 337.086C260.106 329.599 264.228 318.494 264.733 317.737C265.237 316.98 288.205 293.592 292.495 287.45C296.786 281.309 300.908 271.382 299.983 262.632C298.973 253.126 294.094 251.864 292.075 251.948Z" fill="#389396"/>
<path d="M246.056 295.863C246.056 295.863 248.664 292.246 251.945 295.527C255.394 298.976 253.88 306.463 249.085 311.175C245.131 315.045 239.494 313.446 239.999 309.829" stroke="#22272E" stroke-width="1.8" stroke-linecap="round" stroke-linejoin="round"/>
<path d="M228.473 359.633C230.745 360.726 237.559 363.755 244.205 362.914" stroke="#22272E" stroke-width="1.8" stroke-linecap="round" stroke-linejoin="round"/>
<path d="M448.723 383.526L462.856 337.255C463.062 336.638 463.458 336.103 463.987 335.725C464.516 335.347 465.151 335.146 465.801 335.151L549.425 337.507C549.75 337.51 550.07 337.589 550.361 337.736C550.651 337.883 550.903 338.095 551.099 338.355C551.294 338.615 551.427 338.917 551.486 339.237C551.546 339.557 551.532 339.886 551.444 340.199L535.039 396.65C534.841 397.339 534.398 397.932 533.795 398.319C533.191 398.706 532.467 398.861 531.758 398.753L450.573 386.218C450.258 386.201 449.951 386.112 449.676 385.957C449.4 385.803 449.164 385.587 448.985 385.327C448.806 385.067 448.69 384.769 448.644 384.457C448.599 384.145 448.625 383.826 448.723 383.526V383.526Z" fill="#22272E"/>
<path d="M447.965 385.881L399.339 390.424L482.711 410.951C484.727 411.457 486.836 411.457 488.852 410.951L534.113 399.257L447.965 385.881Z" fill="#63737A"/>
<path d="M482.795 410.951L399.423 390.424C399.429 391.193 399.687 391.939 400.158 392.547C400.63 393.155 401.288 393.592 402.031 393.789L480.608 414.653C483.924 415.523 487.417 415.465 490.703 414.485L531.926 402.37C532.616 402.172 533.222 401.751 533.648 401.172C534.074 400.594 534.297 399.891 534.282 399.173L489.02 410.867C486.988 411.44 484.842 411.469 482.795 410.951V410.951Z" fill="#22272E"/>
<path d="M503.659 345.415L497.77 365.438C497.683 365.682 497.524 365.894 497.313 366.044C497.103 366.195 496.851 366.277 496.592 366.279L463.529 363.419C463.362 363.406 463.201 363.357 463.055 363.274C462.91 363.191 462.784 363.078 462.688 362.941C462.591 362.805 462.526 362.648 462.497 362.484C462.468 362.319 462.476 362.15 462.52 361.989L468.072 343.648C468.141 343.41 468.284 343.199 468.481 343.048C468.677 342.896 468.918 342.812 469.166 342.807L502.565 343.985C502.737 343.99 502.906 344.034 503.06 344.113C503.213 344.191 503.347 344.303 503.452 344.44C503.556 344.577 503.629 344.736 503.665 344.904C503.701 345.073 503.699 345.247 503.659 345.415V345.415Z" fill="white"/>
<path d="M497.349 349.033L493.647 361.063L467.904 359.212L468.829 356.52L478.336 352.314L483.72 356.52L497.349 349.033Z" fill="#F4C2C9"/>
<path d="M478.084 373.598L475.644 381.17C475.558 381.425 475.383 381.642 475.152 381.78C474.921 381.919 474.648 381.971 474.382 381.927L458.481 379.824C458.318 379.808 458.161 379.756 458.021 379.671C457.88 379.586 457.761 379.47 457.672 379.333C457.583 379.195 457.527 379.039 457.506 378.876C457.486 378.714 457.503 378.549 457.556 378.393L459.659 371.327C459.746 371.083 459.905 370.871 460.116 370.72C460.326 370.57 460.578 370.488 460.837 370.485L477.074 372.168C477.248 372.161 477.421 372.198 477.577 372.275C477.733 372.352 477.867 372.467 477.967 372.609C478.068 372.751 478.131 372.916 478.151 373.089C478.171 373.261 478.148 373.437 478.084 373.598V373.598Z" fill="#FFE779"/>
<path d="M502.986 376.122L500.294 384.451C500.207 384.706 500.033 384.923 499.802 385.061C499.571 385.2 499.298 385.252 499.032 385.208L483.888 383.189C483.719 383.167 483.557 383.108 483.414 383.016C483.271 382.923 483.15 382.8 483.062 382.654C482.973 382.509 482.918 382.345 482.901 382.176C482.884 382.006 482.905 381.835 482.963 381.674L485.487 373.85C485.564 373.606 485.724 373.397 485.939 373.259C486.154 373.12 486.411 373.062 486.665 373.093L501.976 374.608C502.153 374.617 502.324 374.668 502.478 374.755C502.632 374.843 502.762 374.965 502.861 375.112C502.959 375.259 503.021 375.427 503.043 375.602C503.064 375.777 503.045 375.955 502.986 376.122V376.122Z" fill="#389396"/>
<path d="M531.59 378.982L528.729 388.237C528.643 388.492 528.469 388.708 528.237 388.847C528.006 388.986 527.733 389.038 527.467 388.994L509.211 386.554C509.042 386.533 508.88 386.474 508.737 386.381C508.594 386.288 508.473 386.165 508.384 386.019C508.295 385.874 508.24 385.71 508.223 385.541C508.206 385.371 508.228 385.2 508.286 385.04L511.062 376.374C511.139 376.13 511.299 375.921 511.514 375.783C511.729 375.644 511.986 375.586 512.24 375.617L530.496 377.468C530.677 377.472 530.855 377.517 531.015 377.601C531.175 377.686 531.314 377.806 531.42 377.953C531.526 378.099 531.597 378.269 531.626 378.448C531.655 378.626 531.643 378.809 531.59 378.982Z" fill="#F4C2C9"/>
<path d="M521.746 349.453C521.415 350.708 520.67 351.815 519.632 352.593C518.594 353.372 517.323 353.778 516.026 353.744C513.586 353.576 512.324 351.473 512.997 349.117C513.369 347.994 514.077 347.013 515.025 346.306C515.973 345.598 517.115 345.199 518.297 345.163C518.832 345.141 519.365 345.246 519.852 345.467C520.339 345.689 520.768 346.022 521.103 346.439C521.439 346.856 521.672 347.346 521.783 347.87C521.895 348.393 521.882 348.936 521.746 349.453V349.453Z" fill="#FFE779"/>
<path d="M527.72 346.677L540.002 347.098" stroke="#63737A" stroke-width="1.8" stroke-linecap="round" stroke-linejoin="round"/>
<path d="M508.538 362.662L534.871 364.512" stroke="#63737A" stroke-width="1.8" stroke-linecap="round" stroke-linejoin="round"/>
<path d="M526.289 351.641L538.572 352.145" stroke="#63737A" stroke-width="1.8" stroke-linecap="round" stroke-linejoin="round"/>
<path d="M593.677 225.952L529.739 230.916C529.357 230.941 528.974 230.884 528.615 230.749C528.257 230.614 527.932 230.404 527.661 230.133C527.39 229.862 527.181 229.537 527.046 229.179C526.911 228.82 526.854 228.438 526.878 228.055L529.57 191.123C529.646 190.052 530.09 189.04 530.825 188.259C531.561 187.477 532.544 186.973 533.609 186.832L598.556 177.999C598.951 177.95 599.352 177.988 599.731 178.112C600.109 178.236 600.455 178.442 600.744 178.715C601.034 178.989 601.259 179.323 601.405 179.693C601.55 180.064 601.611 180.462 601.585 180.859L597.967 221.746C597.846 222.834 597.353 223.847 596.571 224.613C595.789 225.379 594.767 225.852 593.677 225.952V225.952Z" fill="#389396"/>
<path d="M591.573 224.606L527.635 229.57C527.253 229.594 526.871 229.537 526.512 229.402C526.154 229.267 525.829 229.057 525.558 228.787C525.287 228.516 525.077 228.191 524.942 227.832C524.807 227.474 524.75 227.091 524.775 226.709L527.467 189.777C527.543 188.706 527.987 187.694 528.722 186.912C529.458 186.131 530.441 185.627 531.505 185.486L596.453 176.653C596.848 176.603 597.249 176.642 597.627 176.766C598.006 176.89 598.352 177.096 598.641 177.369C598.931 177.642 599.156 177.976 599.301 178.347C599.447 178.718 599.508 179.116 599.482 179.513L595.864 220.4C595.772 221.499 595.287 222.528 594.5 223.3C593.713 224.072 592.674 224.535 591.573 224.606V224.606Z" fill="#B0D7C0"/>
<path d="M549.004 199.872C548.886 201.129 548.349 202.31 547.479 203.225C546.61 204.14 545.458 204.737 544.209 204.92C543.662 204.992 543.105 204.937 542.583 204.759C542.06 204.581 541.585 204.286 541.195 203.896C540.804 203.506 540.509 203.031 540.332 202.508C540.154 201.985 540.099 201.429 540.171 200.882C540.271 199.632 540.791 198.453 541.646 197.536C542.502 196.62 543.642 196.02 544.882 195.834C547.406 195.497 549.172 197.348 549.004 199.872Z" fill="#22272E"/>
<path d="M547.742 215.941L538.993 216.782C538.554 216.829 538.11 216.776 537.695 216.627C537.28 216.477 536.904 216.236 536.596 215.919C536.288 215.603 536.056 215.221 535.918 214.802C535.779 214.384 535.737 213.939 535.796 213.501V213.501C536.012 211.27 536.965 209.175 538.503 207.545C540.041 205.915 542.078 204.844 544.293 204.499V204.499C548.668 203.995 552.033 207.36 551.612 211.987C551.505 212.985 551.065 213.918 550.363 214.635C549.661 215.352 548.738 215.812 547.742 215.941V215.941Z" fill="#22272E"/>
<path d="M559.352 195.329L586.61 192.132" stroke="#63737A" stroke-width="1.8" stroke-linecap="round" stroke-linejoin="round"/>
<path d="M558.679 202.817L585.937 199.872" stroke="#63737A" stroke-width="1.8" stroke-linecap="round" stroke-linejoin="round"/>
<path d="M558.09 210.304L574.495 208.706" stroke="#63737A" stroke-width="1.8" stroke-linecap="round" stroke-linejoin="round"/>
<path d="M521.158 160.332C517.877 157.051 513.249 155.116 507.529 154.443C503.731 153.882 499.852 154.407 496.34 155.957C492.301 157.724 489.273 160.836 487.001 165.379L483.215 166.978L485.403 169.249L495.246 171.016C495.924 168.886 497.107 166.952 498.695 165.379C500.378 163.697 502.649 163.024 505.51 163.444C508.37 163.865 510.305 164.959 511.062 166.725C511.819 168.513 511.909 170.514 511.315 172.362C510.804 174.09 509.812 175.637 508.454 176.821C507.601 177.581 506.636 178.205 505.594 178.672L502.229 180.354C498.948 181.953 496.76 183.467 495.667 184.981C494.582 186.663 493.706 188.472 493.059 190.366L489.693 191.459L491.881 193.731L501.976 196.507C502.365 194.883 502.989 193.324 503.827 191.88C504.839 190.304 506.306 189.071 508.033 188.347L511.483 186.748C514.181 185.616 516.725 184.146 519.054 182.373C521.641 180.173 523.443 177.19 524.186 173.876C525.616 168.324 524.607 163.781 521.158 160.332Z" fill="#F8AB5D"/>
<path d="M495.414 199.788L495.078 199.704C494.348 199.516 493.588 199.477 492.843 199.588C492.098 199.699 491.383 199.958 490.74 200.35C490.097 200.743 489.539 201.26 489.099 201.871C488.659 202.482 488.346 203.176 488.179 203.91C487.705 205.396 487.815 207.006 488.487 208.413C489.16 209.82 490.343 210.917 491.797 211.482L492.133 211.65C495.162 212.66 498.359 210.809 499.284 207.444C500.209 204.078 498.443 200.629 495.414 199.788Z" fill="#F8AB5D"/>
<path d="M494.236 153.685C497.771 152.217 501.628 151.695 505.426 152.171C511.146 152.844 515.689 154.779 519.054 158.06C522.419 161.341 523.513 166.052 521.999 171.773C521.233 175.078 519.436 178.054 516.867 180.27C515.437 181.532 512.913 182.962 509.295 184.645L505.846 186.243C504.119 186.968 502.652 188.2 501.64 189.777C500.853 191.246 500.232 192.797 499.789 194.404L489.693 191.627C491.124 187.253 492.301 184.392 493.479 182.878C494.657 181.364 496.76 179.849 500.041 178.251L503.406 176.568C504.443 176.091 505.406 175.468 506.267 174.718C507.669 173.572 508.67 172.011 509.127 170.259C509.639 168.4 509.55 166.428 508.875 164.622C508.202 162.855 506.267 161.762 503.322 161.341C500.378 160.92 498.19 161.593 496.508 163.276C494.886 164.822 493.697 166.765 493.059 168.913L483.215 167.146C485.571 160.332 489.104 155.957 494.236 153.685ZM493.143 198.442L493.479 198.526C494.982 199.038 496.226 200.114 496.948 201.528C497.67 202.941 497.814 204.58 497.349 206.098V206.098C496.424 209.463 493.143 211.314 490.198 210.304L489.862 210.136C488.408 209.571 487.225 208.474 486.552 207.067C485.88 205.66 485.77 204.05 486.244 202.564V202.564C486.613 201.103 487.547 199.849 488.841 199.076C490.134 198.303 491.681 198.075 493.143 198.442V198.442Z" fill="#FFE779"/>
<path d="M265.322 205.593H297.627L300.908 207.696C301.148 207.851 301.426 207.938 301.711 207.948C301.997 207.958 302.28 207.891 302.53 207.752C302.781 207.614 302.989 207.411 303.133 207.164C303.277 206.917 303.351 206.636 303.348 206.35V183.551C303.348 182.436 302.905 181.366 302.116 180.577C301.327 179.788 300.257 179.345 299.141 179.345H265.322C264.206 179.345 263.136 179.788 262.347 180.577C261.558 181.366 261.115 182.436 261.115 183.551V201.386C261.115 202.502 261.558 203.572 262.347 204.361C263.136 205.15 264.206 205.593 265.322 205.593V205.593Z" fill="#F4C2C9"/>
<path d="M292.916 186.832H271.379" stroke="#22272E" stroke-width="1.8" stroke-linecap="round" stroke-linejoin="round"/>
<path d="M292.916 192.721H271.379" stroke="#22272E" stroke-width="1.8" stroke-linecap="round" stroke-linejoin="round"/>
<path d="M292.916 198.61H280.549" stroke="#22272E" stroke-width="1.8" stroke-linecap="round" stroke-linejoin="round"/>
</svg>
