<svg width="370" height="147" viewBox="0 0 370 147" fill="none" xmlns="http://www.w3.org/2000/svg">
<path fill-rule="evenodd" clip-rule="evenodd" d="M88 0H92V4H88V0ZM108 0H112V4H108V0ZM128 0H132V4H128V0ZM148 0H152V4H148V0ZM168 0H172V4H168V0ZM188 0H192V4H188V0ZM88 20H92V24H88V20ZM108 20H112V24H108V20ZM128 20H132V24H128V20ZM148 20H152V24H148V20ZM168 20H172V24H168V20ZM188 20H192V24H188V20ZM88 40H92V44H88V40ZM108 40H112V44H108V40ZM128 40H132V44H128V40ZM148 40H152V44H148V40ZM168 40H172V44H168V40ZM188 40H192V44H188V40ZM88 60H92V64H88V60ZM108 60H112V64H108V60ZM128 60H132V64H128V60ZM148 60H152V64H148V60ZM168 60H172V64H168V60ZM188 60H192V64H188V60ZM88 80H92V84H88V80ZM108 80H112V84H108V80ZM128 80H132V84H128V80ZM148 80H152V84H148V80ZM168 80H172V84H168V80ZM188 80H192V84H188V80ZM208 80H212V84H208V80ZM228 80H232V84H228V80ZM88 100H92V104H88V100ZM108 100H112V104H108V100ZM128 100H132V104H128V100ZM148 100H152V104H148V100ZM168 100H172V104H168V100ZM188 100H192V104H188V100ZM208 100H212V104H208V100ZM228 100H232V104H228V100Z" fill="#95A4B4"/>
</svg>
