<svg width="370" height="358" viewBox="0 0 370 358" fill="none" xmlns="http://www.w3.org/2000/svg">
<path fill-rule="evenodd" clip-rule="evenodd" d="M232 104H228V100H232V104ZM212 104H208V100H212V104ZM192 104H188V100H192V104ZM172 104H168V100H172V104ZM152 104H148V100H152V104ZM132 104H128V100H132V104ZM232 84H228V80H232V84ZM212 84H208V80H212V84ZM192 84H188V80H192V84ZM172 84H168V80H172V84ZM152 84H148V80H152V84ZM132 84H128V80H132V84ZM232 64H228V60H232V64ZM212 64H208V60H212V64ZM192 64H188V60H192V64ZM172 64H168V60H172V64ZM152 64H148V60H152V64ZM132 64H128V60H132V64ZM232 44H228V40H232V44ZM212 44H208V40H212V44ZM192 44H188V40H192V44ZM172 44H168V40H172V44ZM152 44H148V40H152V44ZM132 44H128V40H132V44ZM232 24H228V20H232V24ZM212 24H208V20H212V24ZM192 24H188V20H192V24ZM172 24H168V20H172V24ZM152 24H148V20H152V24ZM132 24H128V20H132V24ZM112 24H108V20H112V24ZM92 24H88V20H92V24ZM232 4H228V0H232V4ZM212 4H208V0H212V4ZM192 4H188V0H192V4ZM172 4H168V0H172V4ZM152 4H148V0H152V4ZM132 4H128V0H132V4ZM112 4H108V0H112V4ZM92 4H88V0H92V4Z" fill="#95A4B4"/>
</svg>
