<svg width="269" height="40" viewBox="0 0 269 40" fill="none" xmlns="http://www.w3.org/2000/svg">
<path d="M1 5L0.999999 35" stroke="#928C99" stroke-width="2" stroke-linecap="round"/>
<path d="M12.1186 4.81818H13.983L17.2244 12.733H17.3438L20.5852 4.81818H22.4496V15H20.9879V7.6321H20.8935L17.8906 14.9851H16.6776L13.6747 7.62713H13.5803V15H12.1186V4.81818ZM28.1349 15.1541C27.3826 15.1541 26.7346 14.9934 26.191 14.6719C25.6508 14.3471 25.2332 13.8913 24.9382 13.3047C24.6465 12.7147 24.5007 12.0237 24.5007 11.2315C24.5007 10.4493 24.6465 9.75994 24.9382 9.16335C25.2332 8.56676 25.6442 8.10109 26.1712 7.76633C26.7015 7.43158 27.3213 7.2642 28.0305 7.2642C28.4614 7.2642 28.879 7.33546 29.2834 7.47798C29.6877 7.6205 30.0507 7.84422 30.3722 8.14915C30.6936 8.45407 30.9472 8.85014 31.1328 9.33736C31.3184 9.82126 31.4112 10.4096 31.4112 11.1023V11.6293H25.3409V10.5156H29.9545C29.9545 10.1245 29.875 9.77817 29.7159 9.47656C29.5568 9.17164 29.3331 8.93134 29.0447 8.75568C28.7597 8.58002 28.4249 8.49219 28.0405 8.49219C27.6229 8.49219 27.2583 8.59493 26.9467 8.80043C26.6385 9.0026 26.3999 9.26776 26.2308 9.59588C26.0651 9.92069 25.9822 10.2737 25.9822 10.6548V11.5249C25.9822 12.0353 26.0717 12.4695 26.2507 12.8274C26.433 13.1854 26.6865 13.4588 27.0114 13.6477C27.3362 13.8333 27.7157 13.9261 28.1499 13.9261C28.4316 13.9261 28.6884 13.8864 28.9204 13.8068C29.1525 13.724 29.353 13.6013 29.522 13.4389C29.691 13.2765 29.8203 13.076 29.9098 12.8374L31.3168 13.0909C31.2041 13.5052 31.0019 13.8681 30.7102 14.1797C30.4219 14.4879 30.0589 14.7282 29.6214 14.9006C29.1873 15.0696 28.6918 15.1541 28.1349 15.1541ZM33.3405 15V7.36364H34.7674V8.60653H34.8618C35.0209 8.18561 35.2811 7.85748 35.6424 7.62216C36.0037 7.38352 36.4362 7.2642 36.94 7.2642C37.4504 7.2642 37.8779 7.38352 38.2226 7.62216C38.5707 7.8608 38.8275 8.18892 38.9932 8.60653H39.0728C39.2551 8.19886 39.5451 7.87405 39.9428 7.6321C40.3405 7.38684 40.8145 7.2642 41.3647 7.2642C42.0574 7.2642 42.6225 7.4813 43.06 7.91548C43.5008 8.34967 43.7212 9.00426 43.7212 9.87926V15H42.2347V10.0185C42.2347 9.50142 42.0939 9.12689 41.8121 8.89489C41.5304 8.66288 41.194 8.54688 40.8029 8.54688C40.319 8.54688 39.9428 8.69602 39.6743 8.99432C39.4059 9.2893 39.2716 9.6688 39.2716 10.1328V15H37.7901V9.92401C37.7901 9.50971 37.6609 9.17661 37.4023 8.92472C37.1438 8.67282 36.8074 8.54688 36.3931 8.54688C36.1114 8.54688 35.8512 8.62145 35.6126 8.7706C35.3772 8.91643 35.1867 9.12026 35.0408 9.3821C34.8983 9.64394 34.827 9.94721 34.827 10.2919V15H33.3405ZM46.1129 15V4.81818H47.5994V8.60156H47.6889C47.7751 8.44247 47.8994 8.25852 48.0618 8.04972C48.2242 7.84091 48.4496 7.65862 48.7379 7.50284C49.0263 7.34375 49.4074 7.2642 49.8814 7.2642C50.4978 7.2642 51.048 7.41998 51.5319 7.73153C52.0158 8.04309 52.3953 8.49219 52.6704 9.07884C52.9488 9.66548 53.088 10.3714 53.088 11.1967C53.088 12.022 52.9505 12.7296 52.6754 13.3196C52.4003 13.9062 52.0225 14.3587 51.5419 14.6768C51.0613 14.9917 50.5128 15.1491 49.8963 15.1491C49.4323 15.1491 49.0528 15.0713 48.7578 14.9155C48.4661 14.7597 48.2374 14.5774 48.0717 14.3686C47.906 14.1598 47.7784 13.9742 47.6889 13.8118H47.5646V15H46.1129ZM47.5696 11.1818C47.5696 11.7187 47.6475 12.1894 47.8032 12.5938C47.959 12.9981 48.1844 13.3146 48.4794 13.5433C48.7744 13.7687 49.1356 13.8814 49.5632 13.8814C50.0073 13.8814 50.3785 13.7637 50.6768 13.5284C50.9751 13.2898 51.2005 12.9666 51.353 12.5589C51.5087 12.1513 51.5866 11.6922 51.5866 11.1818C51.5866 10.678 51.5104 10.2256 51.3579 9.82457C51.2088 9.42353 50.9834 9.10701 50.6818 8.875C50.3835 8.64299 50.0106 8.52699 49.5632 8.52699C49.1323 8.52699 48.7677 8.63802 48.4694 8.86009C48.1745 9.08215 47.9507 9.39205 47.7983 9.78977C47.6458 10.1875 47.5696 10.6515 47.5696 11.1818ZM58.3285 15.1541C57.5761 15.1541 56.9281 14.9934 56.3846 14.6719C55.8443 14.3471 55.4267 13.8913 55.1317 13.3047C54.8401 12.7147 54.6942 12.0237 54.6942 11.2315C54.6942 10.4493 54.8401 9.75994 55.1317 9.16335C55.4267 8.56676 55.8377 8.10109 56.3647 7.76633C56.895 7.43158 57.5148 7.2642 58.224 7.2642C58.6549 7.2642 59.0725 7.33546 59.4769 7.47798C59.8812 7.6205 60.2442 7.84422 60.5657 8.14915C60.8872 8.45407 61.1407 8.85014 61.3263 9.33736C61.5119 9.82126 61.6047 10.4096 61.6047 11.1023V11.6293H55.5344V10.5156H60.1481C60.1481 10.1245 60.0685 9.77817 59.9094 9.47656C59.7503 9.17164 59.5266 8.93134 59.2383 8.75568C58.9532 8.58002 58.6185 8.49219 58.234 8.49219C57.8164 8.49219 57.4518 8.59493 57.1402 8.80043C56.832 9.0026 56.5934 9.26776 56.4243 9.59588C56.2586 9.92069 56.1758 10.2737 56.1758 10.6548V11.5249C56.1758 12.0353 56.2652 12.4695 56.4442 12.8274C56.6265 13.1854 56.8801 13.4588 57.2049 13.6477C57.5297 13.8333 57.9092 13.9261 58.3434 13.9261C58.6251 13.9261 58.882 13.8864 59.114 13.8068C59.346 13.724 59.5465 13.6013 59.7155 13.4389C59.8846 13.2765 60.0138 13.076 60.1033 12.8374L61.5103 13.0909C61.3976 13.5052 61.1954 13.8681 60.9037 14.1797C60.6154 14.4879 60.2525 14.7282 59.815 14.9006C59.3808 15.0696 58.8853 15.1541 58.3285 15.1541ZM63.5341 15V7.36364H64.9708V8.5767H65.0504C65.1896 8.16572 65.4349 7.84257 65.7862 7.60724C66.1408 7.36861 66.5419 7.24929 66.9893 7.24929C67.0821 7.24929 67.1915 7.2526 67.3174 7.25923C67.4467 7.26586 67.5478 7.27415 67.6207 7.28409V8.70597C67.561 8.68939 67.455 8.67116 67.3025 8.65128C67.1501 8.62808 66.9976 8.61648 66.8451 8.61648C66.4938 8.61648 66.1806 8.69105 65.9055 8.8402C65.6337 8.98603 65.4183 9.18987 65.2592 9.4517C65.1001 9.71023 65.0206 10.0052 65.0206 10.3366V15H63.5341ZM76.3888 15.1541C75.6729 15.1541 75.0481 14.9901 74.5145 14.6619C73.9809 14.3338 73.5666 13.8748 73.2716 13.2848C72.9766 12.6948 72.8291 12.0054 72.8291 11.2166C72.8291 10.4245 72.9766 9.73177 73.2716 9.13849C73.5666 8.54522 73.9809 8.08452 74.5145 7.75639C75.0481 7.42827 75.6729 7.2642 76.3888 7.2642C77.1047 7.2642 77.7295 7.42827 78.2631 7.75639C78.7967 8.08452 79.211 8.54522 79.506 9.13849C79.801 9.73177 79.9485 10.4245 79.9485 11.2166C79.9485 12.0054 79.801 12.6948 79.506 13.2848C79.211 13.8748 78.7967 14.3338 78.2631 14.6619C77.7295 14.9901 77.1047 15.1541 76.3888 15.1541ZM76.3938 13.9062C76.8578 13.9062 77.2423 13.7836 77.5472 13.5384C77.8521 13.2931 78.0775 12.9666 78.2233 12.5589C78.3725 12.1513 78.447 11.7022 78.447 11.2116C78.447 10.7244 78.3725 10.277 78.2233 9.86932C78.0775 9.45833 77.8521 9.12855 77.5472 8.87997C77.2423 8.63139 76.8578 8.5071 76.3938 8.5071C75.9264 8.5071 75.5387 8.63139 75.2304 8.87997C74.9255 9.12855 74.6985 9.45833 74.5493 9.86932C74.4035 10.277 74.3306 10.7244 74.3306 11.2116C74.3306 11.7022 74.4035 12.1513 74.5493 12.5589C74.6985 12.9666 74.9255 13.2931 75.2304 13.5384C75.5387 13.7836 75.9264 13.9062 76.3938 13.9062ZM85.522 7.36364V8.55682H81.2066V7.36364H85.522ZM82.3899 15V6.47869C82.3899 6.00142 82.4943 5.60535 82.7031 5.29048C82.9119 4.9723 83.1886 4.73532 83.5333 4.57955C83.878 4.42045 84.2525 4.34091 84.6569 4.34091C84.9552 4.34091 85.2104 4.36577 85.4225 4.41548C85.6346 4.46188 85.7921 4.50497 85.8948 4.54474L85.5468 5.74787C85.4772 5.72798 85.3877 5.70478 85.2784 5.67827C85.169 5.64844 85.0364 5.63352 84.8806 5.63352C84.5194 5.63352 84.2608 5.72301 84.1051 5.90199C83.9526 6.08097 83.8764 6.33949 83.8764 6.67756V15H82.3899ZM91.4401 15V4.81818H95.0694C95.8615 4.81818 96.5177 4.96236 97.0381 5.25071C97.5585 5.53906 97.9479 5.93347 98.2064 6.43395C98.465 6.93111 98.5942 7.49124 98.5942 8.11435C98.5942 8.74077 98.4633 9.30421 98.2015 9.80469C97.9429 10.3018 97.5518 10.6963 97.0282 10.9879C96.5078 11.2763 95.8532 11.4205 95.0644 11.4205H92.5686V10.1179H94.9252C95.4257 10.1179 95.8317 10.0317 96.1432 9.85938C96.4548 9.68371 96.6835 9.44508 96.8293 9.14347C96.9751 8.84186 97.048 8.49882 97.048 8.11435C97.048 7.72988 96.9751 7.38849 96.8293 7.0902C96.6835 6.7919 96.4531 6.55824 96.1382 6.3892C95.8267 6.22017 95.4157 6.13565 94.9053 6.13565H92.9763V15H91.4401ZM100.675 15V4.81818H107.059V6.14062H102.211V9.2429H106.726V10.5604H102.211V13.6776H107.118V15H100.675ZM109.391 15V4.81818H113.02C113.809 4.81818 114.463 4.95407 114.984 5.22585C115.507 5.49763 115.899 5.87382 116.157 6.3544C116.416 6.83168 116.545 7.38352 116.545 8.00994C116.545 8.63305 116.414 9.18158 116.152 9.65554C115.894 10.1262 115.502 10.4924 114.979 10.7543C114.458 11.0161 113.804 11.147 113.015 11.147H110.266V9.82457H112.876C113.373 9.82457 113.777 9.75331 114.089 9.6108C114.404 9.46828 114.634 9.26113 114.78 8.98935C114.926 8.71757 114.999 8.3911 114.999 8.00994C114.999 7.62547 114.924 7.29238 114.775 7.01065C114.629 6.72893 114.399 6.51349 114.084 6.36435C113.772 6.21188 113.363 6.13565 112.856 6.13565H110.927V15H109.391ZM114.417 10.4062L116.933 15H115.183L112.717 10.4062H114.417ZM118.192 6.14062V4.81818H126.072V6.14062H122.895V15H121.364V6.14062H118.192ZM127.75 15H126.12L129.784 4.81818H131.558L135.223 15H133.592L130.713 6.66761H130.634L127.75 15ZM128.024 11.0128H133.313V12.3054H128.024V11.0128ZM136.973 4.81818H138.837L142.079 12.733H142.198L145.44 4.81818H147.304V15H145.842V7.6321H145.748L142.745 14.9851H141.532L138.529 7.62713H138.435V15H136.973V4.81818ZM151.354 4.81818V15H149.817V4.81818H151.354ZM162.089 4.81818V15H160.677L155.501 7.53267H155.407V15H153.871V4.81818H155.293L160.473 12.2955H160.568V4.81818H162.089ZM165.47 15H163.839L167.503 4.81818H169.278L172.942 15H171.311L168.433 6.66761H168.353L165.47 15ZM165.743 11.0128H171.033V12.3054H165.743V11.0128ZM181.521 15.1442C180.839 15.1442 180.25 15.0199 179.756 14.7713C179.266 14.5227 178.888 14.1847 178.623 13.7571C178.358 13.3262 178.225 12.839 178.225 12.2955C178.225 11.8812 178.311 11.5133 178.484 11.1918C178.656 10.867 178.896 10.567 179.205 10.2919C179.513 10.0168 179.869 9.74006 180.273 9.46165L181.914 8.30327C182.193 8.12098 182.41 7.92874 182.565 7.72656C182.721 7.52107 182.799 7.26752 182.799 6.96591C182.799 6.72727 182.696 6.49858 182.491 6.27983C182.285 6.06108 182.01 5.9517 181.666 5.9517C181.427 5.9517 181.216 6.00971 181.034 6.12571C180.855 6.24171 180.714 6.39086 180.612 6.57315C180.512 6.75213 180.462 6.94105 180.462 7.13991C180.462 7.37192 180.525 7.60559 180.651 7.84091C180.781 8.07623 180.946 8.31984 181.148 8.57173C181.351 8.82031 181.563 9.07883 181.785 9.3473L186.513 15H184.832L180.92 10.4013C180.592 10.0135 180.287 9.64891 180.005 9.30753C179.723 8.96283 179.495 8.61482 179.319 8.26349C179.147 7.90885 179.06 7.52604 179.06 7.11506C179.06 6.64773 179.166 6.23343 179.379 5.87216C179.594 5.50758 179.894 5.22254 180.278 5.01705C180.663 4.81155 181.114 4.70881 181.631 4.70881C182.154 4.70881 182.603 4.81155 182.978 5.01705C183.356 5.21922 183.646 5.48935 183.848 5.82741C184.054 6.16217 184.156 6.52841 184.156 6.92614C184.156 7.41004 184.035 7.83759 183.793 8.20881C183.555 8.5767 183.225 8.91477 182.804 9.22301L180.761 10.7294C180.363 11.0211 180.086 11.3094 179.93 11.5945C179.778 11.8762 179.702 12.0966 179.702 12.2557C179.702 12.5473 179.776 12.8175 179.925 13.0661C180.078 13.3146 180.29 13.5135 180.562 13.6626C180.837 13.8118 181.158 13.8864 181.526 13.8864C181.904 13.8864 182.272 13.8052 182.63 13.6428C182.991 13.477 183.318 13.2401 183.609 12.9318C183.904 12.6236 184.138 12.254 184.31 11.8232C184.483 11.3923 184.569 10.91 184.569 10.3764H185.911C185.911 11.0327 185.837 11.5878 185.688 12.0419C185.538 12.4927 185.358 12.8606 185.146 13.1456C184.937 13.4273 184.74 13.6477 184.554 13.8068C184.494 13.8598 184.438 13.9129 184.385 13.9659C184.332 14.0189 184.276 14.072 184.216 14.125C183.871 14.473 183.454 14.7299 182.963 14.8956C182.476 15.0613 181.995 15.1442 181.521 15.1442ZM191.56 6.14062V4.81818H199.44V6.14062H196.263V15H194.732V6.14062H191.56ZM201.342 15V7.36364H202.828V15H201.342ZM202.092 6.18537C201.834 6.18537 201.612 6.09919 201.426 5.92685C201.244 5.75118 201.153 5.54238 201.153 5.30043C201.153 5.05516 201.244 4.84635 201.426 4.67401C201.612 4.49834 201.834 4.41051 202.092 4.41051C202.351 4.41051 202.571 4.49834 202.754 4.67401C202.939 4.84635 203.032 5.05516 203.032 5.30043C203.032 5.54238 202.939 5.75118 202.754 5.92685C202.571 6.09919 202.351 6.18537 202.092 6.18537ZM205.108 15V7.36364H206.535V8.60653H206.629C206.788 8.18561 207.049 7.85748 207.41 7.62216C207.771 7.38352 208.204 7.2642 208.707 7.2642C209.218 7.2642 209.645 7.38352 209.99 7.62216C210.338 7.8608 210.595 8.18892 210.761 8.60653H210.84C211.022 8.19886 211.313 7.87405 211.71 7.6321C212.108 7.38684 212.582 7.2642 213.132 7.2642C213.825 7.2642 214.39 7.4813 214.827 7.91548C215.268 8.34967 215.489 9.00426 215.489 9.87926V15H214.002V10.0185C214.002 9.50142 213.861 9.12689 213.58 8.89489C213.298 8.66288 212.961 8.54688 212.57 8.54688C212.086 8.54688 211.71 8.69602 211.442 8.99432C211.173 9.2893 211.039 9.6688 211.039 10.1328V15H209.558V9.92401C209.558 9.50971 209.428 9.17661 209.17 8.92472C208.911 8.67282 208.575 8.54688 208.161 8.54688C207.879 8.54688 207.619 8.62145 207.38 8.7706C207.145 8.91643 206.954 9.12026 206.808 9.3821C206.666 9.64394 206.594 9.94721 206.594 10.2919V15H205.108ZM219.983 15.169C219.499 15.169 219.062 15.0795 218.671 14.9006C218.28 14.7183 217.97 14.4548 217.741 14.1101C217.516 13.7654 217.403 13.3428 217.403 12.8423C217.403 12.4115 217.486 12.0568 217.652 11.7784C217.817 11.5 218.041 11.2796 218.323 11.1172C218.605 10.9548 218.919 10.8321 219.267 10.7493C219.615 10.6664 219.97 10.6035 220.331 10.5604C220.789 10.5073 221.16 10.4643 221.445 10.4311C221.73 10.3946 221.937 10.3366 222.066 10.2571C222.196 10.1776 222.26 10.0483 222.26 9.86932V9.83452C222.26 9.40033 222.138 9.06392 221.892 8.82528C221.65 8.58665 221.289 8.46733 220.809 8.46733C220.308 8.46733 219.914 8.57836 219.625 8.80043C219.34 9.01918 219.143 9.26278 219.034 9.53125L217.637 9.21307C217.802 8.74905 218.044 8.37453 218.363 8.08949C218.684 7.80114 219.054 7.59233 219.471 7.46307C219.889 7.33049 220.328 7.2642 220.789 7.2642C221.094 7.2642 221.417 7.30066 221.758 7.37358C222.103 7.44318 222.424 7.57244 222.723 7.76136C223.024 7.95028 223.271 8.22041 223.463 8.57173C223.656 8.91974 223.752 9.37216 223.752 9.92898V15H222.3V13.956H222.24C222.144 14.1482 222 14.3371 221.808 14.5227C221.616 14.7083 221.369 14.8625 221.067 14.9851C220.766 15.1077 220.404 15.169 219.983 15.169ZM220.306 13.9759C220.717 13.9759 221.069 13.8946 221.36 13.7322C221.655 13.5698 221.879 13.3577 222.032 13.0959C222.187 12.8307 222.265 12.5473 222.265 12.2457V11.2614C222.212 11.3144 222.109 11.3641 221.957 11.4105C221.808 11.4536 221.637 11.4917 221.445 11.5249C221.253 11.5547 221.065 11.5829 220.883 11.6094C220.701 11.6326 220.548 11.6525 220.426 11.669C220.137 11.7055 219.874 11.7668 219.635 11.853C219.4 11.9392 219.211 12.0634 219.069 12.2259C218.929 12.3849 218.86 12.5971 218.86 12.8622C218.86 13.2301 218.996 13.5085 219.267 13.6974C219.539 13.883 219.886 13.9759 220.306 13.9759ZM227.498 10.4659V15H226.012V4.81818H227.478V8.60653H227.573C227.752 8.19555 228.025 7.86908 228.393 7.62713C228.761 7.38518 229.242 7.2642 229.835 7.2642C230.359 7.2642 230.816 7.37192 231.207 7.58736C231.601 7.80279 231.906 8.12429 232.122 8.55185C232.341 8.97609 232.45 9.50639 232.45 10.1428V15H230.963V10.3217C230.963 9.7616 230.819 9.32741 230.531 9.01918C230.243 8.70762 229.841 8.55185 229.328 8.55185C228.976 8.55185 228.662 8.62642 228.383 8.77557C228.108 8.92472 227.891 9.14347 227.732 9.43182C227.576 9.71686 227.498 10.0616 227.498 10.4659ZM238.316 6.14062V4.81818H246.196V6.14062H243.019V15H241.488V6.14062H238.316ZM248.217 15V4.81818H249.704V8.60156H249.793C249.879 8.44247 250.004 8.25852 250.166 8.04972C250.328 7.84091 250.554 7.65862 250.842 7.50284C251.13 7.34375 251.512 7.2642 251.986 7.2642C252.602 7.2642 253.152 7.41998 253.636 7.73153C254.12 8.04309 254.5 8.49219 254.775 9.07884C255.053 9.66548 255.192 10.3714 255.192 11.1967C255.192 12.022 255.055 12.7296 254.78 13.3196C254.505 13.9062 254.127 14.3587 253.646 14.6768C253.166 14.9917 252.617 15.1491 252 15.1491C251.536 15.1491 251.157 15.0713 250.862 14.9155C250.57 14.7597 250.342 14.5774 250.176 14.3686C250.01 14.1598 249.883 13.9742 249.793 13.8118H249.669V15H248.217ZM249.674 11.1818C249.674 11.7187 249.752 12.1894 249.907 12.5938C250.063 12.9981 250.289 13.3146 250.584 13.5433C250.879 13.7687 251.24 13.8814 251.667 13.8814C252.112 13.8814 252.483 13.7637 252.781 13.5284C253.079 13.2898 253.305 12.9666 253.457 12.5589C253.613 12.1513 253.691 11.6922 253.691 11.1818C253.691 10.678 253.615 10.2256 253.462 9.82457C253.313 9.42353 253.088 9.10701 252.786 8.875C252.488 8.64299 252.115 8.52699 251.667 8.52699C251.237 8.52699 250.872 8.63802 250.574 8.86009C250.279 9.08215 250.055 9.39205 249.902 9.78977C249.75 10.1875 249.674 10.6515 249.674 11.1818ZM258.509 12.4098L258.499 10.5952H258.757L261.8 7.36364H263.58L260.11 11.0426H259.876L258.509 12.4098ZM257.141 15V4.81818H258.628V15H257.141ZM261.964 15L259.23 11.3707L260.254 10.3317L263.788 15H261.964ZM266.194 15.0945C265.922 15.0945 265.688 14.9983 265.493 14.8061C265.297 14.6106 265.2 14.3752 265.2 14.1001C265.2 13.8284 265.297 13.5964 265.493 13.4041C265.688 13.2086 265.922 13.1108 266.194 13.1108C266.466 13.1108 266.699 13.2086 266.895 13.4041C267.09 13.5964 267.188 13.8284 267.188 14.1001C267.188 14.2824 267.142 14.4498 267.049 14.6023C266.959 14.7514 266.84 14.8707 266.691 14.9602C266.542 15.0497 266.376 15.0945 266.194 15.0945ZM12.1186 35V24.8182H13.6548V33.6776H18.2685V35H12.1186ZM20.1816 35V27.3636H21.6681V35H20.1816ZM20.9323 26.1854C20.6738 26.1854 20.4518 26.0992 20.2662 25.9268C20.0839 25.7512 19.9927 25.5424 19.9927 25.3004C19.9927 25.0552 20.0839 24.8464 20.2662 24.674C20.4518 24.4983 20.6738 24.4105 20.9323 24.4105C21.1909 24.4105 21.4113 24.4983 21.5936 24.674C21.7792 24.8464 21.872 25.0552 21.872 25.3004C21.872 25.5424 21.7792 25.7512 21.5936 25.9268C21.4113 26.0992 21.1909 26.1854 20.9323 26.1854ZM27.5822 27.3636V28.5568H23.2669V27.3636H27.5822ZM24.4501 35V26.4787C24.4501 26.0014 24.5545 25.6053 24.7633 25.2905C24.9721 24.9723 25.2489 24.7353 25.5936 24.5795C25.9383 24.4205 26.3128 24.3409 26.7171 24.3409C27.0154 24.3409 27.2706 24.3658 27.4828 24.4155C27.6949 24.4619 27.8523 24.505 27.9551 24.5447L27.6071 25.7479C27.5375 25.728 27.448 25.7048 27.3386 25.6783C27.2292 25.6484 27.0966 25.6335 26.9409 25.6335C26.5796 25.6335 26.3211 25.723 26.1653 25.902C26.0128 26.081 25.9366 26.3395 25.9366 26.6776V35H24.4501ZM32.3863 35.1541C31.634 35.1541 30.986 34.9934 30.4425 34.6719C29.9022 34.3471 29.4846 33.8913 29.1896 33.3047C28.8979 32.7147 28.7521 32.0237 28.7521 31.2315C28.7521 30.4493 28.8979 29.7599 29.1896 29.1634C29.4846 28.5668 29.8956 28.1011 30.4226 27.7663C30.9529 27.4316 31.5727 27.2642 32.2819 27.2642C32.7128 27.2642 33.1304 27.3355 33.5348 27.478C33.9391 27.6205 34.3021 27.8442 34.6236 28.1491C34.9451 28.4541 35.1986 28.8501 35.3842 29.3374C35.5698 29.8213 35.6626 30.4096 35.6626 31.1023V31.6293H29.5923V30.5156H34.2059C34.2059 30.1245 34.1264 29.7782 33.9673 29.4766C33.8082 29.1716 33.5845 28.9313 33.2961 28.7557C33.0111 28.58 32.6764 28.4922 32.2919 28.4922C31.8743 28.4922 31.5097 28.5949 31.1981 28.8004C30.8899 29.0026 30.6513 29.2678 30.4822 29.5959C30.3165 29.9207 30.2336 30.2737 30.2336 30.6548V31.5249C30.2336 32.0353 30.3231 32.4695 30.5021 32.8274C30.6844 33.1854 30.938 33.4588 31.2628 33.6477C31.5876 33.8333 31.9671 33.9261 32.4013 33.9261C32.683 33.9261 32.9398 33.8864 33.1719 33.8068C33.4039 33.724 33.6044 33.6013 33.7734 33.4389C33.9425 33.2765 34.0717 33.076 34.1612 32.8374L35.5682 33.0909C35.4555 33.5052 35.2533 33.8681 34.9616 34.1797C34.6733 34.4879 34.3103 34.7282 33.8728 34.9006C33.4387 35.0696 32.9432 35.1541 32.3863 35.1541ZM39.5259 33.608L39.4513 34.1499C39.4016 34.5476 39.3171 34.9619 39.1978 35.3928C39.0818 35.8269 38.9608 36.2296 38.8348 36.6009C38.7122 36.9721 38.6111 37.267 38.5316 37.4858H37.4776C37.5207 37.2803 37.5803 37.0019 37.6566 36.6506C37.7328 36.3026 37.8074 35.9131 37.8803 35.4822C37.9532 35.0514 38.0079 34.6122 38.0444 34.1648L38.0941 33.608H39.5259ZM45.8455 35V24.8182H47.3817V29.2429H52.4577V24.8182H53.9989V35H52.4577V30.5604H47.3817V35H45.8455ZM59.688 35.1541C58.9356 35.1541 58.2877 34.9934 57.7441 34.6719C57.2038 34.3471 56.7862 33.8913 56.4912 33.3047C56.1996 32.7147 56.0537 32.0237 56.0537 31.2315C56.0537 30.4493 56.1996 29.7599 56.4912 29.1634C56.7862 28.5668 57.1972 28.1011 57.7242 27.7663C58.2545 27.4316 58.8743 27.2642 59.5836 27.2642C60.0144 27.2642 60.4321 27.3355 60.8364 27.478C61.2408 27.6205 61.6037 27.8442 61.9252 28.1491C62.2467 28.4541 62.5002 28.8501 62.6859 29.3374C62.8715 29.8213 62.9643 30.4096 62.9643 31.1023V31.6293H56.8939V30.5156H61.5076C61.5076 30.1245 61.428 29.7782 61.2689 29.4766C61.1099 29.1716 60.8861 28.9313 60.5978 28.7557C60.3127 28.58 59.978 28.4922 59.5935 28.4922C59.1759 28.4922 58.8113 28.5949 58.4998 28.8004C58.1915 29.0026 57.9529 29.2678 57.7839 29.5959C57.6181 29.9207 57.5353 30.2737 57.5353 30.6548V31.5249C57.5353 32.0353 57.6248 32.4695 57.8037 32.8274C57.986 33.1854 58.2396 33.4588 58.5644 33.6477C58.8892 33.8333 59.2687 33.9261 59.7029 33.9261C59.9846 33.9261 60.2415 33.8864 60.4735 33.8068C60.7055 33.724 60.906 33.6013 61.0751 33.4389C61.2441 33.2765 61.3734 33.076 61.4628 32.8374L62.8698 33.0909C62.7571 33.5052 62.5549 33.8681 62.2633 34.1797C61.9749 34.4879 61.612 34.7282 61.1745 34.9006C60.7403 35.0696 60.2448 35.1541 59.688 35.1541ZM67.1159 35.169C66.632 35.169 66.1945 35.0795 65.8034 34.9006C65.4123 34.7183 65.1024 34.4548 64.8737 34.1101C64.6483 33.7654 64.5356 33.3428 64.5356 32.8423C64.5356 32.4115 64.6185 32.0568 64.7842 31.7784C64.9499 31.5 65.1737 31.2796 65.4554 31.1172C65.7371 30.9548 66.052 30.8321 66.4 30.7493C66.748 30.6664 67.1026 30.6035 67.4639 30.5604C67.9213 30.5073 68.2925 30.4643 68.5775 30.4311C68.8626 30.3946 69.0697 30.3366 69.199 30.2571C69.3282 30.1776 69.3929 30.0483 69.3929 29.8693V29.8345C69.3929 29.4003 69.2702 29.0639 69.025 28.8253C68.783 28.5866 68.4218 28.4673 67.9412 28.4673C67.4407 28.4673 67.0463 28.5784 66.7579 28.8004C66.4729 29.0192 66.2757 29.2628 66.1663 29.5312L64.7693 29.2131C64.935 28.7491 65.177 28.3745 65.4952 28.0895C65.8166 27.8011 66.1862 27.5923 66.6038 27.4631C67.0214 27.3305 67.4606 27.2642 67.9213 27.2642C68.2262 27.2642 68.5494 27.3007 68.8907 27.3736C69.2354 27.4432 69.5569 27.5724 69.8552 27.7614C70.1568 27.9503 70.4038 28.2204 70.596 28.5717C70.7882 28.9197 70.8844 29.3722 70.8844 29.929V35H69.4327V33.956H69.373C69.2769 34.1482 69.1327 34.3371 68.9405 34.5227C68.7482 34.7083 68.5013 34.8625 68.1997 34.9851C67.8981 35.1077 67.5368 35.169 67.1159 35.169ZM67.439 33.9759C67.85 33.9759 68.2014 33.8946 68.493 33.7322C68.788 33.5698 69.0117 33.3577 69.1642 33.0959C69.32 32.8307 69.3978 32.5473 69.3978 32.2457V31.2614C69.3448 31.3144 69.2421 31.3641 69.0896 31.4105C68.9405 31.4536 68.7698 31.4917 68.5775 31.5249C68.3853 31.5547 68.198 31.5829 68.0157 31.6094C67.8335 31.6326 67.681 31.6525 67.5584 31.669C67.27 31.7055 67.0065 31.7668 66.7679 31.853C66.5326 31.9392 66.3436 32.0634 66.2011 32.2259C66.0619 32.3849 65.9923 32.5971 65.9923 32.8622C65.9923 33.2301 66.1282 33.5085 66.4 33.6974C66.6718 33.883 67.0181 33.9759 67.439 33.9759ZM74.6308 24.8182V35H73.1443V24.8182H74.6308ZM80.4753 27.3636V28.5568H76.3041V27.3636H80.4753ZM77.4227 25.5341H78.9092V32.7578C78.9092 33.0462 78.9523 33.2633 79.0385 33.4091C79.1246 33.5516 79.2357 33.6494 79.3716 33.7024C79.5108 33.7521 79.6616 33.777 79.824 33.777C79.9433 33.777 80.0477 33.7687 80.1372 33.7521C80.2267 33.7356 80.2963 33.7223 80.346 33.7124L80.6145 34.9403C80.5283 34.9735 80.4056 35.0066 80.2466 35.0398C80.0875 35.0762 79.8886 35.0961 79.65 35.0994C79.2589 35.1061 78.8943 35.0365 78.5562 34.8906C78.2181 34.7448 77.9447 34.5194 77.7359 34.2145C77.5271 33.9096 77.4227 33.5268 77.4227 33.0661V25.5341ZM84.0502 30.4659V35H82.5637V24.8182H84.0303V28.6065H84.1247C84.3037 28.1955 84.5772 27.8691 84.9451 27.6271C85.313 27.3852 85.7935 27.2642 86.3868 27.2642C86.9105 27.2642 87.3679 27.3719 87.759 27.5874C88.1534 27.8028 88.4583 28.1243 88.6738 28.5518C88.8925 28.9761 89.0019 29.5064 89.0019 30.1428V35H87.5154V30.3217C87.5154 29.7616 87.3712 29.3274 87.0828 29.0192C86.7945 28.7076 86.3934 28.5518 85.8797 28.5518C85.5284 28.5518 85.2135 28.6264 84.9351 28.7756C84.66 28.9247 84.4429 29.1435 84.2838 29.4318C84.1281 29.7169 84.0502 30.0616 84.0502 30.4659ZM98.2137 35.1442C97.5309 35.1442 96.9426 35.0199 96.4488 34.7713C95.9582 34.5227 95.5804 34.1847 95.3152 33.7571C95.0501 33.3262 94.9175 32.839 94.9175 32.2955C94.9175 31.8812 95.0037 31.5133 95.176 31.1918C95.3484 30.867 95.5887 30.567 95.8969 30.2919C96.2052 30.0168 96.5615 29.7401 96.9658 29.4616L98.6064 28.3033C98.8849 28.121 99.1019 27.9287 99.2577 27.7266C99.4135 27.5211 99.4914 27.2675 99.4914 26.9659C99.4914 26.7273 99.3886 26.4986 99.1831 26.2798C98.9777 26.0611 98.7026 25.9517 98.3579 25.9517C98.1192 25.9517 97.9088 26.0097 97.7265 26.1257C97.5475 26.2417 97.4066 26.3909 97.3039 26.5732C97.2045 26.7521 97.1547 26.9411 97.1547 27.1399C97.1547 27.3719 97.2177 27.6056 97.3437 27.8409C97.4729 28.0762 97.6386 28.3198 97.8408 28.5717C98.043 28.8203 98.2551 29.0788 98.4772 29.3473L103.205 35H101.525L97.6121 30.4013C97.284 30.0135 96.9791 29.6489 96.6974 29.3075C96.4156 28.9628 96.1869 28.6148 96.0113 28.2635C95.8389 27.9089 95.7527 27.526 95.7527 27.1151C95.7527 26.6477 95.8588 26.2334 96.0709 25.8722C96.2864 25.5076 96.5863 25.2225 96.9708 25.017C97.3553 24.8116 97.806 24.7088 98.3231 24.7088C98.8467 24.7088 99.2958 24.8116 99.6704 25.017C100.048 25.2192 100.338 25.4893 100.54 25.8274C100.746 26.1622 100.849 26.5284 100.849 26.9261C100.849 27.41 100.728 27.8376 100.486 28.2088C100.247 28.5767 99.9173 28.9148 99.4964 29.223L97.453 30.7294C97.0553 31.0211 96.7786 31.3094 96.6228 31.5945C96.4703 31.8762 96.3941 32.0966 96.3941 32.2557C96.3941 32.5473 96.4687 32.8175 96.6178 33.0661C96.7703 33.3146 96.9824 33.5135 97.2542 33.6626C97.5293 33.8118 97.8508 33.8864 98.2187 33.8864C98.5965 33.8864 98.9644 33.8052 99.3224 33.6428C99.6836 33.477 100.01 33.2401 100.302 32.9318C100.597 32.6236 100.83 32.254 101.003 31.8232C101.175 31.3923 101.261 30.91 101.261 30.3764H102.604C102.604 31.0327 102.529 31.5878 102.38 32.0419C102.231 32.4927 102.05 32.8606 101.838 33.1456C101.629 33.4273 101.432 33.6477 101.246 33.8068C101.187 33.8598 101.13 33.9129 101.077 33.9659C101.024 34.0189 100.968 34.072 100.908 34.125C100.564 34.473 100.146 34.7299 99.6554 34.8956C99.1682 35.0613 98.6876 35.1442 98.2137 35.1442ZM108.754 35V24.8182H112.383C113.176 24.8182 113.832 24.9624 114.352 25.2507C114.873 25.5391 115.262 25.9335 115.52 26.4339C115.779 26.9311 115.908 27.4912 115.908 28.1143C115.908 28.7408 115.777 29.3042 115.516 29.8047C115.257 30.3018 114.866 30.6963 114.342 30.9879C113.822 31.2763 113.167 31.4205 112.378 31.4205H109.883V30.1179H112.239C112.74 30.1179 113.146 30.0317 113.457 29.8594C113.769 29.6837 113.998 29.4451 114.143 29.1435C114.289 28.8419 114.362 28.4988 114.362 28.1143C114.362 27.7299 114.289 27.3885 114.143 27.0902C113.998 26.7919 113.767 26.5582 113.452 26.3892C113.141 26.2202 112.73 26.1357 112.219 26.1357H110.29V35H108.754ZM121.065 35.1541C120.313 35.1541 119.665 34.9934 119.122 34.6719C118.581 34.3471 118.164 33.8913 117.869 33.3047C117.577 32.7147 117.431 32.0237 117.431 31.2315C117.431 30.4493 117.577 29.7599 117.869 29.1634C118.164 28.5668 118.575 28.1011 119.102 27.7663C119.632 27.4316 120.252 27.2642 120.961 27.2642C121.392 27.2642 121.809 27.3355 122.214 27.478C122.618 27.6205 122.981 27.8442 123.303 28.1491C123.624 28.4541 123.878 28.8501 124.063 29.3374C124.249 29.8213 124.342 30.4096 124.342 31.1023V31.6293H118.271V30.5156H122.885C122.885 30.1245 122.805 29.7782 122.646 29.4766C122.487 29.1716 122.264 28.9313 121.975 28.7557C121.69 28.58 121.355 28.4922 120.971 28.4922C120.553 28.4922 120.189 28.5949 119.877 28.8004C119.569 29.0026 119.33 29.2678 119.161 29.5959C118.996 29.9207 118.913 30.2737 118.913 30.6548V31.5249C118.913 32.0353 119.002 32.4695 119.181 32.8274C119.363 33.1854 119.617 33.4588 119.942 33.6477C120.267 33.8333 120.646 33.9261 121.08 33.9261C121.362 33.9261 121.619 33.8864 121.851 33.8068C122.083 33.724 122.283 33.6013 122.452 33.4389C122.622 33.2765 122.751 33.076 122.84 32.8374L124.247 33.0909C124.135 33.5052 123.932 33.8681 123.641 34.1797C123.352 34.4879 122.989 34.7282 122.552 34.9006C122.118 35.0696 121.622 35.1541 121.065 35.1541ZM127.758 30.4659V35H126.271V27.3636H127.698V28.6065H127.792C127.968 28.2022 128.243 27.8774 128.618 27.6321C128.995 27.3868 129.471 27.2642 130.044 27.2642C130.565 27.2642 131.021 27.3736 131.412 27.5923C131.803 27.8078 132.106 28.1293 132.321 28.5568C132.537 28.9844 132.645 29.513 132.645 30.1428V35H131.158V30.3217C131.158 29.7682 131.014 29.3357 130.726 29.0241C130.437 28.7093 130.041 28.5518 129.537 28.5518C129.193 28.5518 128.886 28.6264 128.618 28.7756C128.352 28.9247 128.142 29.1435 127.986 29.4318C127.834 29.7169 127.758 30.0616 127.758 30.4659ZM140.64 29.228L139.293 29.4666C139.237 29.2943 139.147 29.1302 139.025 28.9744C138.905 28.8187 138.743 28.6911 138.538 28.5916C138.332 28.4922 138.075 28.4425 137.767 28.4425C137.346 28.4425 136.995 28.5369 136.713 28.7259C136.431 28.9115 136.29 29.1518 136.29 29.4467C136.29 29.7019 136.385 29.9074 136.574 30.0632C136.763 30.219 137.068 30.3466 137.489 30.446L138.702 30.7244C139.404 30.8868 139.928 31.1371 140.273 31.4751C140.617 31.8132 140.79 32.2524 140.79 32.7926C140.79 33.25 140.657 33.6577 140.392 34.0156C140.13 34.3703 139.764 34.6487 139.293 34.8509C138.826 35.053 138.284 35.1541 137.667 35.1541C136.812 35.1541 136.115 34.9718 135.574 34.6072C135.034 34.2393 134.703 33.7173 134.58 33.0412L136.017 32.8224C136.106 33.197 136.29 33.4804 136.569 33.6726C136.847 33.8615 137.21 33.956 137.658 33.956C138.145 33.956 138.534 33.8549 138.826 33.6527C139.118 33.4472 139.263 33.197 139.263 32.902C139.263 32.6634 139.174 32.4628 138.995 32.3004C138.819 32.138 138.549 32.0154 138.185 31.9325L136.892 31.6491C136.179 31.4867 135.652 31.2282 135.311 30.8736C134.973 30.5189 134.804 30.0698 134.804 29.5263C134.804 29.0755 134.93 28.6811 135.182 28.343C135.434 28.005 135.782 27.7415 136.226 27.5526C136.67 27.3603 137.179 27.2642 137.752 27.2642C138.577 27.2642 139.227 27.4432 139.701 27.8011C140.175 28.1558 140.488 28.6314 140.64 29.228ZM142.704 35V27.3636H144.191V35H142.704ZM143.455 26.1854C143.196 26.1854 142.974 26.0992 142.789 25.9268C142.606 25.7512 142.515 25.5424 142.515 25.3004C142.515 25.0552 142.606 24.8464 142.789 24.674C142.974 24.4983 143.196 24.4105 143.455 24.4105C143.713 24.4105 143.934 24.4983 144.116 24.674C144.302 24.8464 144.394 25.0552 144.394 25.3004C144.394 25.5424 144.302 25.7512 144.116 25.9268C143.934 26.0992 143.713 26.1854 143.455 26.1854ZM149.687 35.1541C148.971 35.1541 148.346 34.9901 147.813 34.6619C147.279 34.3338 146.865 33.8748 146.57 33.2848C146.275 32.6948 146.127 32.0054 146.127 31.2166C146.127 30.4245 146.275 29.7318 146.57 29.1385C146.865 28.5452 147.279 28.0845 147.813 27.7564C148.346 27.4283 148.971 27.2642 149.687 27.2642C150.403 27.2642 151.028 27.4283 151.561 27.7564C152.095 28.0845 152.509 28.5452 152.804 29.1385C153.099 29.7318 153.247 30.4245 153.247 31.2166C153.247 32.0054 153.099 32.6948 152.804 33.2848C152.509 33.8748 152.095 34.3338 151.561 34.6619C151.028 34.9901 150.403 35.1541 149.687 35.1541ZM149.692 33.9062C150.156 33.9062 150.54 33.7836 150.845 33.5384C151.15 33.2931 151.376 32.9666 151.522 32.5589C151.671 32.1513 151.745 31.7022 151.745 31.2116C151.745 30.7244 151.671 30.277 151.522 29.8693C151.376 29.4583 151.15 29.1286 150.845 28.88C150.54 28.6314 150.156 28.5071 149.692 28.5071C149.225 28.5071 148.837 28.6314 148.529 28.88C148.224 29.1286 147.997 29.4583 147.848 29.8693C147.702 30.277 147.629 30.7244 147.629 31.2116C147.629 31.7022 147.702 32.1513 147.848 32.5589C147.997 32.9666 148.224 33.2931 148.529 33.5384C148.837 33.7836 149.225 33.9062 149.692 33.9062ZM156.672 30.4659V35H155.186V27.3636H156.613V28.6065H156.707C156.883 28.2022 157.158 27.8774 157.533 27.6321C157.91 27.3868 158.386 27.2642 158.959 27.2642C159.48 27.2642 159.935 27.3736 160.327 27.5923C160.718 27.8078 161.021 28.1293 161.236 28.5568C161.452 28.9844 161.56 29.513 161.56 30.1428V35H160.073V30.3217C160.073 29.7682 159.929 29.3357 159.64 29.0241C159.352 28.7093 158.956 28.5518 158.452 28.5518C158.108 28.5518 157.801 28.6264 157.533 28.7756C157.267 28.9247 157.057 29.1435 156.901 29.4318C156.749 29.7169 156.672 30.0616 156.672 30.4659Z" fill="#928C99"/>
</svg>
