<svg width="390" height="346" viewBox="0 0 390 346" fill="none" xmlns="http://www.w3.org/2000/svg">
<path d="M275.41 312.9H200.94V313.15H275.41V312.9Z" fill="#EBEBEB"/>
<path d="M113.53 213.26H58.9499L55.6399 175.03H110.22L113.53 213.26Z" fill="#E6E6E6"/>
<path d="M116.36 213.26H61.78L58.46 175.03H113.04L116.36 213.26Z" fill="#F0F0F0"/>
<path d="M69.2399 205.05L67.4199 183.24H105.58L107.4 205.05H69.2399Z" fill="white"/>
<path d="M148.5 213.26H140.71V299.99H148.5V213.26Z" fill="#E6E6E6"/>
<path d="M150.95 213.26H145.54V299.99H150.95V213.26Z" fill="#F0F0F0"/>
<path d="M75.5399 222.83H150.95V213.26H75.5399V222.83Z" fill="#F0F0F0"/>
<path d="M78.2099 222.83H70.4199V299.99H78.2099V222.83Z" fill="#E6E6E6"/>
<path d="M80.67 222.83H75.26V299.99H80.67V222.83Z" fill="#F0F0F0"/>
<path d="M22.75 222.83H14.96V299.99H22.75V222.83Z" fill="#E6E6E6"/>
<path d="M25.2098 222.83H19.7998V299.99H25.2098V222.83Z" fill="#F0F0F0"/>
<path d="M99.1899 222.83H91.3999V299.99H99.1899V222.83Z" fill="#E6E6E6"/>
<path d="M101.65 222.83H96.24V299.99H101.65V222.83Z" fill="#F0F0F0"/>
<path d="M75.54 213.26H14.96V222.83H75.54V213.26Z" fill="#E6E6E6"/>
<path d="M239.13 0.00976562H12.8999V129.79H239.13V0.00976562Z" fill="#E6E6E6"/>
<path d="M245.17 0.00976562H15.72V129.79H245.17V0.00976562Z" fill="#F0F0F0"/>
<path d="M239.13 129.79H12.8999V141.03H239.13V129.79Z" fill="#E6E6E6"/>
<path d="M255.24 129.79H25.7898V141.03H255.24V129.79Z" fill="#F0F0F0"/>
<path d="M236.7 121.32V8.47021L24.1799 8.47021V121.32L236.7 121.32Z" fill="#FAFAFA"/>
<path d="M39.7998 121.32L89.4798 8.47021H112.94L63.2498 121.32H39.7998Z" fill="white"/>
<path d="M28.11 112.9C28.0299 112.9 27.9506 112.884 27.8766 112.853C27.8026 112.823 27.7353 112.778 27.6787 112.721C27.622 112.665 27.5771 112.597 27.5464 112.523C27.5158 112.449 27.5 112.37 27.5 112.29V13.9798C27.5189 13.8327 27.5908 13.6976 27.7022 13.5997C27.8135 13.5018 27.9567 13.4478 28.105 13.4478C28.2533 13.4478 28.3965 13.5018 28.5078 13.5997C28.6192 13.6976 28.6911 13.8327 28.71 13.9798V112.29C28.71 112.45 28.6471 112.604 28.5349 112.718C28.4226 112.832 28.27 112.897 28.11 112.9Z" fill="#F0F0F0"/>
<path d="M68.2898 121.32L117.98 8.47021H127.12L77.4398 121.32H68.2898Z" fill="white"/>
<path d="M236.7 121.32V8.47021H235.62V121.32H236.7Z" fill="#E6E6E6"/>
<path opacity="0.6" d="M247.17 21.2398H20.9399L20.1699 11.7598H246.39L247.17 21.2398Z" fill="#EBEBEB"/>
<path opacity="0.6" d="M247.17 36.7698H20.9399L20.1699 27.2998H246.39L247.17 36.7698Z" fill="#EBEBEB"/>
<path opacity="0.6" d="M247.17 52.3098H20.9399L20.1699 42.8398H246.39L247.17 52.3098Z" fill="#EBEBEB"/>
<path opacity="0.6" d="M247.17 67.8501H20.9399L20.1699 58.3701H246.39L247.17 67.8501Z" fill="#EBEBEB"/>
<path opacity="0.6" d="M247.17 83.3902H20.9399L20.1699 73.9102H246.39L247.17 83.3902Z" fill="#EBEBEB"/>
<path opacity="0.6" d="M247.17 98.9202H20.9399L20.1699 89.4502H246.39L247.17 98.9202Z" fill="#EBEBEB"/>
<path d="M309.31 60.9199L370.23 60.9199V-7.62939e-05L309.31 -7.62939e-05V60.9199Z" fill="#EBEBEB"/>
<path d="M309.31 0.00976562H306.61V60.9298H309.31V0.00976562Z" fill="#E0E0E0"/>
<path d="M317.57 52.6699L361.98 52.6699V8.25992L317.57 8.25992V52.6699Z" fill="white"/>
<path d="M339.772 45.3248L354.636 30.4614L339.772 15.598L324.909 30.4614L339.772 45.3248Z" fill="#F5F5F5"/>
<path d="M288.32 141.02H349.24V80.1H288.32V141.02Z" fill="#EBEBEB"/>
<path d="M288.32 80.1099H285.62V141.03H288.32V80.1099Z" fill="#E0E0E0"/>
<path d="M296.58 132.77H340.99V88.36H296.58V132.77Z" fill="white"/>
<path d="M315.62 120.03H321.94C325.425 120.03 328.25 117.205 328.25 113.72V107.4C328.25 103.915 325.425 101.09 321.94 101.09H315.62C312.135 101.09 309.31 103.915 309.31 107.4V113.72C309.31 117.205 312.135 120.03 315.62 120.03Z" fill="#F5F5F5"/>
<path d="M251.61 170.62H236.42V295.9H251.61V170.62Z" fill="#F0F0F0"/>
<path d="M384.39 295.9H238.53V299.99H384.39V295.9Z" fill="#F0F0F0"/>
<path d="M251.61 295.9H386.49V170.62H251.61L251.61 295.9Z" fill="#FAFAFA"/>
<path d="M360.09 243.83H278.02C274.145 243.83 270.429 242.291 267.689 239.551C264.949 236.811 263.41 233.095 263.41 229.22C263.41 225.345 264.949 221.629 267.689 218.889C270.429 216.149 274.145 214.61 278.02 214.61H360.09C363.965 214.61 367.681 216.149 370.421 218.889C373.161 221.629 374.7 225.345 374.7 229.22C374.7 233.095 373.161 236.811 370.421 239.551C367.681 242.291 363.965 243.83 360.09 243.83ZM278.02 215.59C274.405 215.59 270.938 217.026 268.382 219.582C265.826 222.138 264.39 225.605 264.39 229.22C264.39 232.835 265.826 236.302 268.382 238.858C270.938 241.414 274.405 242.85 278.02 242.85H360.09C363.705 242.85 367.172 241.414 369.728 238.858C372.284 236.302 373.72 232.835 373.72 229.22C373.72 225.605 372.284 222.138 369.728 219.582C367.172 217.026 363.705 215.59 360.09 215.59H278.02Z" fill="#F0F0F0"/>
<path d="M360.09 280.18H278.02C274.145 280.18 270.429 278.641 267.689 275.901C264.949 273.161 263.41 269.445 263.41 265.57C263.41 261.695 264.949 257.979 267.689 255.239C270.429 252.499 274.145 250.96 278.02 250.96H360.09C363.965 250.96 367.681 252.499 370.421 255.239C373.161 257.979 374.7 261.695 374.7 265.57C374.7 269.445 373.161 273.161 370.421 275.901C367.681 278.641 363.965 280.18 360.09 280.18ZM278.02 251.94C276.2 251.891 274.388 252.207 272.692 252.869C270.995 253.532 269.449 254.527 268.144 255.797C266.839 257.068 265.802 258.586 265.094 260.264C264.386 261.941 264.021 263.744 264.021 265.565C264.021 267.386 264.386 269.188 265.094 270.866C265.802 272.544 266.839 274.062 268.144 275.332C269.449 276.603 270.995 277.598 272.692 278.261C274.388 278.923 276.2 279.239 278.02 279.19H360.09C361.91 279.239 363.722 278.923 365.418 278.261C367.114 277.598 368.661 276.603 369.966 275.332C371.271 274.062 372.308 272.544 373.016 270.866C373.724 269.188 374.089 267.386 374.089 265.565C374.089 263.744 373.724 261.941 373.016 260.264C372.308 258.586 371.271 257.068 369.966 255.797C368.661 254.527 367.114 253.532 365.418 252.869C363.722 252.207 361.91 251.891 360.09 251.94H278.02Z" fill="#F0F0F0"/>
<path d="M331.44 226.07H306.67C305.871 226.055 305.109 225.727 304.548 225.157C303.988 224.587 303.672 223.82 303.67 223.02C303.672 222.221 303.988 221.454 304.548 220.884C305.109 220.314 305.871 219.986 306.67 219.97H331.44C332.248 219.973 333.022 220.295 333.594 220.866C334.165 221.438 334.487 222.212 334.49 223.02C334.487 223.828 334.165 224.603 333.594 225.174C333.022 225.745 332.248 226.068 331.44 226.07Z" fill="#EBEBEB"/>
<path d="M360.09 207.48H278.02C274.145 207.48 270.429 205.94 267.689 203.201C264.949 200.461 263.41 196.745 263.41 192.87C263.41 188.995 264.949 185.279 267.689 182.539C270.429 179.799 274.145 178.26 278.02 178.26H360.09C363.965 178.26 367.681 179.799 370.421 182.539C373.161 185.279 374.7 188.995 374.7 192.87C374.7 196.745 373.161 200.461 370.421 203.201C367.681 205.94 363.965 207.48 360.09 207.48ZM278.02 179.24C274.405 179.24 270.938 180.676 268.382 183.232C265.826 185.788 264.39 189.255 264.39 192.87C264.39 196.485 265.826 199.952 268.382 202.508C270.938 205.064 274.405 206.5 278.02 206.5H360.09C363.705 206.5 367.172 205.064 369.728 202.508C372.284 199.952 373.72 196.485 373.72 192.87C373.72 189.255 372.284 185.788 369.728 183.232C367.172 180.676 363.705 179.24 360.09 179.24H278.02Z" fill="#F0F0F0"/>
<path d="M331.44 189.72H306.67C305.871 189.704 305.109 189.376 304.548 188.806C303.988 188.236 303.672 187.469 303.67 186.67C303.683 185.878 304.003 185.123 304.563 184.563C305.123 184.003 305.878 183.683 306.67 183.67H331.44C332.239 183.672 333.006 183.988 333.576 184.548C334.146 185.109 334.474 185.871 334.49 186.67C334.487 187.478 334.165 188.252 333.594 188.824C333.022 189.395 332.248 189.717 331.44 189.72Z" fill="#EBEBEB"/>
<path d="M331.44 262.41H306.67C305.878 262.397 305.123 262.077 304.563 261.517C304.003 260.957 303.683 260.202 303.67 259.41C303.685 258.619 304.006 257.865 304.566 257.306C305.125 256.747 305.879 256.426 306.67 256.41H331.44C332.239 256.413 333.006 256.728 333.576 257.289C334.146 257.849 334.474 258.611 334.49 259.41C334.474 260.21 334.146 260.971 333.576 261.532C333.006 262.092 332.239 262.408 331.44 262.41Z" fill="#EBEBEB"/>
<path d="M389.27 164.26H251.62V170.63H389.27V164.26Z" fill="#F0F0F0"/>
<path d="M233.44 170.62H251.61V164.25H233.44V170.62Z" fill="#E6E6E6"/>
<path d="M193.89 345.15C300.972 345.15 387.78 340.082 387.78 333.83C387.78 327.578 300.972 322.51 193.89 322.51C86.8075 322.51 0 327.578 0 333.83C0 340.082 86.8075 345.15 193.89 345.15Z" fill="#F5F5F5"/>
<path d="M357.53 65.8198H206.81C206.81 65.8198 179.66 90.8198 179.66 151.6C179.66 203.87 200.25 274.74 192.52 303.75C186.69 325.64 158.42 329.4 144.87 329.92H288.33C288.33 329.92 335.51 332.77 343.24 303.75C350.97 274.73 330.38 203.87 330.38 151.59C330.38 90.7798 357.53 65.8198 357.53 65.8198Z" fill="#389396"/>
<path opacity="0.7" d="M357.53 65.8198H206.81C206.81 65.8198 179.66 90.8198 179.66 151.6C179.66 203.87 200.25 274.74 192.52 303.75C186.69 325.64 158.42 329.4 144.87 329.92H288.33C288.33 329.92 335.51 332.77 343.24 303.75C350.97 274.73 330.38 203.87 330.38 151.59C330.38 90.7798 357.53 65.8198 357.53 65.8198Z" fill="white"/>
<g opacity="0.8">
<path opacity="0.8" d="M316.53 129.92H195.99C199.4 103.18 208.59 87.6198 213.66 80.8198H329.89C324.19 92.7198 318.81 108.93 316.53 129.92Z" fill="#389396"/>
<path opacity="0.3" d="M315.52 144.1H194.81C194.91 141.67 195.05 139.31 195.25 137.03H315.89C315.723 139.33 315.6 141.686 315.52 144.1Z" fill="#389396"/>
<path opacity="0.3" d="M232.66 158.27H194.77C194.703 156.01 194.667 153.787 194.66 151.6V151.21H232.56V151.59C232.56 153.8 232.59 156.03 232.66 158.27Z" fill="#389396"/>
<path opacity="0.3" d="M316.24 172.44H195.62C195.41 170.06 195.24 167.7 195.11 165.38H315.78C315.9 167.72 316.053 170.073 316.24 172.44Z" fill="#389396"/>
<path opacity="0.3" d="M317.57 186.59H197.05C196.77 184.223 196.51 181.867 196.27 179.52H316.89C317.06 181.9 317.31 184.26 317.57 186.59Z" fill="#389396"/>
<path opacity="0.3" d="M319.31 200.79H198.89C198.56 198.43 198.25 196.07 197.95 193.73H318.41C318.69 196.083 318.99 198.437 319.31 200.79Z" fill="#389396"/>
<path opacity="0.3" d="M321.3 214.96H200.89C200.543 212.6 200.21 210.247 199.89 207.9H320.29C320.62 210.25 320.96 212.59 321.3 214.96Z" fill="#389396"/>
<path opacity="0.3" d="M323.43 229.14H203.06C202.87 227.85 202.67 226.54 202.47 225.23L201.99 222.07H322.36C322.72 224.43 323.07 226.79 323.43 229.14Z" fill="#389396"/>
<path opacity="0.3" d="M205.16 243.31C204.827 240.977 204.493 238.623 204.16 236.25H324.51C324.86 238.61 325.22 240.96 325.56 243.31H205.16Z" fill="#389396"/>
<path opacity="0.3" d="M207.07 257.48C206.79 255.17 206.48 252.81 206.16 250.42H306.56C306.9 252.8 307.22 255.16 307.56 257.48H207.07Z" fill="#389396"/>
<path opacity="0.3" d="M208.55 271.66C208.357 269.353 208.137 266.997 207.89 264.59H328.41C328.68 267.01 328.93 269.37 329.14 271.66H208.55Z" fill="#389396"/>
<path opacity="0.3" d="M209.24 285.83C209.24 283.55 209.15 281.19 209.02 278.77H272.61C272.77 281.24 272.86 283.6 272.89 285.83H209.24Z" fill="#389396"/>
</g>
<path d="M299.89 322.27C292.24 323.66 284.49 322.6 276.8 322.27C273.112 322.031 269.41 322.129 265.74 322.56C262.14 323.04 258.56 323.98 254.93 323.66C256.13 323.016 257.259 322.248 258.3 321.37C258.346 321.325 258.38 321.268 258.397 321.205C258.414 321.143 258.415 321.077 258.399 321.014C258.382 320.951 258.35 320.894 258.305 320.847C258.259 320.801 258.202 320.767 258.14 320.75C246.85 316.75 236.57 327.57 225.32 325.05C228.51 322.69 233 322.64 235.72 319.54C235.77 319.486 235.804 319.419 235.817 319.347C235.83 319.275 235.822 319.2 235.793 319.132C235.764 319.065 235.717 319.006 235.656 318.965C235.595 318.924 235.524 318.901 235.45 318.9C225.39 318.7 215.89 322.59 205.89 323.48C205.41 323.48 205.41 324.27 205.89 324.23C215.54 323.39 224.79 319.7 234.52 319.62C231.61 322.22 227.17 322.31 224.21 324.93C224.164 324.977 224.131 325.034 224.114 325.097C224.097 325.16 224.096 325.227 224.113 325.29C224.129 325.353 224.161 325.412 224.206 325.459C224.251 325.506 224.308 325.541 224.37 325.56C235.71 328.69 246.03 317.87 257.23 321.21C256.062 322.127 254.79 322.902 253.44 323.52C253.377 323.558 253.326 323.614 253.294 323.68C253.262 323.747 253.25 323.821 253.26 323.894C253.269 323.968 253.3 324.036 253.348 324.092C253.396 324.148 253.459 324.189 253.53 324.21C257.22 324.83 260.83 324.04 264.47 323.46C268.546 322.875 272.671 322.714 276.78 322.98C284.55 323.35 292.35 324.4 300.07 322.98C300.58 322.91 300.38 322.18 299.89 322.27Z" fill="#389396"/>
<path d="M95.7698 102.72C96.3998 103.53 97.2098 104.48 97.9498 105.36C98.6898 106.24 99.4998 107.13 100.3 107.99C101.91 109.71 103.54 111.4 105.3 112.99C108.564 116.089 112.271 118.684 116.3 120.69C116.79 120.91 117.3 121.11 117.75 121.29C117.972 121.379 118.199 121.455 118.43 121.52C118.643 121.605 118.864 121.668 119.09 121.71C120.05 121.957 121.031 122.111 122.02 122.17C124.234 122.278 126.453 122.15 128.64 121.79C130.963 121.436 133.263 120.948 135.53 120.33C137.83 119.73 140.18 118.99 142.37 118.22L144.37 122.22C139.924 124.999 135.111 127.14 130.07 128.58C127.412 129.341 124.672 129.781 121.91 129.89C120.414 129.95 118.916 129.853 117.44 129.6C117.06 129.54 116.67 129.45 116.29 129.36C115.91 129.27 115.51 129.17 115.18 129.06C114.48 128.85 113.8 128.62 113.18 128.36C108.09 126.267 103.406 123.299 99.3398 119.59C97.3556 117.871 95.463 116.048 93.6698 114.13C92.7798 113.13 91.9098 112.2 91.0698 111.2C90.2298 110.2 89.4298 109.2 88.5598 108.05L95.7698 102.72Z" fill="#FFB573"/>
<path d="M85.5998 99.8901C85.3798 105.49 87.5998 115.59 87.5998 115.59L101.46 113.91C101.46 113.91 101.97 99.1301 99.2798 95.5601C94.7298 89.5901 85.8098 94.5901 85.5998 99.8901Z" fill="#FFE779"/>
<path d="M140.51 119.64L147 113.7L147.83 120.1C147.83 120.1 145.14 123.71 142.09 122.19L140.51 119.64Z" fill="#FFB573"/>
<path d="M150.26 114.05L153.01 117.65L147.83 120.1L147 113.7L150.26 114.05Z" fill="#FFB573"/>
<path d="M148.62 97.86C149.31 97.86 149.69 97.86 150.18 97.86C150.39 97.8455 150.6 97.8455 150.81 97.86L151.33 97.93C151.779 97.9827 152.206 98.1516 152.57 98.42C152.747 98.6283 152.864 98.8805 152.91 99.15L153.14 99.91L154.07 102.91L155.93 108.98L159.64 121.13C162.09 129.23 164.64 137.31 167 145.43C171.85 161.65 176.44 177.93 180.95 194.24C185.46 210.55 189.7 226.93 194.06 243.24C198.42 259.55 202.32 276.05 203.71 293.17C203.76 294.315 203.416 295.442 202.734 296.363C202.053 297.284 201.076 297.943 199.967 298.23C198.858 298.517 197.684 298.414 196.641 297.939C195.599 297.464 194.751 296.645 194.24 295.62C187.14 279.98 182.5 263.71 178.44 247.29C174.38 230.87 170.07 214.59 166.09 198.18C162.11 181.77 158.22 165.27 154.58 148.74C152.71 140.49 151.01 132.19 149.22 123.92L146.57 111.5L145.24 105.29L144.58 102.18L144.41 101.41C144.319 101.15 144.298 100.871 144.35 100.6C144.544 100.203 144.833 99.8601 145.19 99.6L145.62 99.28C145.785 99.1542 145.959 99.0406 146.14 98.94C146.57 98.69 146.88 98.48 147.5 98.18C147.849 98.0011 148.229 97.8924 148.62 97.86Z" fill="#263238"/>
<path d="M202.75 295.75C202.675 295.48 202.497 295.249 202.254 295.109C202.01 294.969 201.722 294.93 201.45 295L199.25 295.57L197.05 296.14C196.778 296.211 196.545 296.386 196.4 296.627C196.256 296.869 196.213 297.157 196.28 297.43C197.65 303.73 196.28 308.24 197.74 313.78C199.25 319.61 205.82 322.6 205.82 322.6L205.61 320.11L206.61 322.39C206.61 322.39 210.9 316.59 209.39 310.76C207.97 305.22 204.61 301.92 202.75 295.75Z" fill="#F8AB5D"/>
<path opacity="0.3" d="M202.501 295.784C202.426 295.514 202.247 295.283 202.004 295.143C201.761 295.003 201.472 294.964 201.201 295.034L199.001 295.604L196.801 296.174C196.529 296.245 196.295 296.42 196.151 296.661C196.007 296.903 195.964 297.191 196.031 297.464C197.401 303.764 196.031 308.274 197.491 313.814C199.001 319.644 205.571 322.634 205.571 322.634L205.361 320.144L206.361 322.424C206.361 322.424 210.651 316.624 209.141 310.794C207.721 305.254 204.361 301.954 202.501 295.784Z" fill="white"/>
<path d="M204.46 310.21C204.524 310.473 204.51 310.748 204.418 311.003C204.326 311.257 204.161 311.479 203.944 311.639C203.726 311.8 203.466 311.893 203.196 311.906C202.926 311.919 202.658 311.852 202.426 311.713C202.194 311.574 202.008 311.369 201.892 311.125C201.776 310.881 201.735 310.608 201.774 310.34C201.813 310.072 201.93 309.822 202.111 309.621C202.292 309.42 202.528 309.277 202.79 309.21C203.144 309.122 203.518 309.178 203.831 309.365C204.144 309.553 204.37 309.857 204.46 310.21Z" fill="#263238"/>
<path d="M205.69 320.41C205.651 320.422 205.609 320.426 205.568 320.421C205.527 320.417 205.488 320.403 205.452 320.383C205.416 320.362 205.385 320.334 205.361 320.301C205.336 320.268 205.319 320.23 205.31 320.19L202.83 310.64C202.819 310.601 202.817 310.56 202.822 310.519C202.827 310.479 202.841 310.44 202.861 310.404C202.882 310.369 202.909 310.338 202.941 310.313C202.974 310.289 203.011 310.271 203.05 310.26C203.089 310.248 203.131 310.244 203.172 310.249C203.213 310.254 203.252 310.267 203.288 310.287C203.323 310.308 203.354 310.336 203.379 310.369C203.403 310.402 203.421 310.44 203.43 310.48L205.91 320.03C205.92 320.07 205.923 320.111 205.918 320.151C205.913 320.192 205.899 320.23 205.879 320.266C205.858 320.301 205.831 320.332 205.799 320.357C205.766 320.382 205.729 320.4 205.69 320.41Z" fill="#263238"/>
<path d="M197.59 261.41L184.11 264.9C183.736 264.994 183.34 264.937 183.009 264.74C182.677 264.543 182.437 264.223 182.34 263.85C182.244 263.483 182.295 263.093 182.481 262.762C182.668 262.432 182.976 262.187 183.34 262.08L196.89 258.59C197.257 258.494 197.647 258.545 197.978 258.731C198.308 258.918 198.553 259.226 198.66 259.59C198.712 259.78 198.726 259.978 198.701 260.173C198.675 260.369 198.61 260.557 198.51 260.727C198.411 260.896 198.278 261.044 198.12 261.162C197.961 261.279 197.781 261.364 197.59 261.41Z" fill="#F8AB5D"/>
<path d="M129.16 78.3898C128.92 78.9898 129.05 79.6198 129.44 79.7898C129.83 79.9598 130.35 79.6098 130.59 79.0098C130.83 78.4098 130.71 77.7798 130.31 77.6098C129.91 77.4398 129.41 77.7898 129.16 78.3898Z" fill="#263238"/>
<path d="M130.13 77.5898L131.74 77.7999C131.74 77.7999 130.54 78.5898 130.13 77.5898Z" fill="#263238"/>
<path d="M129.44 79.1899C129.424 80.7997 129.626 82.4042 130.04 83.9599C129.641 84.045 129.229 84.0417 128.831 83.9501C128.434 83.8586 128.061 83.681 127.74 83.4299L129.44 79.1899Z" fill="#ED893E"/>
<path d="M131.58 74.7302C131.517 74.7182 131.459 74.6907 131.41 74.6502C131.05 74.3213 130.619 74.0799 130.151 73.9446C129.683 73.8093 129.19 73.7839 128.71 73.8702C128.612 73.8949 128.508 73.8805 128.42 73.8302C128.333 73.7798 128.268 73.6973 128.24 73.6002C128.215 73.5021 128.229 73.3983 128.28 73.3106C128.33 73.2229 128.413 73.1582 128.51 73.1302C129.111 73.0111 129.731 73.0341 130.321 73.1973C130.912 73.3605 131.456 73.6594 131.91 74.0702C131.946 74.1055 131.974 74.1476 131.993 74.1939C132.013 74.2403 132.022 74.29 132.022 74.3402C132.022 74.3904 132.013 74.4401 131.993 74.4865C131.974 74.5328 131.946 74.5749 131.91 74.6102C131.869 74.656 131.818 74.6909 131.76 74.7118C131.702 74.7328 131.64 74.7391 131.58 74.7302Z" fill="#263238"/>
<path d="M107.96 78.0801C108.39 82.9501 106.77 90.9201 103.09 93.6301C103.09 93.6301 105.86 98.7501 114.73 99.9401C124.48 101.25 119.9 95.7601 119.9 95.7601C114.71 93.7601 115.27 89.8901 116.58 86.3301L107.96 78.0801Z" fill="#FFB573"/>
<path d="M134.53 104.07C135.3 108.61 136.25 113.32 137.24 117.91C137.77 120.2 138.3 122.5 138.92 124.75C139.54 127 140.16 129.25 140.85 131.46C141.23 132.55 141.57 133.66 141.97 134.72L142.57 136.32L142.71 136.71V136.83C142.73 136.891 142.753 136.951 142.78 137.01C142.986 137.366 143.323 137.628 143.72 137.74C144.511 138.022 145.341 138.18 146.18 138.21C148.326 138.269 150.472 138.095 152.58 137.69C154.79 137.29 157.12 136.75 159.29 136.15L161.12 140.2C160.017 140.856 158.882 141.457 157.72 142C156.571 142.563 155.393 143.064 154.19 143.5C151.672 144.483 149.03 145.116 146.34 145.38C144.759 145.523 143.166 145.415 141.62 145.06C139.638 144.608 137.854 143.532 136.53 141.99C136.187 141.576 135.88 141.134 135.61 140.67C135.47 140.44 135.36 140.2 135.24 139.97L135.05 139.52L134.27 137.77C133.76 136.6 133.27 135.43 132.84 134.25C131.98 131.89 131.16 129.52 130.45 127.14C129.74 124.76 129.1 122.36 128.45 119.96C127.26 115.14 126.29 110.37 125.57 105.38L134.53 104.07Z" fill="#FFB573"/>
<path d="M158.33 136.43L162.19 133.37L163.93 139.31C163.93 139.31 158.65 143.13 157.24 138.64L158.33 136.43Z" fill="#FFB573"/>
<path d="M165.68 134.42L167.06 138.76L163.93 139.31L162.2 133.37L165.68 134.42Z" fill="#FFB573"/>
<path d="M93.5598 325L101.63 325.6L104.02 307.07L95.9498 306.47L93.5598 325Z" fill="#FFB573"/>
<path d="M41.8799 301.46L48.8699 305.71L60.4999 291.19L53.5099 286.94L41.8799 301.46Z" fill="#FFB573"/>
<path d="M53.75 307.85C53.6506 307.865 53.5495 307.865 53.45 307.85C52.45 307.85 51.26 306.29 50.66 305.37C50.638 305.339 50.6262 305.302 50.6262 305.265C50.6262 305.227 50.638 305.19 50.66 305.16C50.6793 305.128 50.7076 305.102 50.7414 305.086C50.7752 305.07 50.813 305.064 50.85 305.07C51.18 305.14 54.07 305.75 54.45 306.71C54.4908 306.816 54.503 306.931 54.4854 307.043C54.4679 307.155 54.4212 307.261 54.35 307.35C54.2158 307.583 54.0031 307.76 53.75 307.85ZM51.25 305.58C52.1 306.78 52.91 307.49 53.46 307.5C53.5798 307.501 53.6977 307.47 53.8014 307.41C53.9052 307.351 53.991 307.264 54.05 307.16C54.0767 307.118 54.0909 307.069 54.0909 307.02C54.0909 306.97 54.0767 306.922 54.05 306.88C53.89 306.37 52.4 305.86 51.25 305.59V305.58Z" fill="#FFE779"/>
<path d="M53.3198 305.35C52.489 305.576 51.6193 305.62 50.7698 305.48C50.7382 305.469 50.7097 305.451 50.687 305.426C50.6643 305.402 50.6481 305.372 50.6398 305.34C50.624 305.313 50.6157 305.282 50.6157 305.25C50.6157 305.218 50.624 305.187 50.6398 305.16C50.6998 305.09 52.2898 303.46 53.4598 303.51C53.6109 303.512 53.7595 303.548 53.8946 303.615C54.0297 303.683 54.1477 303.78 54.2398 303.9C54.3481 304.006 54.417 304.147 54.4352 304.297C54.4533 304.448 54.4197 304.601 54.3398 304.73C54.0753 305.041 53.7176 305.258 53.3198 305.35ZM51.2198 305.17C52.2198 305.28 53.7598 304.99 54.0698 304.53C54.0698 304.45 54.1498 304.34 53.9898 304.14C53.9308 304.063 53.8552 304.001 53.7686 303.957C53.682 303.914 53.5867 303.891 53.4898 303.89C52.6187 304.071 51.8255 304.518 51.2198 305.17Z" fill="#FFE779"/>
<path d="M50.9699 304.15L44.3399 297.77C44.2303 297.657 44.0831 297.589 43.9264 297.578C43.7696 297.567 43.6143 297.614 43.4899 297.71L37.8299 302.07C37.6935 302.191 37.5843 302.339 37.5095 302.506C37.4347 302.672 37.396 302.852 37.396 303.035C37.396 303.217 37.4347 303.397 37.5095 303.564C37.5843 303.73 37.6935 303.879 37.8299 304C40.1799 306.19 41.4199 307.13 44.3299 309.94C46.1299 311.67 48.5699 314.37 51.0499 316.76C53.5299 319.15 55.9499 316.89 55.1299 315.68C51.4299 310.26 51.9799 308.23 51.6499 305.46C51.5793 304.958 51.3394 304.496 50.9699 304.15Z" fill="#263238"/>
<path d="M105.13 325.86C104.276 325.844 103.425 325.747 102.59 325.57C102.551 325.562 102.516 325.542 102.489 325.514C102.463 325.485 102.445 325.449 102.44 325.41C102.435 325.37 102.442 325.33 102.459 325.295C102.477 325.259 102.505 325.229 102.54 325.21C102.91 325.02 106.19 323.37 107.15 323.93C107.242 323.977 107.32 324.049 107.374 324.137C107.429 324.225 107.459 324.326 107.46 324.43C107.481 324.603 107.457 324.779 107.393 324.942C107.328 325.104 107.224 325.248 107.09 325.36C106.512 325.743 105.821 325.919 105.13 325.86ZM103.23 325.3C105.01 325.59 106.34 325.52 106.84 325.08C106.928 325.004 106.996 324.908 107.038 324.8C107.08 324.692 107.094 324.575 107.08 324.46C107.083 324.419 107.074 324.379 107.054 324.344C107.035 324.308 107.006 324.279 106.97 324.26C106.43 323.96 104.58 324.66 103.23 325.3Z" fill="#FFE779"/>
<path d="M102.63 325.59C102.594 325.6 102.556 325.6 102.52 325.59C102.49 325.571 102.467 325.544 102.453 325.512C102.439 325.48 102.434 325.445 102.44 325.41C102.44 325.27 102.83 321.97 104.64 321.97H104.79C105.32 322.02 105.47 322.28 105.5 322.5C105.65 323.41 103.69 325.16 102.71 325.6L102.63 325.59ZM104.63 322.32C103.47 322.32 103.01 324.24 102.87 325.06C103.87 324.46 105.2 323.06 105.11 322.54C105.11 322.49 105.11 322.36 104.74 322.33L104.63 322.32Z" fill="#FFE779"/>
<path d="M102.13 324.45H93.0599C92.9029 324.45 92.7508 324.505 92.6301 324.605C92.5095 324.706 92.428 324.846 92.3999 325L91.1799 332.17C91.1556 332.35 91.1701 332.533 91.2223 332.706C91.2745 332.88 91.3633 333.04 91.4827 333.177C91.6021 333.313 91.7492 333.422 91.9143 333.497C92.0794 333.572 92.2586 333.61 92.4399 333.61C95.5999 333.61 97.1299 333.37 101.12 333.37C103.57 333.37 108.64 333.62 112.03 333.62C115.42 333.62 115.69 330.27 114.28 329.97C107.99 328.61 105.55 326.73 103.47 324.97C103.099 324.644 102.624 324.46 102.13 324.45Z" fill="#263238"/>
<path opacity="0.2" d="M104.02 307.07L102.69 317.37L94.71 316.03L95.95 306.48L104.02 307.07Z" fill="black"/>
<path opacity="0.2" d="M53.5 286.94L60.5 291.2L55.68 297.2L48.54 293.13L53.5 286.94Z" fill="black"/>
<path d="M89.49 142.25L122.16 146.64C134.82 100.82 131.09 99.5899 131.09 99.5899C129.65 98.9036 128.163 98.3221 126.64 97.8499C125.1 97.2899 123.543 96.7799 121.97 96.3199C118.827 95.387 115.631 94.6424 112.4 94.0899C106.128 93.0114 99.7534 92.6524 93.4 93.0199C92.7633 93.0644 92.1448 93.252 91.5907 93.5689C91.0366 93.8858 90.5612 94.3236 90.2 94.8499C90.0641 95.0451 89.947 95.2527 89.85 95.4699C89.4945 96.2309 89.3561 97.0752 89.45 97.9099C92.21 121.99 91.32 129.91 89.49 142.25Z" fill="#FFE779"/>
<path opacity="0.2" d="M125.34 113.59C124.697 118.331 125.307 123.158 127.11 127.59C129.28 118.65 130.46 112.59 131.04 108.39C128.55 108.28 125.96 109.24 125.34 113.59Z" fill="black"/>
<path d="M130.8 99.4299C136.4 102.63 140.29 110.26 141.46 114.69L129.54 125.59C129.54 125.59 123.36 111.22 123.86 106.76C124.36 102.3 128.69 98.2199 130.8 99.4299Z" fill="#FFE779"/>
<path d="M109.73 68.0301C107.22 75.6101 106 78.7601 108.2 84.1601C111.52 92.2901 121.35 94.0101 126.07 87.4001C130.32 81.4501 133.71 70.0501 127.66 63.9901C126.389 62.638 124.787 61.641 123.012 61.0974C121.238 60.5538 119.352 60.4824 117.541 60.8904C115.731 61.2983 114.058 62.1714 112.688 63.4235C111.318 64.6756 110.299 66.2634 109.73 68.0301Z" fill="#FFB573"/>
<path d="M122.16 74.75C121.633 76.1404 121.549 77.66 121.92 79.1C122.42 81.1 123.92 81.27 124.85 79.98C125.78 78.69 126.41 76.36 125.41 74.68C124.41 73 122.81 73.22 122.16 74.75Z" fill="#FFB573"/>
<path d="M112.45 58.59C107.05 55.59 97.33 64.37 94.89 78.7C93.14 88.96 115.05 93.92 128.89 93.76C127.97 91.34 122.22 84.06 125.89 77.05C128.56 71.96 131.6 73.14 131.8 67.22C132.05 59.76 122.17 54.76 112.45 58.59Z" fill="#263238"/>
<path d="M124.74 61.8099C131.02 61.1999 137.33 67.3699 132.65 73.5199C131.507 72.6032 130.176 71.9489 128.752 71.6033C127.328 71.2577 125.846 71.2292 124.41 71.5199C121.54 72.1599 124.74 61.8099 124.74 61.8099Z" fill="#263238"/>
<path d="M113.54 145.48C113.54 145.48 100.89 199.1 94.89 229.91C88.63 262.41 58.62 296.27 58.62 296.27L48.46 290.59C48.46 290.59 67.34 259.69 73.46 229.34C85.9 167.74 77.46 155.34 89.46 142.26L113.54 145.48Z" fill="#263238"/>
<path d="M59.6599 297.22L46.9299 290.13L48.7899 286.37L63.0699 292.94L59.6599 297.22Z" fill="#FFE779"/>
<path opacity="0.2" d="M106.79 157.13C96.9298 165.7 97.9998 196.13 99.0298 209.79C103.17 190.31 108.14 168.63 111.03 156.08C110.02 155.3 108.61 155.59 106.79 157.13Z" fill="black"/>
<path d="M121.68 146.66C121.68 146.66 127.39 210.33 124.27 234.61C121.03 259.87 104.55 314.82 104.55 314.82L92.8899 313.32C92.8899 313.32 102.35 258.86 104.03 233.86C105.86 206.59 97.7299 143.45 97.7299 143.45L121.68 146.66Z" fill="#263238"/>
<path d="M107.02 315.49L90.4399 313.35L90.6899 308.45L108.69 310.19L107.02 315.49Z" fill="#FFE779"/>
<path d="M89.2 140.28L87.42 142.99C87.28 143.2 87.53 143.46 87.9 143.51L122.17 148.11C122.47 148.11 122.73 148.04 122.76 147.86L123.37 145C123.37 144.8 123.17 144.59 122.85 144.55L89.76 140.11C89.6599 140.089 89.5562 140.094 89.4583 140.123C89.3605 140.153 89.2716 140.207 89.2 140.28Z" fill="#FFE779"/>
<path opacity="0.5" d="M89.2 140.28L87.42 142.99C87.28 143.2 87.53 143.46 87.9 143.51L122.17 148.11C122.47 148.11 122.73 148.04 122.76 147.86L123.37 145C123.37 144.8 123.17 144.59 122.85 144.55L89.76 140.11C89.6599 140.089 89.5562 140.094 89.4583 140.123C89.3605 140.153 89.2716 140.207 89.2 140.28Z" fill="black"/>
<path d="M93.2598 144.59L92.3698 144.47C92.1898 144.47 92.0698 144.34 92.0898 144.23L92.9098 140.51C92.9098 140.41 93.0998 140.34 93.2698 140.36L94.1598 140.48C94.3398 140.48 94.4598 140.61 94.4398 140.72L93.6198 144.44C93.5998 144.5 93.4298 144.59 93.2598 144.59Z" fill="#263238"/>
<path d="M115.64 147.59L114.75 147.47C114.58 147.47 114.45 147.34 114.47 147.23L115.29 143.51C115.29 143.4 115.48 143.33 115.66 143.36L116.54 143.47C116.72 143.47 116.84 143.61 116.82 143.72L116 147.43C115.98 147.59 115.81 147.59 115.64 147.59Z" fill="#263238"/>
<path d="M232.203 109.734L231.188 109.716L231.427 96.3485L226.799 96.2657L226.815 95.3576L237.087 95.5415L237.071 96.4495L232.443 96.3667L232.203 109.734ZM245.622 99.1518C246.527 99.168 247.275 99.393 247.866 99.8268C248.464 100.261 248.903 100.848 249.183 101.589C249.469 102.33 249.604 103.175 249.587 104.126L249.574 104.839L241.909 104.701C241.883 106.16 242.198 107.285 242.855 108.078C243.518 108.872 244.477 109.279 245.734 109.302C246.391 109.314 246.962 109.272 247.445 109.176C247.935 109.074 248.479 108.898 249.076 108.649L249.06 109.557C248.535 109.782 248.011 109.942 247.488 110.037C246.966 110.138 246.366 110.182 245.689 110.17C244.615 110.151 243.717 109.914 242.996 109.458C242.282 108.996 241.746 108.355 241.39 107.534C241.04 106.714 240.874 105.761 240.894 104.674C240.913 103.613 241.106 102.662 241.472 101.822C241.845 100.982 242.378 100.324 243.07 99.8484C243.769 99.3661 244.62 99.1338 245.622 99.1518ZM245.597 100.001C244.582 99.9829 243.752 100.307 243.109 100.972C242.472 101.632 242.087 102.595 241.953 103.862L248.564 103.981C248.578 103.206 248.479 102.521 248.268 101.924C248.058 101.328 247.731 100.863 247.287 100.529C246.851 100.19 246.287 100.013 245.597 100.001ZM259.521 99.4201C259.801 99.4251 260.064 99.4461 260.311 99.483C260.558 99.52 260.788 99.5697 261.002 99.6321L260.829 100.537C260.615 100.475 260.398 100.429 260.177 100.399C259.957 100.362 259.719 100.342 259.465 100.337C258.964 100.328 258.513 100.415 258.113 100.596C257.719 100.778 257.382 101.042 257.102 101.389C256.823 101.735 256.607 102.155 256.455 102.647C256.303 103.139 256.221 103.691 256.21 104.303L256.105 110.161L255.11 110.144L255.3 99.5301L256.149 99.5453L256.211 101.549L256.269 101.55C256.439 101.143 256.674 100.779 256.973 100.459C257.278 100.132 257.644 99.8748 258.071 99.6871C258.497 99.4994 258.981 99.4104 259.521 99.4201ZM276.74 99.7087C277.762 99.727 278.564 100.038 279.146 100.641C279.727 101.244 280.007 102.183 279.984 103.459L279.856 110.587L278.89 110.569L279.017 103.48C279.034 102.498 278.823 101.771 278.382 101.301C277.941 100.831 277.353 100.589 276.617 100.576C275.608 100.558 274.812 100.84 274.228 101.422C273.652 101.998 273.352 102.917 273.329 104.18L273.217 110.468L272.24 110.45L272.367 103.361C272.379 102.704 272.285 102.165 272.084 101.745C271.889 101.318 271.612 101.001 271.251 100.792C270.89 100.577 270.462 100.466 269.968 100.457C269.31 100.445 268.738 100.572 268.252 100.836C267.765 101.095 267.387 101.504 267.116 102.066C266.846 102.621 266.703 103.332 266.687 104.197L266.577 110.349L265.591 110.331L265.781 99.7177L266.582 99.732L266.697 101.473L266.756 101.474C266.938 101.132 267.178 100.817 267.476 100.529C267.774 100.242 268.139 100.011 268.572 99.836C269.012 99.6615 269.524 99.5795 270.11 99.59C270.872 99.6037 271.513 99.7877 272.034 100.142C272.562 100.49 272.924 101.001 273.12 101.675L273.189 101.677C273.486 101.044 273.938 100.554 274.543 100.207C275.155 99.8594 275.887 99.6934 276.74 99.7087ZM292.653 108.032C292.642 108.663 292.473 109.201 292.146 109.644C291.825 110.081 291.36 110.411 290.751 110.635C290.141 110.852 289.394 110.953 288.509 110.937C287.773 110.924 287.117 110.847 286.54 110.706C285.963 110.566 285.481 110.397 285.093 110.202L285.111 109.225C285.595 109.475 286.132 109.68 286.721 109.84C287.311 110 287.918 110.086 288.543 110.097C289.637 110.117 290.428 109.945 290.916 109.583C291.404 109.221 291.654 108.717 291.666 108.073C291.673 107.65 291.559 107.299 291.323 107.022C291.094 106.737 290.76 106.491 290.321 106.281C289.882 106.071 289.352 105.857 288.73 105.637C288.083 105.404 287.508 105.176 287.004 104.952C286.507 104.721 286.118 104.425 285.838 104.062C285.558 103.692 285.424 103.195 285.435 102.57C285.45 101.717 285.804 101.059 286.496 100.596C287.188 100.133 288.11 99.9122 289.262 99.9328C289.9 99.9442 290.491 100.017 291.036 100.15C291.587 100.277 292.086 100.439 292.531 100.636L292.165 101.469C291.765 101.273 291.302 101.112 290.777 100.985C290.252 100.859 289.725 100.791 289.198 100.781C288.332 100.766 287.653 100.907 287.159 101.204C286.665 101.501 286.413 101.946 286.403 102.538C286.394 102.994 286.505 103.354 286.735 103.619C286.965 103.877 287.296 104.097 287.729 104.281C288.162 104.458 288.676 104.656 289.271 104.875C289.886 105.101 290.452 105.336 290.968 105.579C291.491 105.823 291.906 106.133 292.211 106.51C292.517 106.887 292.664 107.394 292.653 108.032Z" fill="white"/>
</svg>
