<svg width="452" height="367" viewBox="0 0 452 367" fill="none" xmlns="http://www.w3.org/2000/svg">
<g opacity="0.1">
<path d="M40.5513 248.857C40.2933 247.516 39.8878 246.212 39.3348 244.98C39.003 244.219 39.1136 243.35 39.6666 242.698L41.9153 239.981L38.5238 235.923L35.3903 237.553C34.653 237.952 33.7313 237.879 33.0309 237.408C31.8881 236.647 30.6716 235.995 29.3813 235.488C28.6071 235.198 28.0542 234.474 27.9804 233.64L27.6486 230.162L22.3401 229.655L21.3079 233.025C21.0498 233.822 20.3863 234.401 19.5384 234.546C18.1744 234.8 16.8472 235.198 15.5938 235.742C14.8197 236.068 13.9349 235.959 13.2713 235.416L10.5065 233.206L6.37763 236.539L8.03655 239.618C8.44206 240.343 8.36833 241.249 7.88909 241.937C7.11493 243.06 6.45135 244.256 5.93524 245.524C5.64033 246.284 4.90303 246.828 4.05513 246.9L0.516117 247.226L0 252.443L3.42844 253.458C4.23947 253.711 4.8293 254.363 4.97676 255.197C5.23481 256.537 5.64033 257.841 6.1933 259.073C6.52509 259.834 6.41449 260.74 5.86152 261.356L3.61276 264.073L7.00432 268.131L10.1378 266.5C10.8751 266.102 11.7968 266.174 12.4972 266.645C13.64 267.406 14.8565 268.058 16.1468 268.565C16.921 268.855 17.4739 269.58 17.5477 270.413L17.8795 273.891L23.188 274.398L24.2202 271.029C24.4783 270.232 25.1418 269.652 25.9897 269.507C27.3537 269.254 28.6809 268.855 29.9343 268.312C30.7084 267.986 31.5932 268.094 32.2567 268.638L35.0216 270.848L39.1505 267.515L37.4916 264.435C37.086 263.711 37.1598 262.805 37.639 262.116C38.4132 260.993 39.0768 259.798 39.5929 258.53C39.8878 257.769 40.6251 257.226 41.473 257.153L45.012 256.827L45.5281 251.61L42.0997 250.596C41.3255 250.342 40.6988 249.654 40.5513 248.857ZM21.4554 265.305C14.0086 264.58 8.55265 258.059 9.28995 250.741C10.0272 243.422 16.6629 238.06 24.1096 238.785C31.5563 239.51 37.0123 246.031 36.275 253.349C35.5377 260.667 28.9021 265.993 21.4554 265.305Z" fill="#2A94F4"/>
<path d="M13.7875 251.14C14.2667 246.249 18.6905 242.698 23.6672 243.169C28.644 243.64 32.2568 247.988 31.7775 252.879C31.2983 257.77 26.8745 261.32 21.8977 260.849C16.921 260.378 13.3082 256.031 13.7875 251.14Z" fill="#2A94F4"/>
</g>
<path opacity="0.1" d="M205.595 367C297.724 367 372.409 361.064 372.409 353.74C372.409 346.417 297.724 340.48 205.595 340.48C113.467 340.48 38.7818 346.417 38.7818 353.74C38.7818 361.064 113.467 367 205.595 367Z" fill="#2A94F4"/>
<path opacity="0.19" d="M155.017 311.461C155.017 314.541 157.56 317.041 160.694 317.041H364.667C367.801 317.041 370.344 314.541 370.344 311.461V138.866H155.054V311.461H155.017Z" fill="#EB5757"/>
<path d="M219.088 240.198C220.046 243.459 221.373 246.611 223.069 249.618C224.101 251.429 224.028 253.675 222.848 255.414L217.908 262.696L227.382 272.007L234.792 267.153C236.562 265.993 238.847 265.921 240.691 266.935C243.714 268.602 246.921 269.906 250.275 270.848C252.303 271.428 253.851 273.058 254.294 275.123L256.026 283.709H269.408L271.178 275.087C271.583 273.058 273.132 271.391 275.196 270.812C278.514 269.87 281.721 268.566 284.781 266.899C286.624 265.885 288.91 265.957 290.679 267.116L298.089 271.971L307.563 262.66L302.624 255.378C301.444 253.639 301.37 251.393 302.402 249.582C304.098 246.611 305.425 243.459 306.384 240.162C306.974 238.169 308.633 236.648 310.734 236.213L319.471 234.51V221.359L310.697 219.62C308.633 219.222 306.937 217.7 306.347 215.671C305.388 212.411 304.061 209.259 302.366 206.252C301.333 204.44 301.407 202.194 302.587 200.455L307.527 193.173L298.052 183.862L290.643 188.717C288.873 189.876 286.587 189.949 284.744 188.934C281.721 187.268 278.514 185.963 275.159 185.021C273.132 184.442 271.583 182.811 271.141 180.746L269.408 172.16H256.026L254.257 180.783C253.851 182.811 252.303 184.478 250.239 185.058C246.921 186 243.714 187.304 240.654 188.97C238.811 189.985 236.525 189.912 234.755 188.753L227.346 183.898L217.871 193.209L222.811 200.491C223.991 202.23 224.065 204.476 223.032 206.288C221.337 209.259 220.009 212.411 219.051 215.707C218.461 217.7 216.802 219.222 214.701 219.656L205.964 221.359V234.51L214.738 236.249C216.839 236.648 218.535 238.169 219.088 240.198V240.198ZM262.662 194.513C281.426 194.513 296.652 209.476 296.652 227.917C296.652 246.357 281.426 261.32 262.662 261.32C243.898 261.32 228.673 246.357 228.673 227.917C228.673 209.512 243.898 194.55 262.662 194.513ZM155.017 111.006V127.707H370.308V111.006C370.308 107.926 367.764 105.426 364.63 105.426H160.657C157.524 105.426 155.017 107.926 155.017 111.006V111.006ZM211.678 111.006H222.996V122.164H211.678V111.006ZM189.006 111.006H200.324V122.164H189.006V111.006ZM166.334 111.006H177.652V122.164H166.334V111.006Z" fill="#EB5757"/>
<path d="M285.334 227.953C285.334 240.235 275.196 250.234 262.662 250.234C250.128 250.234 239.99 240.271 239.99 227.953C239.99 215.672 250.128 205.672 262.662 205.672C275.159 205.672 285.334 215.635 285.334 227.953ZM268.339 10.7966C268.339 7.71709 265.796 5.21729 262.662 5.21729H58.6888C55.5553 5.21729 53.0117 7.71709 53.0117 10.7966V27.4981H268.302V10.7966H268.339ZM75.6835 21.9189H64.366V10.7966H75.6835V21.9189ZM98.3554 21.9189H87.0379V10.7966H98.3554V21.9189ZM121.027 21.9189H109.71V10.7966H121.027V21.9189Z" fill="#EB5757"/>
<path opacity="0.19" d="M143.662 111.006C143.662 101.768 151.256 94.3046 160.657 94.3046H268.302V38.6206H53.0117V211.216C53.0117 214.295 55.5553 216.795 58.6888 216.795H143.662V111.006V111.006ZM189.006 66.4807H200.324V77.603H189.006V66.4807V66.4807ZM166.334 66.4807H177.652V77.603H166.334V66.4807V66.4807ZM143.662 66.4807H154.98V77.603H143.662V66.4807V66.4807ZM121.027 200.093H75.6835V188.971H121.027V200.093ZM121.027 177.813H75.6835V166.69H121.027V177.813ZM121.027 155.568H75.6835V144.446H121.027V155.568ZM121.027 133.287H75.6835V122.165H121.027V133.287V133.287ZM121.027 111.006H75.6835V99.8839H121.027V111.006ZM121.027 77.603V66.4807H132.345V77.603H121.027V77.603Z" fill="#EB5757"/>
<path d="M188.011 267.479L188.232 261.61L192.471 262.878L193.282 270.197C193.282 270.197 189.227 270.45 188.011 267.479V267.479Z" fill="#FCD2B1"/>
<path d="M188.379 267.515C189.375 267.914 191.034 268.276 193.098 267.805L192.84 266.139C192.84 266.139 194.02 266.827 194.315 268.349C194.61 269.834 194.683 269.436 196.6 270.595C198.554 271.754 198.407 274.363 198.407 274.363L183.956 274C183.956 274 183.55 271.138 186.168 268.095C186.684 267.443 187.605 267.189 188.379 267.515V267.515Z" fill="#0E538C"/>
<path d="M165.044 181.217C165.044 181.217 163.164 188.427 165.818 192.956C168.472 197.484 173.265 187.449 173.265 187.449C173.265 187.449 172.417 177.812 165.044 181.217Z" fill="#EB5757"/>
<path d="M163.717 147.018C163.717 147.018 153.984 160.024 152.362 167.886C150.704 175.747 152.473 192.92 152.473 192.92H156.454C156.454 192.92 158.556 171.001 159.883 167.886C161.21 164.697 169.836 149.988 169.836 149.988L163.717 147.018V147.018Z" fill="#FFE3CA"/>
<path d="M162.058 273.71H198.996V277.876H162.058V273.71ZM154.169 302.476H193.872V306.642H154.169V302.476ZM150.593 330.3H190.296V334.466H150.593V330.3Z" fill="#D3D3D3"/>
<path d="M146.612 357.979H142.188L174.776 207.339H177.246L146.612 357.979ZM192.803 357.979H188.379L214.222 203.1L216.397 204.115L192.803 357.979Z" fill="#D3D3D3"/>
<path d="M183.845 357.979L207.623 207.592L174.776 207.339L142.188 357.979H137.1L170.205 203.1H214.222L189.78 357.979H183.108" fill="#F7F7F7"/>
<path d="M168.915 267.479L169.136 261.61L173.375 262.878L174.186 270.197C174.15 270.197 170.131 270.45 168.915 267.479V267.479Z" fill="#FCD2B1"/>
<path d="M210.756 135.062C210.756 135.062 221.263 134.301 222.516 129.519C223.77 124.736 223.549 111.839 223.549 111.839H227.198C227.198 111.839 229.705 123.831 229.557 129.519C229.41 135.207 222.369 144.916 210.756 144.3C199.181 143.684 210.756 135.062 210.756 135.062V135.062Z" fill="#FFE3CA"/>
<path d="M176.73 134.446C176.73 134.446 170.647 135.062 168.141 137.671C166.924 138.939 159.367 148.141 159.662 150.133L168.546 155.568L175.809 145.677L176.73 134.446V134.446Z" fill="#2A94F4"/>
<path d="M167.219 178.754C167.219 178.754 164.602 186.362 167.072 194.695C169.541 203.027 169.541 219.838 169.32 224.221C169.099 228.605 164.933 241.285 168.472 263.675H173.928C173.928 263.675 177.246 240.198 179.163 230.199C180.97 220.816 183.255 197.412 183.255 197.412C183.255 197.412 190.112 219.62 188.969 225.345C187.716 231.648 187.568 263.639 187.568 263.639H193.061C193.061 263.639 199.218 236.105 199.586 228.714C199.992 221.323 199.144 179.877 199.144 179.877C199.144 179.877 180.859 167.668 167.219 178.754V178.754Z" fill="#0B4870"/>
<path d="M185.946 119.991L180.38 136.729L190.444 138.685L192.656 121.331L185.946 119.991Z" fill="#FCD2B1"/>
<path d="M191.66 133.504C191.66 133.504 198.48 134.881 199.181 143.648C199.881 152.416 200.84 189.804 200.84 193.028C200.618 194.514 174.113 199.477 166.224 191.942C164.233 190.021 170.758 157.488 169.836 148.938C168.878 140.424 174.039 129.591 191.66 133.504Z" fill="#2A94F4"/>
<path d="M199.586 151.039C199.586 151.039 202.314 144.916 210.756 144.3C210.756 144.3 212.784 138.612 210.756 135.062C210.756 135.062 195.457 131.982 189.633 133.142C183.808 134.301 199.586 151.039 199.586 151.039V151.039Z" fill="#2A94F4"/>
<path d="M227.161 115.064C227.161 115.064 228.304 109.05 226.276 105.644C225.06 103.615 223.733 102.673 222.406 103.036C221.521 103.289 221.152 104.811 221.373 105.68C221.668 106.803 222.627 109.883 223.143 110.752C223.143 110.752 222.221 110.752 221.263 108.723C220.341 106.731 219.641 109.665 220.378 111.042C221.484 113.035 225.134 118.505 227.161 115.064Z" fill="#FFE3CA"/>
<path d="M169.247 267.515C170.242 267.914 171.901 268.276 173.965 267.805L173.707 266.139C173.707 266.139 174.887 266.827 175.182 268.349C175.477 269.834 175.55 269.436 177.467 270.595C179.421 271.754 179.274 274.363 179.274 274.363L164.823 274C164.823 274 164.417 271.138 167.035 268.095C167.588 267.443 168.472 267.189 169.247 267.515V267.515Z" fill="#0E538C"/>
<path d="M200.213 117.491C199.955 115.389 204.6 113.977 195.716 107.818C191.181 104.702 183.292 106.079 180.859 110.788C178.426 115.498 179.716 115.969 177.836 116.295C175.956 116.657 177.947 131.222 189.301 131.04C200.692 130.859 200.213 117.491 200.213 117.491Z" fill="#0B4870"/>
<path d="M165.671 176.146H200.25C201.651 176.146 202.794 177.16 202.941 178.5C203.531 183.609 204.158 195.202 198.075 196.035C190.259 197.122 187.753 188.826 187.753 181.109L165.044 181.218C165.044 181.218 164.27 177.522 165.671 176.146V176.146Z" fill="#EB5757"/>
<path d="M156.196 190.891C156.196 190.891 155.533 198.608 158.076 200.709C160.62 202.847 153.579 203.789 151.846 199.876C150.114 195.963 152.473 190.891 152.473 190.891H156.196V190.891Z" fill="#FFE3CA"/>
<path d="M155.533 191.905C155.533 191.905 157.892 192.304 158.777 194.804C159.293 196.217 159.588 197.738 159.735 198.789C159.846 199.477 159.035 199.948 158.445 199.513C157.855 199.079 157.302 198.427 157.376 197.303C157.56 194.949 154.685 195.637 154.685 195.637C154.685 195.637 153.726 192.847 155.533 191.905Z" fill="#FFE3CA"/>
<path d="M194.13 181.471H192.324V176.218C192.324 175.928 192.582 175.675 192.877 175.675H193.614C193.909 175.675 194.167 175.928 194.167 176.218V181.471H194.13ZM196.821 181.471H195.015V177.993C195.015 177.703 195.273 177.45 195.568 177.45H196.305C196.6 177.45 196.858 177.703 196.858 177.993V181.471H196.821ZM200.25 181.471H197.743V173.899C197.743 173.501 198.075 173.175 198.48 173.175H199.513C199.918 173.175 200.25 173.501 200.25 173.899V181.471Z" fill="#F7F7F7"/>
<path opacity="0.32" d="M188.343 181.471H202.277V182.631H188.343V181.471Z" fill="#161616"/>
<path d="M74.1352 286.464C73.4716 284.797 72.6606 283.167 71.6284 281.681C71.0017 280.776 70.9648 279.58 71.4809 278.638L73.7666 274.58L68.3843 270.088L64.6978 272.986C63.813 273.675 62.6334 273.82 61.6012 273.349C59.9422 272.624 58.1727 272.044 56.4032 271.718C55.2973 271.501 54.4125 270.704 54.1176 269.653L52.8273 265.233L45.7861 265.813L45.2332 270.414C45.1226 271.501 44.3484 272.443 43.3162 272.841C41.6204 273.494 39.9615 274.291 38.45 275.305C37.5284 275.921 36.3119 275.957 35.3534 275.45L31.2245 273.204L26.6533 278.493L29.6025 282.116C30.3029 282.986 30.4503 284.145 29.9711 285.159C29.2338 286.79 28.644 288.529 28.3122 290.268C28.091 291.355 27.28 292.224 26.2109 292.514L21.6765 293.782L22.2664 300.702L26.9482 301.245C28.0541 301.354 29.0126 302.115 29.4181 303.129C30.0817 304.795 30.8927 306.426 31.9249 307.911C32.5516 308.817 32.5885 310.012 32.0724 310.954L29.7868 315.012L35.1691 319.504L38.8555 316.606C39.7403 315.918 40.92 315.773 41.9522 316.244C43.6111 316.968 45.3806 317.548 47.1501 317.874C48.2561 318.092 49.1408 318.889 49.4357 319.939L50.726 324.395L57.7672 323.816L58.3202 319.215C58.4308 318.128 59.2049 317.186 60.2372 316.787C61.9329 316.135 63.5919 315.338 65.1033 314.324C66.0249 313.708 67.2415 313.672 68.2 314.179L72.3288 316.425L76.9001 311.136L73.9509 307.513C73.2505 306.643 73.103 305.484 73.5822 304.469C74.3195 302.839 74.9094 301.1 75.2412 299.361C75.4623 298.274 76.2734 297.405 77.3424 297.115L81.8768 295.847L81.287 288.927L76.6051 288.384C75.4992 288.239 74.5407 287.478 74.1352 286.464V286.464ZM53.2697 312.367C43.3899 313.164 34.7267 305.955 33.8788 296.245C33.0678 286.536 40.4039 278.022 50.2836 277.189C60.1634 276.392 68.8267 283.602 69.6745 293.311C70.4856 303.02 63.1495 311.534 53.2697 312.367V312.367Z" fill="#EB5757"/>
<path d="M39.851 295.774C39.298 289.289 44.201 283.601 50.763 283.057C57.3618 282.514 63.1495 287.332 63.7025 293.781C64.2555 300.266 59.3525 305.954 52.7905 306.498C46.1917 307.041 40.4039 302.259 39.851 295.774Z" fill="#EB5757"/>
<path d="M131.534 238.785C129.764 237.228 127.847 235.851 125.746 234.728C124.456 234.039 123.718 232.699 123.755 231.286L123.94 225.272L115.018 223.243L112.512 228.714C111.922 230.018 110.631 230.887 109.157 230.96C106.797 231.069 104.438 231.467 102.153 232.119C100.752 232.518 99.2402 232.119 98.2448 231.069L94.0791 226.685L86.3006 231.431L88.4388 237.083C88.9549 238.423 88.66 239.945 87.6646 240.995C86.0794 242.734 84.6786 244.618 83.5358 246.683C82.8353 247.951 81.4713 248.676 80.0336 248.64L73.914 248.459L71.8496 257.226L77.4162 259.69C78.7433 260.269 79.6281 261.537 79.7018 262.986C79.8124 265.305 80.2179 267.624 80.8446 269.87C81.2501 271.247 80.8446 272.732 79.7756 273.71L75.3149 277.804L80.1442 285.448L85.8951 283.311C87.2591 282.804 88.7706 283.094 89.8765 284.072C91.646 285.63 93.563 287.006 95.6643 288.129C96.9546 288.818 97.7287 290.158 97.655 291.571L97.4707 297.585L106.392 299.614L108.899 294.143C109.489 292.839 110.779 291.97 112.253 291.897C114.613 291.788 116.972 291.39 119.258 290.774C120.659 290.376 122.17 290.774 123.165 291.825L127.331 296.208L135.11 291.462L132.972 285.811C132.455 284.47 132.75 282.949 133.746 281.898C135.331 280.159 136.732 278.275 137.875 276.21C138.575 274.942 139.939 274.217 141.377 274.254L147.496 274.435L149.561 265.667L143.994 263.204C142.667 262.624 141.782 261.356 141.709 259.907C141.598 257.588 141.192 255.27 140.566 253.023C140.16 251.647 140.566 250.161 141.635 249.183L146.095 245.089L141.266 237.445L135.515 239.546C134.151 240.017 132.64 239.727 131.534 238.785ZM123.055 280.847C112.143 287.55 97.7656 284.253 90.9456 273.529C84.1256 262.805 87.4803 248.676 98.3923 241.974C109.304 235.271 123.682 238.568 130.502 249.292C137.285 260.052 133.967 274.145 123.055 280.847Z" fill="#CCE9FF"/>
<path d="M97.5444 269.471C93.01 262.334 95.2219 252.915 102.521 248.458C109.82 244.002 119.368 246.176 123.903 253.349C128.437 260.486 126.225 269.906 118.926 274.362C111.664 278.818 102.079 276.645 97.5444 269.471Z" fill="#CCE9FF"/>
<path d="M389.477 70.1395C388.039 71.9509 386.86 73.9073 385.901 76.0086C385.311 77.2766 384.058 78.1461 382.62 78.2185L376.611 78.5084L375.284 87.2396L380.925 89.2322C382.252 89.7031 383.21 90.8987 383.394 92.2754C383.689 94.5578 384.242 96.7678 385.09 98.9053C385.606 100.21 385.311 101.695 384.353 102.746L380.335 107.093L385.68 114.194L391.136 111.694C392.426 111.114 393.938 111.259 395.081 112.129C396.924 113.542 398.915 114.701 401.053 115.643C402.343 116.223 403.228 117.455 403.302 118.867L403.596 124.773L412.481 126.077L414.508 120.534C414.988 119.23 416.204 118.288 417.605 118.107C419.928 117.817 422.176 117.273 424.351 116.44C425.678 115.933 427.19 116.223 428.259 117.165L432.683 121.15L439.908 115.897L437.365 110.535C436.775 109.267 436.922 107.781 437.807 106.658C439.245 104.847 440.424 102.89 441.383 100.789C441.973 99.5212 443.226 98.6517 444.664 98.5792L450.673 98.2894L452 89.5582L446.36 87.5656C445.032 87.0946 444.074 85.8991 443.89 84.5224C443.595 82.24 443.042 80.03 442.194 77.8925C441.678 76.5882 441.973 75.1028 442.931 74.0522L446.986 69.7047L441.641 62.6038L436.185 65.1036C434.895 65.6833 433.383 65.5384 432.24 64.6689C430.397 63.2559 428.406 62.0966 426.268 61.1547C424.978 60.575 424.093 59.3432 424.02 57.9303L423.725 52.0249L414.84 50.7207L412.813 56.2637C412.333 57.568 411.117 58.5099 409.716 58.6911C407.393 58.9809 405.145 59.5244 402.97 60.3576C401.643 60.8648 400.131 60.575 399.062 59.633L394.638 55.6478L387.413 60.9011L389.956 66.263C390.509 67.531 390.362 69.0164 389.477 70.1395V70.1395ZM431.982 75.0304C439.466 84.9934 437.328 99.0865 427.19 106.441C417.052 113.795 402.712 111.694 395.228 101.731C387.745 91.7682 389.883 77.6751 400.021 70.3206C410.195 62.9661 424.499 65.0674 431.982 75.0304V75.0304Z" fill="#EB5757"/>
<path d="M422.656 100.427C415.872 105.354 406.361 103.941 401.348 97.2749C396.334 90.6087 397.772 81.2617 404.555 76.3345C411.338 71.4074 420.849 72.8203 425.863 79.4864C430.876 86.1163 429.439 95.4997 422.656 100.427Z" fill="#EB5757"/>
<path d="M298.495 40.8663C297.942 43.8009 297.757 46.7717 297.868 49.7425C297.942 51.5539 297.02 53.2929 295.398 54.1986L288.652 58.0027L292.375 68.8714L300.117 67.8932C301.96 67.6758 303.766 68.4729 304.799 69.9583C306.531 72.4218 308.522 74.668 310.734 76.6606C312.098 77.8924 312.651 79.7763 312.172 81.5153L310.144 88.8698L320.577 93.9781L325.369 87.9279C326.512 86.4787 328.355 85.7903 330.162 86.1164C333.148 86.6598 336.171 86.8772 339.194 86.7323C341.037 86.6598 342.806 87.5656 343.728 89.1596L347.599 95.7896L358.658 92.1304L357.663 84.5223C357.442 82.7109 358.253 80.9356 359.764 79.9212C362.271 78.2547 364.556 76.2621 366.584 74.0884C367.837 72.7479 369.754 72.2045 371.524 72.6754L379.044 74.668L384.242 64.379L378.049 59.6692C376.574 58.5461 375.874 56.7347 376.206 54.9594C376.759 52.0249 376.98 49.0541 376.833 46.0833C376.759 44.2719 377.717 42.5329 379.302 41.6272L386.049 37.8231L382.325 26.9544L374.584 27.9326C372.741 28.15 370.934 27.3529 369.902 25.8675C368.206 23.404 366.179 21.1578 363.967 19.1652C362.603 17.9334 362.05 16.0495 362.529 14.3105L364.556 6.91975L354.161 1.81145L349.368 7.8617C348.225 9.31086 346.382 9.99921 344.576 9.67315C341.59 9.12972 338.567 8.91234 335.544 9.05726C333.701 9.12972 331.931 8.22399 331.009 6.62991L327.139 0L316.079 3.65913L317.075 11.2672C317.296 13.0787 316.485 14.8539 314.973 15.8683C312.466 17.5348 310.181 19.5274 308.153 21.7012C306.9 23.0417 304.983 23.5851 303.213 23.1141L295.693 21.1215L290.495 31.4106L296.651 36.1203C298.163 37.2434 298.863 39.0549 298.495 40.8663V40.8663ZM350.585 21.7736C365.257 28.947 371.229 46.4456 363.967 60.8648C356.667 75.2839 338.862 81.153 324.189 74.0159C309.517 66.8426 303.545 49.3439 310.808 34.9248C318.107 20.5056 335.913 14.6365 350.585 21.7736V21.7736Z" fill="#CCE9FF"/>
<path d="M355.082 56.5532C350.216 66.1539 338.346 70.1028 328.576 65.3206C318.807 60.5384 314.789 48.8726 319.655 39.2719C324.521 29.6712 336.392 25.7223 346.161 30.5045C355.967 35.2505 359.948 46.9162 355.082 56.5532V56.5532Z" fill="#CCE9FF"/>
</svg>
