<svg width="466" height="344" viewBox="0 0 466 344" fill="none" xmlns="http://www.w3.org/2000/svg">
<path d="M103.458 94.7112L16.5408 152.854L102.154 280.838L189.072 222.696L103.458 94.7112Z" fill="#F5F5F5"/>
<path d="M144.157 216.641L143.173 222.746L99.9623 216.517L100.946 210.413L144.157 216.641Z" fill="#E0E0E0"/>
<path d="M122.396 194.866L128.594 195.757L121.723 238.301L115.517 237.403L122.396 194.866Z" fill="#E0E0E0"/>
<path d="M82.6331 140.795C82.6951 140.88 73.9879 146.822 63.1814 154.042C52.3748 161.262 43.5669 167.056 43.505 166.963C43.443 166.87 52.1502 160.936 62.9567 153.709C73.7632 146.481 82.5324 140.702 82.6331 140.795Z" fill="#E0E0E0"/>
<path d="M114.565 132.769C114.627 132.862 100.14 142.654 82.2148 154.646C64.2891 166.637 49.679 176.282 49.6325 176.197C49.586 176.112 64.0412 166.304 81.9901 154.313C99.939 142.321 114.503 132.676 114.565 132.769Z" fill="#E0E0E0"/>
<path d="M120.971 142.343C121.033 142.436 106.547 152.236 88.6212 164.228C70.6956 176.219 56.0855 185.864 56.039 185.771C55.9925 185.678 70.4632 175.886 88.3966 163.887C106.33 151.887 120.909 142.25 120.971 142.343Z" fill="#E0E0E0"/>
<path d="M127.378 151.926C127.44 152.019 112.953 161.819 95.0277 173.803C77.1021 185.787 62.4919 195.447 62.4919 195.354C62.4919 195.261 76.9084 185.462 94.8418 173.47C112.775 161.478 127.316 151.833 127.378 151.926Z" fill="#E0E0E0"/>
<path d="M133.761 161.509C133.823 161.602 119.337 171.394 101.411 183.386C83.4852 195.378 68.8751 205.022 68.8364 204.929C68.7976 204.836 83.2761 195.045 101.225 183.053C119.174 171.061 133.761 161.416 133.761 161.509Z" fill="#E0E0E0"/>
<path d="M394.101 180.469L321.104 229.299L393.003 336.782L466 287.952L394.101 180.469Z" fill="#F5F5F5"/>
<path d="M428.287 282.89L427.458 288.018L391.165 282.789L392.002 277.661L428.287 282.89Z" fill="#E0E0E0"/>
<path d="M410.013 264.602L415.218 265.353L409.447 301.08L404.234 300.329L410.013 264.602Z" fill="#E0E0E0"/>
<path d="M376.586 219.229C376.648 219.322 369.343 224.319 360.264 230.384C351.185 236.45 343.779 241.299 343.717 241.23C343.655 241.16 350.968 236.148 360.039 230.074C369.111 224.001 376.524 219.097 376.586 219.229Z" fill="#E0E0E0"/>
<path d="M403.428 212.451C403.49 212.544 391.336 220.786 376.315 230.849C361.294 240.912 349 249.015 348.938 248.922C348.876 248.829 361.031 240.587 376.052 230.516C391.072 220.445 403.343 212.358 403.428 212.451Z" fill="#E0E0E0"/>
<path d="M408.812 220.492C408.874 220.585 396.719 228.827 381.699 238.898C366.678 248.968 354.384 257.056 354.322 256.963C354.26 256.87 366.376 248.666 381.435 238.596C396.495 228.525 408.765 220.407 408.812 220.492Z" fill="#E0E0E0"/>
<path d="M414.188 228.525C414.25 228.618 402.088 236.86 387.075 246.931C372.062 257.002 359.76 265.089 359.698 264.996C359.636 264.903 371.791 256.668 386.812 246.59C401.832 236.512 414.134 228.448 414.188 228.525Z" fill="#E0E0E0"/>
<path d="M419.611 236.59C419.673 236.683 407.518 244.917 392.498 254.988C377.477 265.058 365.183 273.146 365.121 273.061C365.059 272.975 377.214 264.725 392.234 254.655C407.255 244.584 419.51 236.497 419.611 236.59Z" fill="#E0E0E0"/>
<path d="M278.616 99.4193L198.967 56.8193L136.24 174.1L215.889 216.7L278.616 99.4193Z" fill="#F5F5F5"/>
<path d="M202.256 180.008L197.205 181.735L184.377 146.279L189.436 144.544L202.256 180.008Z" fill="#E0E0E0"/>
<path d="M210.003 154.568L211.847 159.658L176.631 171.719L174.787 166.63L210.003 154.568Z" fill="#E0E0E0"/>
<path d="M235.024 102.255C234.962 102.372 226.891 98.1728 216.983 92.8819C207.075 87.591 199.103 83.1986 199.165 83.0824C199.227 82.9662 207.307 87.1649 217.215 92.4558C227.123 97.7468 235.086 102.131 235.024 102.255Z" fill="#E0E0E0"/>
<path d="M254.143 123.35C254.081 123.466 240.711 116.432 224.28 107.648C207.849 98.8629 194.587 91.643 194.649 91.5268C194.711 91.4106 208.074 98.4368 224.505 107.229C240.935 116.022 254.205 123.234 254.143 123.35Z" fill="#E0E0E0"/>
<path d="M249.449 132.126C249.387 132.242 236.016 125.216 219.585 116.424C203.155 107.631 189.893 100.419 189.955 100.303C190.017 100.187 203.38 107.221 219.81 116.006C236.241 124.79 249.511 132.01 249.449 132.126Z" fill="#E0E0E0"/>
<path d="M244.754 140.903C244.692 141.02 231.322 133.993 214.891 125.209C198.46 116.424 185.198 109.227 185.26 109.088C185.322 108.949 198.685 115.998 215.116 124.783C231.546 133.567 244.816 140.787 244.754 140.903Z" fill="#E0E0E0"/>
<path d="M240.06 149.68C239.998 149.796 226.627 142.77 210.197 133.985C193.766 125.201 180.496 117.981 180.566 117.865C180.635 117.749 193.991 124.775 210.421 133.559C226.852 142.344 240.122 149.564 240.06 149.68Z" fill="#E0E0E0"/>
<path opacity="0.2" d="M240.47 0H238.472V34.0696H240.47V0Z" fill="black"/>
<path d="M192.813 75.2892H286.129C286.129 75.2892 277.515 34.085 238.766 34.085C204.301 34.085 192.813 75.2892 192.813 75.2892Z" fill="#EB5757"/>
<path d="M240.47 0H238.472V34.0696H240.47V0Z" fill="#EB5757"/>
<path d="M447.243 340.72C447.243 340.828 347.118 340.921 223.629 340.921C100.14 340.921 0 340.852 0 340.72C0 340.588 100.109 340.519 223.629 340.519C347.149 340.519 447.243 340.604 447.243 340.72Z" fill="#263238"/>
<path d="M24.7582 292.203C26.0679 292.298 27.3451 292.655 28.5137 293.254C29.6823 293.853 30.7182 294.681 31.5597 295.689C33.2328 297.717 34.4176 300.102 35.0224 302.661C36.3316 307.557 35.526 313.344 34.1316 318.216C28.8329 316.318 25.5561 310.663 24.061 307.689C21.737 302.994 20.3504 293.078 24.7349 292.195" fill="#EB5757"/>
<path d="M41.7619 324.158C40.9663 322.924 40.5113 321.501 40.4433 320.035C40.3752 318.568 40.6966 317.109 41.3746 315.807C42.0739 314.517 43.0232 313.379 44.167 312.46C45.3109 311.541 46.6264 310.859 48.0367 310.454C49.3304 310.051 50.8332 309.889 51.9565 310.64C52.4628 311.023 52.8572 311.535 53.0984 312.122C53.3395 312.709 53.4187 313.351 53.3276 313.979C53.1243 315.238 52.5895 316.419 51.7783 317.403C49.1987 320.897 46.0691 323.802 41.7077 324.158" fill="#EB5757"/>
<path d="M42.3507 340.526C42.2358 340.197 42.1553 339.857 42.1106 339.511C41.9711 338.783 41.7852 337.846 41.5606 336.722C40.8652 333.647 40.6716 330.479 40.9873 327.341C41.3526 324.189 42.5534 321.191 44.4655 318.657C45.0498 317.9 45.7235 317.216 46.4719 316.62C46.6753 316.459 46.8873 316.309 47.1071 316.171C47.177 316.113 47.2554 316.066 47.3395 316.031C46.3597 316.868 45.4645 317.8 44.667 318.812C42.8556 321.348 41.7151 324.301 41.3514 327.396C40.8556 331.005 41.4676 334.313 41.824 336.691C42.0099 337.877 42.1648 338.837 42.25 339.504C42.311 339.841 42.3447 340.183 42.3507 340.526Z" fill="#263238"/>
<path d="M26.4624 299.663C26.5509 299.785 26.6237 299.918 26.6793 300.058C26.8187 300.368 27.0047 300.755 27.2216 301.243C27.6941 302.274 28.3526 303.769 29.1505 305.62C30.7463 309.331 32.8843 314.49 35.1154 320.238C37.3464 325.986 39.2443 331.231 40.538 335.05C41.2042 336.955 41.7232 338.505 42.0873 339.581C42.25 340.093 42.374 340.503 42.4747 340.821C42.5299 340.963 42.5689 341.111 42.5909 341.262C42.5123 341.131 42.4499 340.99 42.4049 340.844C42.2887 340.534 42.1415 340.131 41.9479 339.628L40.3133 335.135C38.9267 331.347 36.9901 326.11 34.7668 320.37C32.5435 314.63 30.4364 309.455 28.9026 305.721C28.1279 303.885 27.5314 302.39 27.0899 301.298C26.8885 300.802 26.7258 300.407 26.6018 300.089C26.5436 299.951 26.497 299.809 26.4624 299.663Z" fill="#263238"/>
<path d="M36.0527 329.697C34.4587 327.043 32.256 324.807 29.6266 323.173C26.9972 321.539 24.0166 320.554 20.9313 320.3C19.382 320.192 17.4763 320.455 16.7792 321.849C16.082 323.244 17.0116 324.948 18.0806 326.079C20.3519 328.455 23.2759 330.106 26.4839 330.823C29.6918 331.539 33.0402 331.291 36.107 330.107" fill="#EB5757"/>
<path d="M23.3173 324.499C23.6457 324.483 23.975 324.496 24.3011 324.538C24.683 324.558 25.0633 324.602 25.4399 324.669C25.8814 324.755 26.4004 324.801 26.9427 324.956C27.5488 325.084 28.1465 325.25 28.7322 325.452C29.4108 325.67 30.0756 325.929 30.7231 326.226C32.2123 326.894 33.6209 327.728 34.9217 328.713C36.2075 329.722 37.3721 330.876 38.3922 332.153C38.8327 332.708 39.2389 333.29 39.6084 333.896C39.9425 334.418 40.2476 334.959 40.5225 335.515C40.7553 335.967 40.9622 336.433 41.1423 336.909C41.2976 337.262 41.4296 337.624 41.5373 337.994C41.6521 338.303 41.7377 338.622 41.793 338.946C41.7078 338.946 41.3359 337.614 40.2901 335.631C40.0054 335.098 39.6925 334.581 39.3528 334.082C38.9753 333.495 38.5667 332.928 38.1288 332.385C36.1026 329.881 33.5187 327.886 30.5836 326.56C29.9097 326.265 29.2667 325.986 28.6392 325.785C28.0632 325.575 27.4761 325.397 26.8807 325.25C24.7117 324.654 23.3095 324.584 23.3173 324.499Z" fill="#263238"/>
<path d="M374.959 81.7119C372.682 82.2309 371.574 84.857 371.357 87.181C371.14 89.505 371.435 91.9684 370.458 94.091C369.358 96.4769 366.732 98.2432 366.647 100.869C366.593 102.473 367.546 103.968 367.499 105.587C367.422 108.221 364.741 110.235 364.594 112.838C364.494 114.736 365.756 116.548 365.454 118.423C365.222 119.879 364.083 121.026 363.603 122.42C362.65 125.209 364.563 128.269 367.05 129.834C368.443 130.71 370.011 131.271 371.643 131.478C373.276 131.685 374.934 131.533 376.501 131.033C378.069 130.533 379.509 129.696 380.719 128.582C381.93 127.468 382.883 126.102 383.512 124.582C384.89 121.235 384.588 117.462 384.286 113.86C383.357 102.623 382.665 91.3693 382.21 80.1006" fill="#263238"/>
<path d="M368.344 121.359C368.812 121.067 369.178 120.637 369.389 120.127C369.613 119.521 369.703 118.873 369.653 118.229C369.568 117.375 369.378 116.534 369.087 115.727C368.717 114.712 368.579 113.626 368.685 112.551C368.878 111.342 369.746 110.351 370.528 109.375C370.95 108.897 371.302 108.362 371.574 107.786C371.847 107.204 371.891 106.541 371.698 105.927C371.295 104.665 370.056 103.735 369.49 102.271C369.224 101.546 369.181 100.758 369.366 100.009C369.542 99.3061 369.802 98.6272 370.141 97.987C370.795 96.8339 371.315 95.6097 371.69 94.3383C372.232 91.8826 371.977 89.5354 372.349 87.6065C372.555 86.0616 373.24 84.6203 374.309 83.4853C374.611 83.1796 374.955 82.9187 375.331 82.7107C375.461 82.6431 375.599 82.5936 375.742 82.5635C375.256 82.8308 374.81 83.1645 374.417 83.555C373.427 84.7014 372.804 86.118 372.628 87.622C372.492 88.6495 372.419 89.6843 372.411 90.7207C372.408 91.9403 372.289 93.1569 372.054 94.3538C371.685 95.6544 371.165 96.9075 370.505 98.0877C369.924 99.3039 369.389 100.729 369.901 102.062C370.412 103.394 371.644 104.316 372.116 105.741C372.33 106.446 372.277 107.204 371.969 107.872C371.667 108.505 371.276 109.092 370.807 109.615C370.032 110.591 369.188 111.52 369.002 112.605C368.894 113.634 369.015 114.673 369.358 115.649C369.635 116.482 369.807 117.346 369.87 118.221C369.908 118.895 369.789 119.569 369.521 120.189C369.355 120.577 369.087 120.914 368.746 121.165C368.625 121.254 368.489 121.319 368.344 121.359Z" fill="#455A64"/>
<path d="M362.286 139.726L355.314 159.867L326.156 161.416L321.291 172.261L351.735 175.36C353.173 175.951 354.716 176.243 356.271 176.221C357.826 176.198 359.36 175.861 360.78 175.228C362.201 174.596 363.479 173.683 364.536 172.543C365.594 171.403 366.409 170.061 366.934 168.597L375.06 145.915L362.286 139.726Z" fill="#E7C19F"/>
<path d="M422.562 329.774C422.562 329.774 401.197 261.898 400.74 259.698C400.329 257.699 408.487 208.857 409.525 196.176L380.653 197.253V197.539L368.382 198.221L379.367 336.978H392.653L391.336 290.925C399.532 312.917 411.275 335.336 411.275 335.336L422.562 329.774Z" fill="#E7C19F"/>
<path d="M391.878 307.448C391.878 307.03 391.715 292.017 391.715 292.017C391.552 292.915 386.626 278.987 386.742 278.143C386.804 277.701 391.878 307.448 391.878 307.448Z" fill="#E0A18D"/>
<path d="M386.184 271.542C386.116 271.818 386.087 272.102 386.099 272.386C386.056 273.16 386.056 273.936 386.099 274.71C386.099 275.198 386.169 275.725 386.231 276.298C386.293 276.872 386.378 277.476 386.509 278.103C386.785 279.474 387.15 280.824 387.602 282.147C388.562 284.959 389.631 287.415 390.383 289.197C390.739 289.971 391.049 290.707 391.312 291.296C391.407 291.57 391.538 291.83 391.7 292.071C391.658 291.803 391.58 291.542 391.467 291.296C391.289 290.785 391.018 290.049 390.693 289.142C390.011 287.33 388.988 284.851 388.036 282.07C387.585 280.766 387.215 279.437 386.928 278.088C386.788 277.468 386.695 276.872 386.61 276.314C386.525 275.756 386.463 275.229 386.424 274.765C386.331 273.804 386.293 273.029 386.269 272.487C386.284 272.17 386.255 271.852 386.184 271.542Z" fill="#E0A18D"/>
<path d="M379.119 337.683V336.435L392.73 335.839L392.769 340.99L391.932 341.045C388.191 341.261 372.914 341.897 370.42 341.145C367.623 340.309 379.119 337.683 379.119 337.683Z" fill="#455A64"/>
<path d="M392.947 340.681C392.87 340.686 392.792 340.686 392.715 340.681L392.048 340.727L389.585 340.836C387.509 340.921 384.635 340.998 381.466 341.014C378.298 341.029 375.416 340.975 373.332 340.913L370.877 340.812H370.203H369.97C370.048 340.806 370.125 340.806 370.203 340.812H370.877L373.34 340.859C375.416 340.859 378.29 340.921 381.459 340.905C384.627 340.89 387.509 340.836 389.585 340.781L392.048 340.719H392.947V340.681Z" fill="#263238"/>
<path d="M374.68 341.115C374.567 340.71 374.412 340.318 374.216 339.945C373.97 339.602 373.687 339.287 373.371 339.008C373.794 339.159 374.145 339.463 374.355 339.86C374.611 340.225 374.727 340.671 374.68 341.115Z" fill="#263238"/>
<path d="M378.693 339.077C378.693 339.077 378.469 338.868 378.267 338.558C378.066 338.248 377.942 337.977 377.98 337.954C378.019 337.931 378.205 338.155 378.407 338.465C378.608 338.775 378.732 339.054 378.693 339.077Z" fill="#263238"/>
<path d="M379.793 338.527C379.793 338.566 379.545 338.419 379.313 338.21C379.08 338 378.91 337.807 378.941 337.776C378.972 337.745 379.189 337.884 379.421 338.093C379.654 338.303 379.824 338.457 379.793 338.527Z" fill="#263238"/>
<path d="M380.483 337.21C380.255 337.293 380.011 337.325 379.77 337.303C379.533 337.334 379.291 337.311 379.065 337.233C379.29 337.15 379.531 337.118 379.77 337.14C380.01 337.107 380.254 337.131 380.483 337.21Z" fill="#263238"/>
<path d="M380.715 336.312C380.484 336.462 380.215 336.543 379.94 336.544C379.677 336.579 379.409 336.542 379.166 336.436C379.422 336.393 379.681 336.372 379.94 336.374C380.196 336.328 380.455 336.308 380.715 336.312Z" fill="#263238"/>
<path d="M378.236 337.892C377.947 337.946 377.65 337.946 377.361 337.892C377.048 337.854 376.739 337.786 376.439 337.69C376.253 337.639 376.074 337.566 375.904 337.473C375.801 337.412 375.724 337.316 375.687 337.202C375.673 337.137 375.678 337.07 375.701 337.008C375.725 336.946 375.766 336.893 375.819 336.853C376.034 336.75 376.269 336.695 376.507 336.692C376.745 336.69 376.981 336.741 377.198 336.841C377.414 336.941 377.605 337.088 377.758 337.271C377.911 337.454 378.021 337.669 378.081 337.899C378.097 337.976 378.097 338.055 378.081 338.132C377.993 337.852 377.857 337.59 377.678 337.357C377.472 337.125 377.203 336.958 376.904 336.877C376.561 336.766 376.188 336.794 375.866 336.954C375.734 337.055 375.788 337.218 375.935 337.311C376.093 337.396 376.26 337.466 376.431 337.52C376.722 337.615 377.02 337.691 377.322 337.744C377.903 337.868 378.236 337.868 378.236 337.892Z" fill="#263238"/>
<path d="M378.011 337.938C377.899 337.758 377.86 337.541 377.903 337.334C377.931 337.106 378.014 336.888 378.143 336.698C378.216 336.569 378.32 336.46 378.446 336.381C378.572 336.303 378.715 336.257 378.864 336.249C378.951 336.269 379.028 336.322 379.078 336.397C379.129 336.472 379.149 336.563 379.135 336.652C379.116 336.79 379.065 336.923 378.988 337.039C378.87 337.231 378.732 337.41 378.577 337.574C378.442 337.728 378.272 337.848 378.081 337.922C378.081 337.922 378.252 337.767 378.492 337.488C378.631 337.329 378.753 337.155 378.856 336.969C378.972 336.784 379.057 336.45 378.856 336.412C378.654 336.373 378.422 336.613 378.29 336.784C378.167 336.952 378.083 337.145 378.042 337.349C378.011 337.544 378 337.741 378.011 337.938Z" fill="#263238"/>
<path d="M392.66 336.978C392.66 336.978 392.273 336.978 391.661 337.016C390.864 337.112 390.11 337.429 389.484 337.931C388.858 338.434 388.386 339.102 388.121 339.859C387.919 340.44 387.904 340.835 387.873 340.828C387.842 340.82 387.873 340.727 387.873 340.557C387.893 340.307 387.939 340.06 388.012 339.821C388.259 339.028 388.733 338.325 389.376 337.799C390.027 337.283 390.817 336.972 391.645 336.908C391.903 336.877 392.163 336.877 392.42 336.908C392.503 336.921 392.584 336.944 392.66 336.978Z" fill="#263238"/>
<path d="M386.145 339.596C385.496 339.747 384.829 339.812 384.162 339.79C383.499 339.823 382.835 339.766 382.187 339.619C382.187 339.573 383.07 339.619 384.162 339.619C385.255 339.619 386.138 339.55 386.145 339.596Z" fill="#263238"/>
<path d="M388.795 339.573C388.795 339.573 388.725 339.759 388.632 339.96C388.539 340.161 388.493 340.347 388.446 340.34C388.4 340.332 388.376 340.131 388.485 339.89C388.593 339.65 388.764 339.534 388.795 339.573Z" fill="#263238"/>
<path d="M389.794 338.325C389.794 338.325 389.74 338.495 389.6 338.635C389.461 338.774 389.321 338.867 389.283 338.836C389.244 338.805 389.337 338.666 389.476 338.518C389.616 338.371 389.755 338.286 389.794 338.325Z" fill="#263238"/>
<path d="M391.219 337.752C391.219 337.798 391.033 337.798 390.832 337.868C390.631 337.938 390.491 338.046 390.452 338.015C390.414 337.984 390.53 337.798 390.778 337.713C391.026 337.628 391.235 337.705 391.219 337.752Z" fill="#263238"/>
<path d="M392.235 337.473C392.235 337.52 392.181 337.59 392.064 337.629C391.948 337.668 391.847 337.675 391.831 337.629C391.816 337.582 391.893 337.512 392.002 337.473C392.111 337.435 392.22 337.435 392.235 337.473Z" fill="#263238"/>
<path d="M411.004 336.482L410.493 335.344L422.663 329.231L424.809 333.879L424.034 334.274C420.711 336.002 407.038 342.834 404.451 343.175C401.592 343.586 411.004 336.482 411.004 336.482Z" fill="#455A64"/>
<path d="M424.855 333.546L424.654 333.67L424.057 333.98L421.857 335.095C419.998 336.017 417.411 337.264 414.521 338.581C411.632 339.898 408.982 341.021 407.061 341.819L404.776 342.741L404.156 342.981C404.085 343.014 404.009 343.038 403.932 343.051L404.141 342.95L404.753 342.679L407.015 341.711C408.928 340.89 411.562 339.743 414.452 338.426C417.341 337.109 419.936 335.885 421.811 334.987L424.026 333.925L424.638 333.639L424.855 333.546Z" fill="#263238"/>
<path d="M408.394 341.424C408.125 341.097 407.821 340.801 407.487 340.541C407.124 340.326 406.737 340.154 406.333 340.029C406.778 340.024 407.214 340.154 407.582 340.403C407.951 340.653 408.234 341.009 408.394 341.424Z" fill="#263238"/>
<path d="M411.19 337.922C411.19 337.922 410.896 337.829 410.586 337.628C410.276 337.427 410.051 337.233 410.075 337.194C410.098 337.156 410.369 337.287 410.679 337.489C410.989 337.69 411.213 337.884 411.19 337.922Z" fill="#263238"/>
<path d="M411.949 336.978C411.949 337.016 411.686 336.978 411.384 336.885C411.082 336.792 410.857 336.676 410.865 336.629C411.061 336.611 411.258 336.643 411.438 336.722C411.732 336.792 411.965 336.9 411.949 336.978Z" fill="#263238"/>
<path d="M412.058 335.49C412.058 335.537 411.802 335.699 411.446 335.87C411.24 335.993 411.01 336.07 410.772 336.094C410.772 336.048 411.027 335.885 411.376 335.715C411.585 335.592 411.817 335.515 412.058 335.49Z" fill="#263238"/>
<path d="M411.903 334.577C411.903 334.577 411.678 334.887 411.275 335.111C411.047 335.266 410.777 335.347 410.501 335.344C410.723 335.194 410.959 335.067 411.206 334.964C411.585 334.755 411.864 334.538 411.903 334.577Z" fill="#263238"/>
<path d="M410.315 337.039C410.079 337.201 409.817 337.322 409.54 337.396C409.236 337.484 408.925 337.549 408.611 337.589C408.42 337.613 408.228 337.613 408.037 337.589C407.918 337.58 407.806 337.525 407.727 337.434C407.691 337.379 407.672 337.314 407.672 337.248C407.672 337.182 407.691 337.118 407.727 337.062C407.963 336.777 408.29 336.582 408.653 336.512C409.017 336.441 409.393 336.499 409.718 336.675C409.911 336.776 410.079 336.916 410.214 337.086C410.307 337.21 410.346 337.287 410.338 337.295C410.147 337.082 409.919 336.906 409.664 336.776C409.391 336.648 409.087 336.602 408.789 336.644C408.611 336.663 408.439 336.716 408.282 336.801C408.125 336.886 407.987 337.001 407.875 337.14C407.789 337.287 407.875 337.411 408.084 337.434C408.262 337.45 408.44 337.45 408.618 337.434C408.927 337.403 409.232 337.349 409.532 337.272C409.974 337.148 410.315 337.016 410.315 337.039Z" fill="#263238"/>
<path d="M410.098 337.171C409.925 337.049 409.804 336.866 409.757 336.66C409.689 336.442 409.673 336.211 409.711 335.986C409.724 335.837 409.775 335.694 409.859 335.571C409.943 335.448 410.057 335.348 410.191 335.281C410.385 335.219 410.834 335.614 410.865 335.761C410.896 335.908 410.64 335.831 410.625 335.955C410.6 336.175 410.548 336.391 410.47 336.598C410.413 336.797 410.307 336.979 410.16 337.125C410.16 337.125 410.253 336.915 410.361 336.567C410.417 336.361 410.456 336.151 410.478 335.939C410.478 335.723 410.478 335.389 410.23 335.444C409.982 335.498 409.912 335.8 409.858 336.017C409.811 336.218 409.811 336.428 409.858 336.629C409.922 336.816 410.002 336.998 410.098 337.171Z" fill="#263238"/>
<path d="M423.073 330.285C423.073 330.285 422.702 330.417 422.175 330.734C421.486 331.146 420.925 331.742 420.556 332.454C420.197 333.173 420.045 333.978 420.114 334.778C420.161 335.398 420.308 335.754 420.277 335.77C420.227 335.693 420.188 335.61 420.161 335.522C420.084 335.285 420.03 335.041 419.998 334.794C419.887 333.969 420.03 333.13 420.408 332.388C420.786 331.646 421.38 331.037 422.113 330.642C422.332 330.52 422.563 330.422 422.802 330.347C422.889 330.313 422.981 330.292 423.073 330.285Z" fill="#263238"/>
<path d="M418.201 335.351C417.109 336.11 415.888 336.667 414.599 336.993C414.599 336.947 415.412 336.637 416.404 336.218C417.395 335.8 418.178 335.312 418.201 335.351Z" fill="#263238"/>
<path d="M420.61 334.243C420.649 334.243 420.61 334.437 420.61 334.661C420.61 334.886 420.61 335.072 420.61 335.088C420.61 335.103 420.455 334.917 420.455 334.661C420.455 334.406 420.571 334.22 420.61 334.243Z" fill="#263238"/>
<path d="M421.005 332.694C421.044 332.694 421.005 332.872 420.959 333.058C420.912 333.244 420.796 333.383 420.757 333.368C420.719 333.352 420.757 333.189 420.804 333.003C420.85 332.817 420.959 332.678 421.005 332.694Z" fill="#263238"/>
<path d="M422.074 331.554C422.074 331.601 421.919 331.671 421.764 331.818C421.609 331.965 421.524 332.12 421.485 332.104C421.447 332.089 421.485 331.872 421.656 331.694C421.826 331.516 422.066 331.554 422.074 331.554Z" fill="#263238"/>
<path d="M422.888 330.92C422.888 330.92 422.888 331.044 422.795 331.129C422.702 331.215 422.617 331.261 422.585 331.23C422.554 331.199 422.585 331.106 422.679 331.021C422.772 330.935 422.857 330.889 422.888 330.92Z" fill="#263238"/>
<path d="M407.65 173.245L405.388 145.59L417.008 145.799C417.008 145.799 417.542 141.717 415.83 132.777C414.777 127.293 411.128 123.931 407.03 121.932V121.854L406.674 121.761C403.301 120.247 399.698 119.307 396.015 118.98L381.722 119.143C381.722 119.143 370.807 117.749 364.788 125.565C362.464 128.563 355.252 149.084 355.252 149.084L372.411 157.342L370.807 145.962C370.807 145.962 371.132 154.212 372.186 156.807C372.767 158.264 374.51 162.788 374.51 162.788L374.285 176.437L407.65 173.245Z" fill="#EB5757"/>
<path d="M399.772 141.577L397.649 150.609H417.659L416.342 135.457L399.772 141.577Z" fill="#EB5757"/>
<path d="M417.659 150.61C416.784 150.448 415.898 150.36 415.009 150.346C413.367 150.253 411.136 150.168 408.595 150.183C406.054 150.199 403.815 150.307 402.173 150.431C401.285 150.462 400.401 150.571 399.532 150.757C400.418 150.827 401.31 150.827 402.196 150.757C403.831 150.703 406.07 150.641 408.595 150.633C411.12 150.625 413.359 150.633 415.002 150.672C415.887 150.721 416.776 150.7 417.659 150.61Z" fill="#263238"/>
<path d="M398.904 135.387C398.809 136.158 398.788 136.936 398.842 137.711C398.842 139.128 398.904 141.08 398.989 143.242C399.075 145.403 399.175 147.363 399.268 148.773C399.272 149.554 399.355 150.333 399.516 151.097C399.611 150.326 399.632 149.548 399.578 148.773C399.578 147.355 399.516 145.395 399.431 143.234C399.346 141.073 399.245 139.121 399.152 137.703C399.149 136.924 399.066 136.148 398.904 135.387Z" fill="#263238"/>
<g opacity="0.3">
<path d="M380.7 143.212C380.7 143.212 385.146 176.189 397.649 175.314C397.649 175.314 403.281 175.252 405.086 171.51V170.038L380.7 143.212Z" fill="black"/>
</g>
<g opacity="0.3">
<path d="M398.904 137.332L396.51 153.499L398.06 156.334L400.616 150.788L399.532 150.757L398.904 137.332Z" fill="black"/>
</g>
<path d="M374.44 162.803C374.292 162.562 374.177 162.301 374.099 162.029C373.906 161.525 373.65 160.789 373.325 159.868C372.549 157.466 371.91 155.021 371.411 152.547C370.914 150.071 370.598 147.562 370.466 145.041C370.42 144.072 370.404 143.29 370.42 142.717C370.4 142.436 370.418 142.155 370.474 141.88C370.536 141.88 370.582 143.073 370.745 144.979C370.963 147.477 371.317 149.963 371.806 152.423C372.38 155.305 373.069 157.884 373.596 159.736C373.844 160.596 374.053 161.332 374.223 161.936C374.33 162.215 374.402 162.507 374.44 162.803Z" fill="#263238"/>
<path d="M379.491 172.277C379.383 172.277 379.073 171.603 378.802 170.728C378.568 170.191 378.465 169.607 378.499 169.023C378.841 169.497 379.076 170.039 379.189 170.611C379.411 171.138 379.514 171.706 379.491 172.277Z" fill="#263238"/>
<path d="M381.219 172.153C380.633 170.599 380.608 168.89 381.149 167.319C381.209 168.124 381.209 168.932 381.149 169.736C381.233 170.539 381.257 171.347 381.219 172.153Z" fill="#263238"/>
<path d="M372.759 157.721C372.705 157.814 368.715 155.924 363.843 153.491C358.97 151.059 355.058 148.998 355.105 148.897C355.151 148.797 359.148 150.695 364.021 153.127C368.894 155.559 372.806 157.62 372.759 157.721Z" fill="#263238"/>
<path d="M379.793 121.816C379.878 117.896 379.902 113.775 379.902 113.775C379.902 113.775 374.874 112.806 373.999 106.191C373.162 99.8851 375.502 85.0813 375.502 85.0813C382.845 82.308 390.476 84.8257 395.503 90.7751L394.256 122.59C394.109 126.286 390.817 129.105 386.866 128.919C382.869 128.726 379.708 125.55 379.793 121.816Z" fill="#E7C19F"/>
<path d="M375.114 96.9104C375.107 97.1276 375.184 97.3392 375.328 97.5019C375.472 97.6646 375.672 97.7662 375.889 97.7858C375.999 97.7964 376.11 97.7845 376.215 97.7509C376.32 97.7172 376.417 97.6625 376.501 97.59C376.584 97.5175 376.652 97.4288 376.7 97.3293C376.748 97.2298 376.775 97.1215 376.78 97.0112C376.786 96.7948 376.71 96.5842 376.566 96.4227C376.421 96.2612 376.221 96.1613 376.005 96.1435C375.895 96.1268 375.782 96.1341 375.675 96.165C375.567 96.1958 375.468 96.2495 375.383 96.3223C375.299 96.3952 375.231 96.4854 375.184 96.5869C375.138 96.6885 375.114 96.7988 375.114 96.9104Z" fill="#263238"/>
<path d="M374.804 95.802C374.905 95.9105 375.579 95.4534 376.47 95.4844C377.361 95.5154 378.019 95.9802 378.128 95.8717C378.236 95.7633 378.081 95.6238 377.795 95.3992C377.407 95.1182 376.941 94.964 376.462 94.9576C375.99 94.9396 375.525 95.0756 375.137 95.345C374.851 95.5541 374.75 95.7478 374.804 95.802Z" fill="#263238"/>
<path d="M384.34 97.4837C384.332 97.7013 384.407 97.914 384.552 98.0771C384.696 98.2402 384.898 98.3412 385.115 98.3591C385.226 98.3759 385.339 98.3684 385.447 98.3371C385.555 98.3058 385.655 98.2514 385.74 98.1777C385.824 98.104 385.892 98.0128 385.938 97.9104C385.984 97.8079 386.007 97.6967 386.006 97.5844C386.015 97.3675 385.939 97.1558 385.794 96.9939C385.649 96.8321 385.448 96.7327 385.231 96.7168C385.121 96.7 385.008 96.7073 384.901 96.7382C384.794 96.7691 384.694 96.8228 384.61 96.8956C384.525 96.9684 384.457 97.0587 384.411 97.1602C384.364 97.2617 384.34 97.372 384.34 97.4837Z" fill="#263238"/>
<path d="M384.278 96.3757C384.379 96.4919 385.053 96.0348 385.944 96.0581C386.835 96.0813 387.493 96.5538 387.61 96.4454C387.726 96.3369 387.555 96.1975 387.269 95.9806C386.887 95.6922 386.422 95.5346 385.944 95.5313C385.47 95.5171 385.004 95.6526 384.612 95.9186C384.333 96.1278 384.232 96.3214 384.278 96.3757Z" fill="#263238"/>
<path d="M380.808 103.03C380.332 102.867 379.838 102.765 379.336 102.728C379.104 102.728 378.887 102.643 378.856 102.488C378.837 102.246 378.897 102.004 379.026 101.799L379.754 100.056C380.432 98.5743 380.989 97.0407 381.42 95.4697C380.627 96.8931 379.948 98.3774 379.39 99.9085C379.15 100.521 378.91 101.109 378.685 101.667C378.535 101.944 378.486 102.264 378.546 102.573C378.576 102.657 378.626 102.733 378.69 102.795C378.755 102.857 378.833 102.903 378.918 102.93C379.046 102.967 379.179 102.988 379.313 102.992C379.808 103.068 380.31 103.081 380.808 103.03Z" fill="#263238"/>
<path d="M379.902 113.775C383.001 113.899 386.074 113.162 388.779 111.645C388.779 111.645 386.525 116.114 379.948 115.332L379.902 113.775Z" fill="#E0A18D"/>
<path d="M387.191 93.7334C387.005 94.0201 386.308 93.8961 385.533 93.7334C384.759 93.5708 384.077 93.4391 383.984 93.106C383.891 92.7729 384.705 92.3313 385.743 92.5405C386.781 92.7496 387.377 93.4855 387.191 93.7334Z" fill="#263238"/>
<path d="M378.151 92.4173C378.081 92.7504 377.338 92.8743 376.485 92.913C375.633 92.9518 374.882 92.913 374.781 92.5722C374.68 92.2313 375.401 91.751 376.431 91.7046C377.461 91.6581 378.221 92.0996 378.151 92.4173Z" fill="#263238"/>
<path d="M380.823 105.207C380.726 105.184 380.623 105.194 380.532 105.236C380.44 105.279 380.366 105.35 380.32 105.44C380.276 105.519 380.253 105.608 380.254 105.698C380.255 105.789 380.28 105.877 380.325 105.955C380.371 106.033 380.437 106.098 380.515 106.143C380.594 106.188 380.683 106.212 380.773 106.212C380.864 106.212 380.952 106.188 381.031 106.143C381.11 106.098 381.175 106.033 381.221 105.955C381.266 105.877 381.291 105.789 381.292 105.698C381.293 105.608 381.27 105.519 381.226 105.44C381.171 105.335 381.081 105.253 380.973 105.207C380.864 105.161 380.743 105.152 380.63 105.184" fill="#E0A18D"/>
<path d="M381.033 105.3C381.033 105.261 380.885 105.036 380.49 105.122C380.372 105.152 380.264 105.214 380.177 105.299C380.09 105.385 380.027 105.492 379.995 105.61C379.953 105.758 379.957 105.915 380.005 106.062C380.053 106.208 380.144 106.336 380.266 106.431C380.395 106.519 380.547 106.566 380.703 106.566C380.86 106.566 381.012 106.519 381.141 106.431C381.244 106.361 381.325 106.264 381.374 106.15C381.424 106.036 381.44 105.911 381.42 105.788C381.342 105.377 381.04 105.315 381.025 105.37C381.009 105.424 381.133 105.563 381.11 105.803C381.105 105.863 381.085 105.92 381.053 105.97C381.02 106.02 380.976 106.061 380.924 106.09C380.864 106.125 380.796 106.143 380.727 106.143C380.657 106.143 380.589 106.125 380.529 106.09C380.475 106.044 380.434 105.985 380.409 105.919C380.385 105.852 380.378 105.78 380.39 105.71C380.399 105.649 380.422 105.591 380.459 105.541C380.495 105.491 380.543 105.451 380.599 105.424C380.816 105.292 381.009 105.354 381.033 105.3Z" fill="#263238"/>
<path d="M392.498 98.544C391.723 100.357 389.802 101.759 390.065 103.719C390.236 104.981 391.049 106.159 390.894 107.429C390.693 108.979 389.043 110.125 388.802 111.713C388.516 113.658 390.414 115.168 391.165 116.981C392.273 119.63 390.863 122.605 390.824 125.502C390.87 127.702 391.711 129.81 393.193 131.437C394.674 133.064 396.695 134.098 398.881 134.349C400.647 134.496 402.638 133.961 403.529 132.443C404.303 131.188 404.133 129.592 404.582 128.206C405.264 126.13 407.239 124.611 407.681 122.473C408.456 118.6 403.73 115.346 404.04 111.38C404.172 109.684 405.218 108.212 405.659 106.569C405.94 105.49 405.962 104.36 405.722 103.27C405.483 102.181 404.988 101.164 404.28 100.302C403.11 98.9158 401.422 97.9785 400.407 96.4911C399.284 94.7791 399.245 92.6178 398.858 90.5959C398.337 88.1384 397.203 85.8529 395.559 83.9529C393.916 82.053 391.818 80.6007 389.461 79.7317C387.104 78.8628 384.566 78.6056 382.082 78.9842C379.599 79.3627 377.252 80.3647 375.261 81.8965C375.261 81.8965 374.138 87.0015 379.383 87.8614C384.627 88.7213 387.052 87.7297 387.64 89.829C387.502 90.6939 387.57 91.5792 387.839 92.4127C388.108 93.2462 388.571 94.004 389.19 94.6242C391.328 96.9327 393.365 96.4369 392.498 98.544Z" fill="#263238"/>
<path d="M400.825 133.954C400.664 133.96 400.502 133.944 400.345 133.908C399.891 133.827 399.445 133.705 399.012 133.543C397.413 132.93 396.01 131.894 394.953 130.546C394.212 129.615 393.631 128.568 393.234 127.447C392.781 126.17 392.543 124.827 392.529 123.473C392.512 121.98 392.7 120.492 393.086 119.05C393.298 118.288 393.556 117.54 393.861 116.811C394.181 116.085 394.463 115.343 394.705 114.587C394.918 113.843 394.918 113.054 394.705 112.31C394.479 111.577 394.186 110.867 393.83 110.187C393.471 109.514 393.168 108.811 392.924 108.088C392.685 107.372 392.629 106.608 392.761 105.865C393.071 104.408 393.954 103.324 394.481 102.216C394.982 101.191 395.222 100.057 395.178 98.9161C395.107 97.2467 394.502 95.6442 393.45 94.3456C393.043 93.8907 392.606 93.4636 392.141 93.0674C392.684 93.3726 393.17 93.7712 393.574 94.2449C394.703 95.5416 395.368 97.1767 395.465 98.8928C395.529 100.083 395.294 101.271 394.783 102.348C394.248 103.494 393.388 104.587 393.125 105.919C392.862 107.251 393.489 108.654 394.179 110.001C394.555 110.7 394.861 111.435 395.093 112.194C395.321 113.004 395.321 113.862 395.093 114.673C394.835 115.454 394.538 116.222 394.202 116.973C393.897 117.687 393.638 118.419 393.427 119.166C393.043 120.571 392.852 122.023 392.862 123.481C392.838 125.963 393.639 128.382 395.139 130.36C396.143 131.691 397.478 132.736 399.012 133.389C400.167 133.838 400.833 133.908 400.825 133.954Z" fill="#455A64"/>
<path d="M400.051 94.8648C399.673 94.9625 399.286 95.0196 398.896 95.0352C397.833 95.1489 396.76 95.1202 395.705 94.95C394.905 94.8315 394.136 94.5547 393.445 94.1357C392.753 93.7167 392.152 93.1639 391.676 92.5098C391.234 91.6822 390.88 90.8096 390.623 89.9069C390.292 89.0053 389.671 88.2394 388.857 87.7301C387.16 86.6533 385.169 86.5217 383.434 86.3125C381.834 86.2327 380.279 85.7476 378.918 84.9026C378.006 84.2983 377.347 83.3805 377.066 82.323C376.999 82.0364 376.98 81.7404 377.012 81.4476C377.012 81.2462 377.059 81.1455 377.074 81.1455C377.083 81.5292 377.133 81.9109 377.221 82.2843C377.542 83.273 378.2 84.1176 379.08 84.6702C380.417 85.4501 381.926 85.8866 383.473 85.9407C385.208 86.1421 387.269 86.2428 389.081 87.3893C389.968 87.9463 390.644 88.7832 391.003 89.7675C391.245 90.6473 391.58 91.499 392.002 92.3084C392.904 93.5461 394.256 94.3806 395.767 94.6324C396.788 94.8222 397.828 94.8924 398.865 94.8415C399.26 94.8193 399.657 94.8271 400.051 94.8648Z" fill="#455A64"/>
<path d="M398.129 88.5587C397.838 88.6563 397.531 88.7009 397.223 88.6903C395.779 88.7001 394.389 88.1439 393.35 87.141C392.876 86.6658 392.472 86.126 392.149 85.5375C391.452 84.36 390.778 82.9114 389.329 82.3071C387.934 81.8389 386.447 81.7088 384.991 81.9276C383.763 82.1001 382.517 82.1001 381.288 81.9276C380.434 81.809 379.629 81.4549 378.964 80.905C378.793 80.7552 378.641 80.5833 378.515 80.3937C378.422 80.2595 378.383 80.1897 378.399 80.1846C378.399 80.1846 378.616 80.4325 379.065 80.7811C379.727 81.2522 380.497 81.5504 381.304 81.6487C382.51 81.7847 383.728 81.7638 384.929 81.5867C386.449 81.3386 388.006 81.4717 389.461 81.974C390.209 82.3102 390.85 82.8463 391.312 83.5234C391.721 84.1273 392.096 84.7531 392.436 85.398C392.741 85.9611 393.119 86.4819 393.559 86.9474C393.948 87.341 394.394 87.6727 394.884 87.9312C395.604 88.3074 396.396 88.5265 397.208 88.5741C397.804 88.5664 398.122 88.5199 398.129 88.5587Z" fill="#455A64"/>
<path d="M403.134 132.281C403.095 132.281 403.343 131.769 403.629 130.809C404.017 129.46 404.19 128.059 404.141 126.657C404.085 124.581 403.518 122.551 402.491 120.746C401.925 119.731 401.065 118.825 400.36 117.709C399.987 117.141 399.725 116.508 399.586 115.842C399.464 115.142 399.522 114.422 399.756 113.751C400.19 112.411 400.965 111.287 401.135 110.056C401.306 108.824 400.717 107.732 400.128 106.701C399.824 106.2 399.548 105.683 399.299 105.152C399.072 104.637 398.924 104.092 398.858 103.533C398.785 102.549 398.816 101.559 398.951 100.582C399.198 99.1994 399.07 97.776 398.579 96.4604C398.359 95.9996 398.048 95.5884 397.665 95.252C397.665 95.252 397.703 95.252 397.758 95.2984C397.849 95.344 397.933 95.4042 398.005 95.4766C398.309 95.729 398.554 96.0433 398.726 96.3985C399.286 97.7253 399.461 99.1833 399.229 100.605C399.123 101.564 399.11 102.532 399.191 103.494C399.382 104.577 399.81 105.603 400.446 106.5C400.776 107.024 401.059 107.576 401.29 108.15C401.534 108.77 401.614 109.442 401.522 110.102C401.337 111.458 400.539 112.604 400.136 113.867C399.924 114.476 399.868 115.129 399.973 115.765C400.108 116.38 400.355 116.966 400.701 117.492C401.36 118.569 402.251 119.491 402.816 120.552C403.854 122.418 404.408 124.514 404.427 126.649C404.452 128.078 404.232 129.501 403.777 130.855C403.653 131.222 403.503 131.579 403.327 131.924C403.28 132.052 403.215 132.172 403.134 132.281Z" fill="#455A64"/>
<path d="M371.582 276.624C371.582 276.624 366.361 227.169 366.058 208.895C365.756 190.621 374.278 172.587 374.278 172.587L407.65 171.2C407.65 171.2 414.25 189.738 414.366 197.539C414.599 212.676 410.346 227.619 410.834 239.626L411.949 276.655" fill="#263238"/>
<path d="M413.073 215.82C412.899 215.972 412.715 216.111 412.523 216.239L412.221 216.448L411.895 216.765C411.608 217.014 411.349 217.291 411.12 217.594C410.044 218.911 409.261 221.274 408.51 224.21C408.126 225.838 407.559 227.418 406.821 228.92C406.597 229.331 406.337 229.722 406.046 230.09C405.907 230.275 405.775 230.477 405.613 230.655L405.101 231.166C404.369 231.851 403.519 232.397 402.591 232.778C400.725 233.599 398.61 233.986 396.689 234.954C394.72 236.013 393.2 237.746 392.405 239.835C391.46 241.934 390.855 244.134 390.081 246.195C389.306 248.255 388.26 250.223 386.595 251.478C385.002 252.585 383.111 253.182 381.172 253.19C379.375 253.298 377.709 253.244 376.214 253.469C374.869 253.608 373.582 254.094 372.48 254.879C371.676 255.508 371.072 256.359 370.745 257.327C370.537 257.937 370.492 258.591 370.613 259.225C370.706 259.658 370.823 259.868 370.799 259.875C370.675 259.681 370.586 259.466 370.536 259.24C370.373 258.594 370.394 257.915 370.598 257.28C370.906 256.264 371.513 255.365 372.341 254.701C373.471 253.848 374.808 253.313 376.214 253.151C377.764 252.903 379.414 252.934 381.188 252.818C383.07 252.806 384.904 252.222 386.448 251.145C388.013 249.777 389.169 248.002 389.786 246.017C390.561 243.979 391.126 241.771 392.11 239.633C392.944 237.459 394.534 235.657 396.588 234.559C398.586 233.568 400.701 233.188 402.522 232.398C403.413 232.029 404.231 231.505 404.939 230.849L405.427 230.361C405.582 230.19 405.713 229.997 405.853 229.818C406.126 229.466 406.367 229.09 406.573 228.695C407.315 227.215 407.89 225.656 408.285 224.047C409.06 221.119 409.904 218.725 411.043 217.401C411.27 217.099 411.53 216.823 411.818 216.579C411.942 216.471 412.05 216.363 412.159 216.277L412.476 216.076C412.67 215.979 412.869 215.893 413.073 215.82Z" fill="#FAFAFA"/>
<path d="M413.274 192.937C413.31 193.154 413.325 193.375 413.32 193.595C413.318 194.235 413.24 194.872 413.088 195.493C412.421 197.759 411.11 199.783 409.316 201.318C408.131 202.408 406.832 203.366 405.442 204.177C403.947 205.06 402.297 205.904 400.601 206.865C398.819 207.82 397.159 208.988 395.658 210.343C394.119 211.871 392.851 213.65 391.909 215.603C390.959 217.583 389.874 219.496 388.663 221.328C388.047 222.182 387.335 222.961 386.54 223.652C385.757 224.318 384.896 224.888 383.976 225.348C382.312 226.166 380.578 226.832 378.794 227.339C377.136 227.851 375.587 228.308 374.239 228.889C373.016 229.375 371.851 229.999 370.768 230.748C369.954 231.313 369.221 231.988 368.592 232.754C368.065 233.418 367.625 234.147 367.282 234.923C367.338 234.708 367.41 234.499 367.499 234.296C367.753 233.71 368.078 233.159 368.468 232.653C369.086 231.855 369.816 231.15 370.637 230.562C371.724 229.786 372.896 229.137 374.13 228.625C375.623 228.017 377.146 227.487 378.693 227.037C380.451 226.518 382.162 225.85 383.806 225.038C384.678 224.584 385.496 224.033 386.246 223.396C387.01 222.716 387.696 221.952 388.291 221.119C389.486 219.296 390.56 217.396 391.506 215.433C392.478 213.436 393.788 211.622 395.379 210.072C396.907 208.697 398.598 207.516 400.415 206.555C402.119 205.602 403.769 204.773 405.264 203.898C406.65 203.114 407.949 202.184 409.137 201.125C410.917 199.635 412.239 197.672 412.949 195.462C413.148 194.634 413.257 193.788 413.274 192.937Z" fill="#FAFAFA"/>
<path d="M366.229 211.482C366.198 211.434 366.175 211.382 366.159 211.327C366.101 211.178 366.052 211.025 366.012 210.87C365.879 210.254 365.906 209.614 366.089 209.011C366.523 207.462 368.235 205.471 370.993 204.487C372.372 204.014 373.929 203.712 375.556 203.309C376.907 203.086 378.185 202.542 379.283 201.724C380.381 200.906 381.268 199.837 381.869 198.607C382.31 197.704 382.695 196.776 383.024 195.826C383.629 193.764 384.452 191.772 385.479 189.885C386.656 188.029 388.442 186.64 390.53 185.957C392.43 185.341 394.368 184.849 396.332 184.485C398.085 184.149 399.782 183.57 401.375 182.765C402.725 181.995 403.888 180.937 404.784 179.667C406.106 177.833 406.861 175.651 406.953 173.392C406.956 172.563 406.902 171.735 406.79 170.913C407.024 171.718 407.131 172.554 407.108 173.392C407.078 175.7 406.348 177.945 405.016 179.829C404.109 181.141 402.921 182.234 401.538 183.029C399.924 183.863 398.2 184.466 396.417 184.818C394.472 185.188 392.552 185.682 390.669 186.298C388.664 186.955 386.95 188.288 385.82 190.07C384.81 191.933 383.997 193.895 383.395 195.927C383.061 196.894 382.665 197.838 382.21 198.754C381.751 199.635 381.167 200.444 380.475 201.156C379.114 202.397 377.44 203.241 375.633 203.596C373.991 204.014 372.442 204.278 371.086 204.727C368.398 205.641 366.694 207.524 366.237 209.026C366.049 209.606 365.998 210.221 366.089 210.824C366.155 211.039 366.202 211.259 366.229 211.482Z" fill="#FAFAFA"/>
<path d="M410.408 253.314C410.439 253.475 410.457 253.639 410.462 253.802C410.477 254.272 410.427 254.741 410.315 255.197C409.828 256.877 408.798 258.348 407.387 259.38C406.444 260.131 405.401 260.746 404.288 261.208C403.103 261.712 401.794 262.115 400.415 262.541C398.983 262.959 397.583 263.477 396.224 264.09C394.812 264.765 393.546 265.709 392.498 266.871C391.367 268.049 390.391 269.342 389.306 270.489C388.269 271.599 387.064 272.54 385.735 273.277C383.473 274.511 380.944 275.171 378.368 275.199C376.643 275.217 374.927 274.931 373.301 274.354C372.86 274.202 372.43 274.018 372.016 273.804C371.864 273.742 371.721 273.661 371.59 273.564C371.746 273.607 371.898 273.661 372.047 273.727C372.472 273.909 372.906 274.069 373.348 274.207C374.971 274.716 376.667 274.954 378.368 274.912C380.887 274.847 383.353 274.174 385.557 272.952C386.844 272.223 388.012 271.301 389.019 270.218C390.081 269.087 391.049 267.801 392.203 266.592C393.313 265.387 394.651 264.413 396.139 263.726C397.518 263.11 398.939 262.592 400.391 262.177C401.755 261.758 403.056 261.402 404.265 260.891C405.346 260.448 406.362 259.862 407.286 259.148C408.674 258.167 409.709 256.766 410.237 255.15C410.352 254.545 410.409 253.93 410.408 253.314Z" fill="#FAFAFA"/>
<path d="M406.604 150.641L400.144 150.796C399.895 152.099 399.401 153.342 398.687 154.46C393.265 145.087 389.105 132.537 388.067 127.494C388.222 126.991 388.4 126.433 388.624 125.813C388.785 124.872 388.756 123.908 388.539 122.978C388.353 121.854 388.043 120.344 387.95 119.647C387.664 117.509 387.315 117.176 386.571 117.416C385.564 117.749 386.99 123.404 386.161 123.528C385.712 123.59 385.169 121.653 385.014 120.065C384.859 118.477 384.131 113.581 383.612 113.256C382.838 112.775 382.164 113.535 382.365 115.115C382.566 116.695 382.807 121.498 381.97 121.568C381.133 121.638 380.421 113.519 380.421 113.519C380.421 113.519 380.552 111.753 379.576 111.792C377.826 111.869 379.197 120.421 379.344 121.235C379.452 121.793 378.569 121.901 378.461 121.289C378.352 120.677 377.949 113.178 376.137 113.24C374.758 113.24 377.198 120.282 376.423 121.909C375.649 123.536 375.122 116.393 373.813 116.486C373.325 116.525 372.961 116.618 373.859 120.654C374.72 123.86 375.754 127.018 376.958 130.112C379.034 141.306 388.144 177.119 402.421 170.565C410.416 166.893 413.654 150.641 413.654 150.641H406.604Z" fill="#E7C19F"/>
<path d="M379.065 121.776C379.126 121.792 379.19 121.792 379.251 121.776C379.344 121.748 379.424 121.687 379.477 121.605C379.53 121.522 379.551 121.424 379.538 121.327C379.538 120.847 379.445 120.15 379.336 119.243C379.155 118.151 379.036 117.049 378.98 115.943C378.98 115.292 378.98 114.595 379.018 113.859C379.03 113.485 379.069 113.112 379.135 112.744C379.197 112.395 379.429 111.969 379.7 112.039H379.747C380.018 112.039 380.235 112.24 380.32 112.566C380.416 112.903 380.452 113.254 380.428 113.604C380.588 115.773 380.865 117.932 381.257 120.072C381.319 120.359 381.381 120.653 381.474 120.948C381.515 121.098 381.567 121.246 381.629 121.389C381.669 121.469 381.713 121.546 381.761 121.621C381.796 121.678 381.843 121.726 381.9 121.761C381.956 121.796 382.02 121.817 382.086 121.823C382.199 121.81 382.306 121.765 382.393 121.692C382.479 121.619 382.543 121.521 382.574 121.412C382.641 121.261 382.69 121.102 382.721 120.94C382.782 120.628 382.823 120.312 382.845 119.995C382.916 118.704 382.898 117.41 382.791 116.121C382.693 115.478 382.667 114.826 382.714 114.177C382.742 113.897 382.878 113.638 383.093 113.457C383.143 113.427 383.198 113.408 383.256 113.402C383.313 113.395 383.371 113.4 383.426 113.418C383.492 113.434 383.555 113.46 383.612 113.495C383.652 113.525 383.681 113.565 383.697 113.611C383.941 114.24 384.121 114.891 384.232 115.556C384.371 116.238 384.488 116.943 384.596 117.647C384.704 118.352 384.805 119.065 384.89 119.786C384.957 120.529 385.076 121.267 385.247 121.993C385.338 122.365 385.455 122.73 385.595 123.086C385.674 123.285 385.784 123.47 385.921 123.636C385.973 123.704 386.044 123.757 386.125 123.787C386.205 123.817 386.293 123.824 386.378 123.806C386.456 123.78 386.527 123.734 386.582 123.673C386.638 123.612 386.677 123.538 386.695 123.457C386.787 123.062 386.816 122.654 386.781 122.249C386.781 121.862 386.734 121.474 386.695 121.102C386.641 120.452 386.579 119.809 386.556 119.174C386.536 118.861 386.536 118.548 386.556 118.236C386.571 118.098 386.605 117.963 386.657 117.833C386.673 117.791 386.696 117.751 386.726 117.717H386.827C387.338 117.508 387.509 118.221 387.648 118.794C387.788 119.367 387.842 120.018 387.966 120.63C388.167 121.846 388.431 123.062 388.562 124.224C388.652 124.781 388.631 125.349 388.5 125.898C388.314 126.455 388.129 127.005 387.95 127.555V127.61V127.656C388.858 131.462 390.014 135.204 391.413 138.858C392.637 142.165 393.869 145.055 394.945 147.379C396.022 149.703 396.998 151.523 397.665 152.747L398.439 154.134C398.523 154.299 398.624 154.455 398.741 154.599C398.676 154.427 398.596 154.261 398.501 154.103L397.727 152.685C397.091 151.438 396.177 149.587 395.124 147.263C394.07 144.939 392.877 142.049 391.684 138.741C390.319 135.093 389.186 131.362 388.291 127.571V127.679C388.469 127.137 388.648 126.587 388.833 126.037C388.995 125.433 389.026 124.802 388.926 124.186C388.787 122.969 388.531 121.792 388.33 120.568C388.214 119.964 388.136 119.344 388.012 118.709C388.004 118.382 387.95 118.059 387.85 117.748C387.761 117.559 387.611 117.406 387.424 117.314C387.225 117.249 387.01 117.249 386.812 117.314H386.688C386.622 117.335 386.561 117.37 386.509 117.415C386.423 117.488 386.357 117.581 386.316 117.686C386.245 117.854 386.2 118.032 386.184 118.213C386.161 118.548 386.161 118.885 386.184 119.22C386.184 119.871 386.277 120.521 386.331 121.172C386.331 121.552 386.393 121.947 386.409 122.295C386.439 122.645 386.421 122.997 386.355 123.341C386.355 123.419 386.293 123.403 386.355 123.442L386.308 123.395C386.209 123.269 386.131 123.128 386.076 122.977C385.94 122.642 385.829 122.298 385.743 121.947C385.572 121.241 385.456 120.524 385.394 119.801C385.311 119.073 385.211 118.352 385.092 117.64C384.983 116.927 384.859 116.23 384.72 115.533C384.603 114.823 384.406 114.129 384.131 113.464C384.078 113.353 383.995 113.259 383.891 113.193C383.801 113.141 383.705 113.099 383.604 113.069C383.494 113.04 383.379 113.033 383.266 113.049C383.153 113.065 383.044 113.104 382.946 113.162C382.786 113.282 382.653 113.433 382.554 113.606C382.456 113.779 382.394 113.971 382.373 114.169C382.323 114.521 382.323 114.879 382.373 115.231C382.373 115.564 382.45 115.889 382.473 116.214C382.581 117.482 382.605 118.755 382.543 120.026C382.525 120.328 382.486 120.628 382.427 120.924C382.405 121.063 382.366 121.198 382.311 121.327C382.291 121.378 382.262 121.425 382.226 121.467C382.226 121.536 382.171 121.467 382.179 121.559C382.179 121.482 382.179 121.559 382.179 121.459C382.145 121.406 382.114 121.352 382.086 121.296C382.032 121.172 381.985 121.033 381.939 120.901C381.854 120.622 381.792 120.336 381.73 120.057C381.326 117.935 381.033 115.794 380.854 113.642C380.878 113.253 380.833 112.862 380.723 112.488C380.672 112.293 380.567 112.116 380.421 111.977C380.345 111.904 380.255 111.847 380.156 111.809C380.058 111.772 379.953 111.755 379.847 111.76H379.894C379.763 111.741 379.629 111.761 379.509 111.817C379.389 111.874 379.289 111.964 379.22 112.078C379.105 112.262 379.026 112.468 378.987 112.682C378.922 113.066 378.886 113.454 378.879 113.844C378.879 114.619 378.879 115.292 378.879 115.951C378.953 117.064 379.095 118.171 379.305 119.266C379.437 120.165 379.538 120.862 379.584 121.335C379.599 121.418 379.585 121.503 379.544 121.576C379.503 121.65 379.438 121.707 379.359 121.738C379.127 121.761 379.057 121.769 379.065 121.776Z" fill="#E0A18D"/>
<path d="M328.611 161.308C327.1 161.276 325.59 161.451 324.126 161.827C320.121 162.881 313.219 167.064 312.932 172.231H317.952C317.952 172.231 315.14 178.212 315.961 177.654C318.107 176.213 322.367 171.883 322.367 171.883L328.611 161.308Z" fill="#E7C19F"/>
<path d="M397.037 71.2686C396.921 71.2686 396.472 67.1319 396.022 61.9727C395.573 56.8134 395.294 52.6768 395.403 52.6768C395.511 52.6768 395.968 56.8134 396.417 61.9727C396.867 67.1319 397.146 71.2686 397.037 71.2686Z" fill="#263238"/>
<path d="M419.045 52.9947C419.13 53.0567 415.745 57.9758 411.477 63.9794C407.208 69.983 403.668 74.8247 403.575 74.7317C403.482 74.6388 406.875 69.7507 411.144 63.747C415.412 57.7434 418.952 52.9328 419.045 52.9947Z" fill="#263238"/>
<path d="M428.186 75.289C428.186 75.3975 424.251 76.3038 419.355 77.3109C414.459 78.3179 410.462 79.0461 410.439 78.9377C410.416 78.8292 414.366 77.9229 419.27 76.9158C424.174 75.9087 428.132 75.1806 428.186 75.289Z" fill="#263238"/>
<path d="M164.747 181.689L137.324 322.522L133.761 340.959L316.581 340.076C324.792 340.037 332.074 332.748 334.7 321.918L367.127 188.963C369.134 180.744 364.734 172.191 358.505 172.199L173.423 172.393C169.395 172.385 165.785 176.196 164.747 181.689Z" fill="#EB5757"/>
<g opacity="0.5">
<path d="M164.747 181.689L137.324 322.522L133.761 340.959L316.581 340.076C324.792 340.037 332.074 332.748 334.7 321.918L367.127 188.963C369.134 180.744 364.734 172.191 358.505 172.199L173.423 172.393C169.395 172.385 165.785 176.196 164.747 181.689Z" fill="black"/>
</g>
<path d="M299.066 312.963L279.699 156.939C278.925 150.548 273.82 145.776 267.8 145.799L225.349 145.931C223.771 145.948 222.214 146.287 220.772 146.927C219.329 147.566 218.032 148.492 216.959 149.649L196.818 171.084L78.7598 171.719C71.5477 171.758 66.0011 178.59 66.954 186.259L84.9339 330.463C85.7085 336.846 90.8136 341.61 96.8172 341.602L302.606 341.192C325.52 341.664 327.713 334.901 327.713 334.901C301.405 340.719 299.066 313.002 299.066 312.963Z" fill="#EB5757"/>
<path d="M328.449 80.3954C328.198 80.2897 327.982 80.1149 327.827 79.8913C327.672 79.6676 327.584 79.4045 327.573 79.1327L327.263 71.9438C327.252 71.7205 327.294 71.4976 327.384 71.2929C327.474 71.0882 327.61 70.9073 327.782 70.7645C327.955 70.6217 328.158 70.5209 328.375 70.4701C328.593 70.4194 328.82 70.42 329.037 70.472C329.637 70.6014 330.257 70.607 330.859 70.4884C331.461 70.3699 332.033 70.1297 332.539 69.7825C333.005 69.4876 333.405 69.1004 333.716 68.6447C334.026 68.1891 334.24 67.6747 334.344 67.1332C334.414 66.5849 334.373 66.0281 334.224 65.4959C334.075 64.9636 333.821 64.4667 333.476 64.0345C333.113 63.5429 332.657 63.1276 332.133 62.8126C331.609 62.4976 331.028 62.2889 330.424 62.1986C329.205 62.1308 327.999 62.4764 327.001 63.1793C326.003 63.8822 325.271 64.9014 324.924 66.0719C324.808 66.4265 324.56 66.7229 324.231 66.8992C323.903 67.0755 323.518 67.1182 323.159 67.0183C322.8 66.9185 322.492 66.6838 322.302 66.3632C322.111 66.0426 322.051 65.6608 322.135 65.2972C322.662 63.4562 323.807 61.8528 325.377 60.7566C326.947 59.6604 328.847 59.1383 330.757 59.2781C331.751 59.4105 332.708 59.7414 333.572 60.2511C334.436 60.7608 335.188 61.4389 335.785 62.2451C336.365 62.9922 336.789 63.8482 337.033 64.7624C337.276 65.6765 337.334 66.6302 337.202 67.567C337.026 68.5024 336.66 69.3919 336.127 70.1806C335.595 70.9694 334.906 71.6406 334.104 72.153C332.941 72.9354 331.584 73.3781 330.184 73.4312L330.424 78.9777C330.433 79.2214 330.38 79.4635 330.271 79.6814C330.161 79.8993 329.999 80.086 329.798 80.2243C329.597 80.3626 329.364 80.4479 329.122 80.4724C328.879 80.4969 328.634 80.4598 328.41 80.3644L328.449 80.3954Z" fill="#EB5757"/>
<path d="M330.571 83.3386C330.587 83.5726 330.534 83.8061 330.418 84.0096C330.301 84.2132 330.127 84.3776 329.917 84.4821C329.707 84.5867 329.471 84.6265 329.238 84.5967C329.006 84.567 328.787 84.4688 328.61 84.3148C328.433 84.1607 328.306 83.9577 328.245 83.7314C328.183 83.5051 328.191 83.2656 328.265 83.0433C328.34 82.821 328.479 82.6259 328.665 82.4827C328.85 82.3395 329.074 82.2545 329.308 82.2386C329.464 82.227 329.62 82.2464 329.768 82.2955C329.915 82.3447 330.052 82.4227 330.169 82.525C330.287 82.6273 330.383 82.7519 330.452 82.8916C330.521 83.0312 330.561 83.1832 330.571 83.3386Z" fill="#EB5757"/>
<path d="M303.559 70.2549C303.592 70.1017 303.615 69.9464 303.628 69.7901C303.628 69.4493 303.714 69.0155 303.776 68.4035C303.852 67.6521 303.979 66.9068 304.155 66.1725C304.256 65.7387 304.31 65.2584 304.465 64.7703C304.62 64.2823 304.775 63.7555 304.945 63.221C305.842 60.5727 307.149 58.0815 308.819 55.8385C311.007 52.934 313.78 50.5217 316.96 48.7581C318.77 47.7376 320.698 46.9416 322.701 46.3876C324.862 45.8147 327.088 45.5231 329.324 45.52C330.502 45.5011 331.679 45.5632 332.849 45.7059C333.445 45.7679 334.034 45.9228 334.63 46.0235C335.234 46.1269 335.829 46.2718 336.412 46.4573C338.854 47.1397 341.176 48.1926 343.299 49.5792C348.018 52.6401 351.613 57.154 353.54 62.4386C354.578 65.2694 355.102 68.2625 355.089 71.2775C355.121 74.3834 354.572 77.4679 353.47 80.372L353.122 81.2551L353.075 81.3713L353.122 81.4875C355.066 85.9573 356.995 90.3497 358.815 94.6026L359.141 94.2307L347.521 89.7764L347.381 89.7222L347.265 89.8306C344.191 92.809 340.428 94.9806 336.311 96.1519C332.794 97.1203 329.111 97.3317 325.505 96.7722C321.9 96.2127 318.454 94.895 315.396 92.906C312.89 91.2632 310.682 89.2069 308.865 86.8249C306.232 83.3481 304.526 79.259 303.907 74.9416C303.814 74.167 303.737 73.5163 303.667 72.9275C303.597 72.3388 303.667 71.8585 303.628 71.4479C303.59 71.0374 303.628 70.7662 303.628 70.5416C303.667 70.5357 303.702 70.5155 303.726 70.4849C303.751 70.4543 303.763 70.4157 303.76 70.3767C303.757 70.3378 303.739 70.3014 303.711 70.2748C303.682 70.2482 303.644 70.2335 303.605 70.2335C303.566 70.2335 303.528 70.2482 303.5 70.2748C303.471 70.3014 303.454 70.3378 303.451 70.3767C303.448 70.4157 303.46 70.4543 303.484 70.4849C303.508 70.5155 303.543 70.5357 303.582 70.5416C303.582 70.7662 303.582 71.0683 303.582 71.4479C303.582 71.8275 303.582 72.3543 303.582 72.943C303.582 73.5318 303.714 74.2057 303.791 74.9726C304.046 76.8359 304.49 78.6684 305.116 80.4417C306.003 82.7836 307.196 84.9977 308.664 87.0264C310.488 89.4508 312.712 91.5465 315.241 93.2236C318.337 95.2623 321.832 96.6191 325.492 97.2041C329.153 97.7891 332.897 97.5889 336.474 96.6167C340.64 95.4334 344.451 93.2409 347.567 90.2335L347.312 90.2877L358.931 94.7652L359.512 94.9899L359.257 94.3934C357.413 90.1405 355.507 85.7559 353.571 81.2784V81.503L353.927 80.5967C355.058 77.6293 355.62 74.4759 355.585 71.3007C355.609 68.2217 355.085 65.1631 354.036 62.2682C352.067 56.8782 348.392 52.2786 343.57 49.1687C341.394 47.7496 339.011 46.6781 336.505 45.9925C335.912 45.805 335.306 45.6625 334.692 45.5665C334.088 45.458 333.492 45.3031 332.887 45.2489C331.703 45.1018 330.51 45.0345 329.316 45.0475C327.045 45.0571 324.784 45.3644 322.592 45.9616C320.563 46.5378 318.61 47.3544 316.774 48.394C313.563 50.2009 310.772 52.6698 308.586 55.6371C306.922 57.9172 305.633 60.4487 304.767 63.1358C304.605 63.6936 304.45 64.2281 304.31 64.6851C304.187 65.1521 304.089 65.6253 304.016 66.1028C303.85 66.8421 303.741 67.5932 303.69 68.3493C303.644 68.9458 303.613 69.4028 303.59 69.7437C303.557 69.912 303.547 70.0839 303.559 70.2549Z" fill="#263238"/>
<path d="M193.926 273.572H154.208C154.077 273.575 153.949 273.527 153.852 273.438C153.755 273.349 153.697 273.226 153.689 273.095L149.692 217.551C149.687 217.481 149.697 217.411 149.721 217.346C149.744 217.28 149.782 217.22 149.83 217.17C149.877 217.117 149.934 217.075 149.998 217.046C150.062 217.017 150.131 217.001 150.201 217H179.68C179.773 217.003 179.864 217.029 179.945 217.074L190.651 223.519C190.723 223.56 190.784 223.619 190.828 223.689C190.872 223.759 190.899 223.839 190.905 223.922L194.424 273.021C194.432 273.092 194.423 273.165 194.399 273.233C194.376 273.3 194.337 273.362 194.287 273.413C194.241 273.463 194.185 273.502 194.123 273.53C194.061 273.557 193.994 273.572 193.926 273.572ZM154.706 272.512H193.364L189.888 224.229L179.584 218.028H150.752L154.706 272.512Z" fill="#F5ABAB"/>
<path d="M183.612 226.572C183.515 226.571 183.419 226.543 183.336 226.491C183.254 226.438 183.188 226.363 183.146 226.275L179.213 217.731C179.168 217.631 179.154 217.519 179.175 217.411C179.196 217.302 179.25 217.203 179.33 217.127C179.414 217.055 179.519 217.011 179.629 217.002C179.739 216.992 179.85 217.018 179.945 217.074L190.651 223.519C190.737 223.571 190.807 223.646 190.852 223.736C190.897 223.826 190.916 223.928 190.905 224.028C190.892 224.125 190.85 224.217 190.787 224.292C190.723 224.367 190.639 224.423 190.545 224.452L183.761 226.572H183.612ZM180.846 218.813L183.888 225.438L189.188 223.816L180.846 218.813Z" fill="#F5ABAB"/>
<path d="M166.864 242.536C166.88 242.824 166.837 243.112 166.738 243.383C166.638 243.654 166.485 243.901 166.286 244.111C166.088 244.32 165.849 244.487 165.584 244.6C165.318 244.714 165.033 244.773 164.744 244.772C164.139 244.761 163.56 244.527 163.117 244.114C162.675 243.701 162.401 243.139 162.349 242.536C162.322 242.245 162.357 241.951 162.452 241.674C162.547 241.398 162.7 241.145 162.9 240.932C163.101 240.72 163.345 240.552 163.615 240.441C163.886 240.33 164.177 240.278 164.469 240.288C165.075 240.302 165.655 240.539 166.097 240.953C166.539 241.368 166.812 241.932 166.864 242.536Z" fill="#F5ABAB"/>
<path d="M181.386 242.536C181.412 242.827 181.376 243.119 181.28 243.394C181.184 243.669 181.031 243.921 180.831 244.132C180.63 244.344 180.387 244.51 180.117 244.621C179.848 244.731 179.558 244.783 179.266 244.773C178.66 244.762 178.079 244.528 177.635 244.115C177.191 243.702 176.915 243.14 176.86 242.536C176.843 242.247 176.885 241.958 176.984 241.686C177.082 241.414 177.236 241.165 177.434 240.954C177.633 240.744 177.873 240.576 178.138 240.462C178.404 240.347 178.691 240.289 178.98 240.289C179.589 240.298 180.173 240.532 180.617 240.948C181.062 241.363 181.336 241.93 181.386 242.536Z" fill="#F5ABAB"/>
<path d="M185.499 257.101C185.37 257.099 185.247 257.049 185.153 256.961C185.059 256.872 185.001 256.752 184.99 256.624C184.725 253.009 179.065 250.073 172.376 250.073C167.935 250.073 163.949 251.398 161.978 253.518C161.573 253.909 161.256 254.381 161.047 254.904C160.839 255.427 160.744 255.988 160.769 256.55C160.774 256.619 160.765 256.689 160.743 256.755C160.721 256.822 160.686 256.883 160.64 256.935C160.548 257.042 160.417 257.107 160.277 257.117C160.136 257.127 159.997 257.08 159.891 256.988C159.785 256.895 159.719 256.764 159.709 256.624C159.678 255.921 159.794 255.22 160.049 254.564C160.305 253.909 160.694 253.314 161.193 252.819C163.313 250.497 167.628 249.045 172.345 249.045C179.69 249.045 185.679 252.342 185.976 256.55C185.981 256.617 185.972 256.684 185.95 256.747C185.928 256.81 185.894 256.869 185.85 256.919C185.806 256.969 185.752 257.01 185.692 257.04C185.631 257.069 185.566 257.086 185.499 257.09V257.101Z" fill="#F5ABAB"/>
<path d="M158.565 237.999C158.435 237.996 158.311 237.947 158.215 237.861C158.118 237.764 158.064 237.632 158.064 237.495C158.064 237.358 158.118 237.227 158.215 237.129L160.473 234.702C160.569 234.609 160.699 234.557 160.833 234.557C160.967 234.557 161.097 234.609 161.193 234.702C161.241 234.749 161.279 234.805 161.304 234.867C161.33 234.929 161.343 234.995 161.343 235.062C161.343 235.129 161.33 235.196 161.304 235.258C161.279 235.319 161.241 235.376 161.193 235.423L158.936 237.85C158.887 237.899 158.829 237.937 158.765 237.962C158.702 237.988 158.633 238 158.565 237.999Z" fill="#F5ABAB"/>
<path d="M184.439 237.999C184.311 237.993 184.188 237.944 184.089 237.861L181.492 235.433C181.443 235.386 181.404 235.329 181.378 235.266C181.351 235.204 181.337 235.136 181.337 235.068C181.337 234.999 181.351 234.932 181.378 234.869C181.404 234.806 181.443 234.749 181.492 234.702C181.589 234.609 181.718 234.557 181.853 234.557C181.987 234.557 182.116 234.609 182.213 234.702L184.81 237.129C184.858 237.177 184.895 237.233 184.921 237.295C184.947 237.357 184.96 237.423 184.96 237.49C184.96 237.557 184.947 237.623 184.921 237.685C184.895 237.747 184.858 237.803 184.81 237.85C184.709 237.944 184.577 237.997 184.439 237.999Z" fill="#F5ABAB"/>
<path d="M147 284.035H149.396L152.851 288.636L152.523 284.035H154.939L155.533 292.346H153.084L149.65 287.777L149.979 292.346H147.562L147 284.035Z" fill="#F5ABAB"/>
<path d="M156.614 288.189C156.532 287.625 156.571 287.05 156.729 286.501C156.886 285.953 157.157 285.445 157.526 285.009C157.929 284.613 158.411 284.307 158.941 284.112C159.471 283.916 160.036 283.835 160.6 283.875C161.794 283.81 162.968 284.209 163.875 284.988C164.707 285.816 165.189 286.932 165.221 288.104C165.309 288.913 165.2 289.732 164.903 290.489C164.629 291.1 164.169 291.608 163.589 291.942C162.893 292.315 162.11 292.494 161.321 292.461C160.51 292.487 159.703 292.335 158.957 292.016C158.303 291.702 157.752 291.21 157.367 290.595C156.912 289.872 156.653 289.043 156.614 288.189ZM159.19 288.189C159.18 288.84 159.389 289.474 159.784 289.991C159.949 290.174 160.153 290.317 160.38 290.413C160.607 290.508 160.852 290.552 161.098 290.542C161.333 290.559 161.568 290.518 161.784 290.424C162 290.33 162.19 290.185 162.338 290.002C162.643 289.423 162.743 288.758 162.624 288.115C162.629 287.492 162.419 286.885 162.031 286.398C161.861 286.219 161.655 286.078 161.427 285.985C161.198 285.892 160.952 285.848 160.706 285.857C160.475 285.847 160.246 285.892 160.035 285.988C159.825 286.084 159.641 286.228 159.497 286.408C159.187 286.955 159.078 287.592 159.19 288.21V288.189Z" fill="#F5ABAB"/>
<path d="M170.203 284.035H174.019C174.648 284.015 175.275 284.119 175.864 284.342C176.33 284.537 176.743 284.838 177.072 285.222C177.406 285.611 177.662 286.061 177.825 286.547C177.997 287.069 178.104 287.61 178.143 288.158C178.224 288.851 178.17 289.553 177.984 290.225C177.838 290.691 177.579 291.113 177.231 291.455C176.941 291.762 176.576 291.988 176.171 292.112C175.678 292.255 175.169 292.333 174.655 292.345H170.85L170.203 284.035ZM172.906 285.921L173.235 290.458H173.86C174.247 290.484 174.635 290.422 174.995 290.278C175.232 290.141 175.407 289.916 175.482 289.653C175.604 289.182 175.632 288.693 175.567 288.211C175.587 287.564 175.389 286.93 175.005 286.409C174.808 286.231 174.577 286.096 174.325 286.012C174.073 285.928 173.807 285.897 173.542 285.921H172.906Z" fill="#F5ABAB"/>
<path d="M184.301 290.968H181.386L181.079 292.346H178.461L180.984 284.035H183.824L187.545 292.346H184.853L184.301 290.968ZM183.634 289.176L182.51 286.187L181.81 289.176H183.634Z" fill="#F5ABAB"/>
<path d="M186.337 284.035H194.138L194.287 286.092H191.668L192.114 292.346H189.548L189.103 286.092H186.485L186.337 284.035Z" fill="#F5ABAB"/>
<path d="M200.117 290.968H197.202L196.894 292.346H194.276L196.799 284.035H199.597L203.307 292.346H200.625L200.117 290.968ZM199.449 289.176L198.315 286.187L197.604 289.176H199.449Z" fill="#F5ABAB"/>
</svg>
